<?xml version="1.0" encoding="utf-8"?>
<!-- Generator: Adobe Illustrator 22.1.0, SVG Export Plug-In . SVG Version: 6.00 Build 0)  -->
<svg version="1.1" xmlns="http://www.w3.org/2000/svg" xmlns:xlink="http://www.w3.org/1999/xlink" x="0px" y="0px"
	 viewBox="0 0 5000 5000" style="enable-background:new 0 0 5000 5000;" xml:space="preserve">
<style type="text/css">
	.st0{opacity:0.27;}
	.st1{fill:#B4DBD6;}
	.st2{fill:#709792;}
	.st3{fill:#B8D7D8;}
	.st4{fill:#9DB0A2;}
	.st5{fill:#F6F6F6;}
	.st6{fill:#C4C4C4;}
	.st7{fill:#8FBCBE;}
	.st8{fill:#70A1A1;}
	.st9{fill:#993729;}
	.st10{fill:#B48B88;}
	.st11{fill:#40394A;}
	.st12{fill:#65616C;}
	.st13{fill:#383838;}
	.st14{fill:#C7903D;}
	.st15{fill:#302D2D;}
	.st16{fill:#595959;}
	.st17{fill:#DDB57A;}
	.st18{fill:#A2C4BF;}
	.st19{fill:#FFFFFF;}
	.st20{fill:#37313F;}
</style>
<g id="Layer_1" class="st0">
	<rect class="st1" width="5000" height="5000"/>
	<path class="st2" d="M5000,1826.6v478.3H0v-519.1h6.6v265.3h15.9v-263H47l32.6-56.1h22.6l0.3-26.4l49.3,0.2l0,26.2h17.8l33.1,57.2
		l25.6,0.2v276.3h12.3v-27.6h12.2v-520.4h34.3v-23.5l49-40.8v-34.7h36.2l0-46l22.4,0.1l-0.1-75.2h16.2l-0.1,75.3l22.3,0.1l-0.3,45.7
		h35.7v33.7l58.8,49v17.3h28.2v149h80.8v89.8H668v122.4h69.8v-268.4h22.5v-109.2h33.6V1139l28.5,0.3v-11.1h42.2l0.3-64.7l12.8,0.3
		l-0.2,64.4h151.7v13.5l29.2,0.3v318.4l23.3,19.4h61.5v-189.8l85.7-71.4h142.1v55.1h34.3v207.2h41.7v-87.8h95.5v108.2h24.5v-374.5
		h16v-15.1h59.8v-36.7h58.5v36.7h59.8v15.1h17.8v432.7h45.3V830.9h22.3l0-122.8l26.9-0.5l0.7,123.4h157.7l0.3-253.5l26.9,0.5
		l0.3,253h23.4v940.9h36.7V1178h17.5v-21.5h24v21.5h24v-6.3h18.7v6.3h21.3v-6.3h26.7v6.3h29.4v-15.8h20v15.8h9.3v-6.3h18.7v6.3h25
		l1.1,548.4v44.9l5.6-0.1l31.8-0.5v-649.1h84.5v-36.2l38.5-0.1v36.4h28.5v-5.7h28.5v5.7h28.5v-5.7h14.3v5.7h17.4V1733l28.4,0.2
		l52.7,72.2l7.1,9.8v-558.7h15.3v-23.4h15v11.4h10v12h84.8v-7.4h24.9v7.4h19.9v-53.7l10-0.1v53.9h74.8v-10.8h11.6v10.8h8.1v576.8
		h112.8v-844l128.1-24.5l3.9-98c-12.8-5.1-21.6-14.8-21.6-26.1c0-12.1,10-22.4,24.4-27.2l10.6-196.1l11.1-199.6l5.2,199.6l9.1,196.4
		c13.9,4.9,23.7,15,23.7,26.9c0,11.1-8.6,20.8-21.2,25.9l5.3,98.9l117.3,21.6v826.4h87v-492.7l79,0l0.4-53.2l26.7,0.1l0.3-39l48-0.2
		v39.4l19,0.1v52.9l154.8,0l-0.1,32h43.8V1486h14.3l79,58.8V1735h58.4v-15.4h71.4l0.3,15.4h79.9v-51.3h35.5v-39.5h45.3v39.5h14.7
		v154.1h40.4v67.6h39.2l0.4-135.2h42.9v-36.7h84.5v58.2h25.4l-0.4,118.4l73.7,0.3v-20.4h8.6v-20.1h35.4l-0.2-24.4l65.4,0.1
		l-0.1,24.4h38v20.1h54.6v23.5h61.7v-52h47.8v37.8h39.2v-72.4H5000z"/>
	<polygon class="st2" points="5000,2090.6 5000,3890.6 0,3890.6 0,2200.6 0.5,2200.6 0,1959.8 55,1960 55,2014.1 90,2014.1 
		90,1985.6 131,1985.6 131,2024.9 169,2024.9 169,2007 233,2007 233,1973.4 310,1973.4 310,2007 318,2007 318,2022.7 390,2022.7 
		390,2014.1 419,2014.1 419,2001.3 448,2001.3 448,1957.7 522,1957.7 522,1984.9 560,1984.9 560,2019.1 594,2019.1 594,1968.4 
		629,1968.4 629,1853.4 642,1853.4 642,1823.4 682,1823.4 682,1853.4 713,1853.4 713,1891.3 896,1891.3 896,1754.4 965.2,1704.9 
		1004,1704.9 1004,1697 1085,1697 1085,1704.9 1149,1704.9 1149,1695.6 1166,1695.6 1166,1704.9 1191,1704.9 1191,1792 1244,1792 
		1244,1852 1379,1852 1379,1332 1472.7,1331.5 1473,1044.9 1544,1044.9 1544.3,1333.9 1637,1333.5 1637,1917 1736,1917 1736,1533.4 
		1790,1533.4 1790,1512 1923,1512 1923,1533.4 1976,1533.4 1976,1903.3 2025.9,1867.7 2053,1867.7 2053,1354.9 2077,1354.9 
		2077,1346.3 2132,1346.3 2132,1354.9 2186,1354.9 2186,1345.6 2256,1345.6 2256,1355.6 2314.2,1355.6 2315.1,1994.1 2343,1994 
		2343,1214.9 2378,1214.9 2378,1199.9 2489,1199.9 2489,1215.3 2587,1215.1 2587,1198.4 2692,1198.4 2692,1214.9 2727,1214.9 
		2728.1,1897.7 2757,1897.7 2757,1436.3 2804,1436.3 2804,1429.9 2837,1429.9 2837,1392.7 2898.5,1392.9 2898.3,1429.9 2938,1429.9 
		2938,1436.3 2984,1436.3 2984,1757 3005,1757 3005,1635.6 3015,1635.6 3015,1627.1 3065,1627.2 3065,1634.6 3094.6,1634.6 
		3094.2,1832.7 3124,1832.7 3124,1546.3 3155,1546.3 3155,1504.9 3279.4,1504.9 3354,1558.6 3354,1740.6 3408.1,1740.6 3428,1726.1 
		3428,1447.9 3445.8,1447.7 3473.3,1408.5 3491,1408.4 3611,1408.3 3640.8,1445.8 3660,1445.6 3660,1717.7 3689,1717.7 3689,1799.1 
		3709,1799.1 3709,1999.9 3770,1999.9 3770,1908.4 3797,1908.4 3797,1841.3 3868,1841.3 3868,1729.9 3893,1729.9 3893,1716.6 
		3944,1680 3944,1654.9 4060,1654.9 4060,1680.8 4102,1711.3 4102,1729.1 4132,1729.1 4132,2139.1 4154,2139.1 4154,1952.5 
		4178.5,1937.2 4205.2,1889.1 4274.8,1889.1 4312.3,1931.3 4333.7,1931.3 4431,1931.2 4431,2044.9 4466,2044.9 4466,2104.9 
		4501,2104.9 4501,2061.3 4538,2061.3 4538,2034.1 4612,2034.1 4612,2077.7 4641,2077.7 4641,2090.6 4670,2090.6 4670,2099.1 
		4743,2099.1 4743,2083.4 4750,2083.4 4750,2049.1 4827,2049.1 4827,2083.4 4891,2083.4 4891,2101.3 4929,2101.3 4929,2062 
		4971,2062 4971,2090.6 	"/>
	<g>
		<g>
			<g>
				<rect x="47.5" y="2333.9" class="st3" width="43" height="43"/>
			</g>
			<g>
				<rect x="503.8" y="2303.9" class="st3" width="18" height="18"/>
			</g>
			<g>
				<rect x="560.8" y="2303.9" class="st3" width="18" height="18"/>
			</g>
			<g>
				<rect x="475.3" y="2331.6" class="st3" width="18" height="18"/>
			</g>
			<g>
				<rect x="532.3" y="2331.6" class="st3" width="18" height="18"/>
			</g>
			<g>
				<rect x="560.8" y="2331.6" class="st3" width="18" height="18"/>
			</g>
			<g>
				<rect x="475.3" y="2359.2" class="st3" width="18" height="18"/>
			</g>
			<g>
				<rect x="503.8" y="2359.2" class="st3" width="18" height="18"/>
			</g>
			<g>
				<rect x="475.3" y="2386.9" class="st3" width="18" height="18"/>
			</g>
			<g>
				<rect x="560.8" y="2386.9" class="st3" width="18" height="18"/>
			</g>
			<g>
				<rect x="532.3" y="2414.6" class="st3" width="18" height="18"/>
			</g>
			<g>
				<rect x="560.8" y="2414.6" class="st3" width="18" height="18"/>
			</g>
			<g>
				<rect x="475.3" y="2442.2" class="st3" width="18" height="18"/>
			</g>
			<g>
				<rect x="503.8" y="2442.2" class="st3" width="18" height="18"/>
			</g>
			<g>
				<rect x="532.3" y="2442.2" class="st3" width="18" height="18"/>
			</g>
			<g>
				<rect x="503.8" y="2469.9" class="st3" width="18" height="18"/>
			</g>
			<g>
				<rect x="560.8" y="2469.9" class="st3" width="18" height="18"/>
			</g>
			<g>
				<rect x="475.3" y="2497.6" class="st3" width="18" height="18"/>
			</g>
			<g>
				<rect x="503.8" y="2497.6" class="st3" width="18" height="18"/>
			</g>
			<g>
				<rect x="532.3" y="2497.6" class="st3" width="18" height="18"/>
			</g>
			<g>
				<rect x="475.3" y="2525.2" class="st3" width="18" height="18"/>
			</g>
			<g>
				<rect x="503.8" y="2552.9" class="st3" width="18" height="18"/>
			</g>
			<g>
				<rect x="532.3" y="2552.9" class="st3" width="18" height="18"/>
			</g>
			<g>
				<rect x="4566.5" y="2465.7" class="st3" width="18" height="18"/>
			</g>
			<g>
				<rect x="4623.5" y="2465.7" class="st3" width="18" height="18"/>
			</g>
			<g>
				<rect x="4538" y="2493.4" class="st3" width="18" height="18"/>
			</g>
			<g>
				<rect x="4595" y="2493.4" class="st3" width="18" height="18"/>
			</g>
			<g>
				<rect x="4623.5" y="2493.4" class="st3" width="18" height="18"/>
			</g>
			<g>
				<rect x="4538" y="2521.1" class="st3" width="18" height="18"/>
			</g>
			<g>
				<rect x="4566.5" y="2521.1" class="st3" width="18" height="18"/>
			</g>
			<g>
				<rect x="4538" y="2548.7" class="st3" width="18" height="18"/>
			</g>
			<g>
				<rect x="4623.5" y="2548.7" class="st3" width="18" height="18"/>
			</g>
			<g>
				<rect x="4595" y="2576.4" class="st3" width="18" height="18"/>
			</g>
			<g>
				<rect x="4623.5" y="2576.4" class="st3" width="18" height="18"/>
			</g>
			<g>
				<rect x="4538" y="2604.1" class="st3" width="18" height="18"/>
			</g>
			<g>
				<rect x="4566.5" y="2604.1" class="st3" width="18" height="18"/>
			</g>
			<g>
				<rect x="4595" y="2604.1" class="st3" width="18" height="18"/>
			</g>
			<g>
				<rect x="4566.5" y="2631.7" class="st3" width="18" height="18"/>
			</g>
			<g>
				<rect x="4623.5" y="2631.7" class="st3" width="18" height="18"/>
			</g>
			<g>
				<rect x="4538" y="2659.4" class="st3" width="18" height="18"/>
			</g>
			<g>
				<rect x="4566.5" y="2659.4" class="st3" width="18" height="18"/>
			</g>
			<g>
				<rect x="4595" y="2659.4" class="st3" width="18" height="18"/>
			</g>
			<g>
				<rect x="4532.5" y="2443.1" class="st3" width="18" height="18"/>
			</g>
			<g>
				<rect x="4566.5" y="2412.2" class="st3" width="18" height="18"/>
			</g>
			<g>
				<rect x="4595" y="2412.2" class="st3" width="18" height="18"/>
			</g>
			<g>
				<rect x="1881.9" y="1735.5" class="st3" width="32.8" height="32.8"/>
			</g>
			<g>
				<rect x="1778.1" y="1735.5" class="st3" width="32.8" height="32.8"/>
			</g>
			<g>
				<rect x="1933.8" y="1785.9" class="st3" width="32.8" height="32.8"/>
			</g>
			<g>
				<rect x="1830" y="1785.9" class="st3" width="32.8" height="32.8"/>
			</g>
			<g>
				<rect x="1778.1" y="1785.9" class="st3" width="32.8" height="32.8"/>
			</g>
			<g>
				<rect x="1933.8" y="1836.3" class="st3" width="32.8" height="32.8"/>
			</g>
			<g>
				<rect x="1881.9" y="1836.3" class="st3" width="32.8" height="32.8"/>
			</g>
			<g>
				<rect x="1933.8" y="1886.7" class="st3" width="32.8" height="32.8"/>
			</g>
			<g>
				<rect x="1778.1" y="1886.7" class="st3" width="32.8" height="32.8"/>
			</g>
			<g>
				<rect x="1830" y="1937.1" class="st3" width="32.8" height="32.8"/>
			</g>
			<g>
				<rect x="1778.1" y="1937.1" class="st3" width="32.8" height="32.8"/>
			</g>
			<g>
				<rect x="1933.8" y="1987.4" class="st3" width="32.8" height="32.8"/>
			</g>
			<g>
				<rect x="1881.9" y="1987.4" class="st3" width="32.8" height="32.8"/>
			</g>
			<g>
				<rect x="1830" y="1987.4" class="st3" width="32.8" height="32.8"/>
			</g>
			<g>
				<rect x="1881.9" y="2037.8" class="st3" width="32.8" height="32.8"/>
			</g>
			<g>
				<rect x="1778.1" y="2037.8" class="st3" width="32.8" height="32.8"/>
			</g>
			<g>
				<rect x="1933.8" y="2088.2" class="st3" width="32.8" height="32.8"/>
			</g>
			<g>
				<rect x="1881.9" y="2088.2" class="st3" width="32.8" height="32.8"/>
			</g>
			<g>
				<rect x="1830" y="2088.2" class="st3" width="32.8" height="32.8"/>
			</g>
			<g>
				<rect x="1933.8" y="2138.6" class="st3" width="32.8" height="32.8"/>
			</g>
			<g>
				<rect x="1881.9" y="2189" class="st3" width="32.8" height="32.8"/>
			</g>
			<g>
				<rect x="1830" y="2189" class="st3" width="32.8" height="32.8"/>
			</g>
			<g>
				<rect x="4372.6" y="2275.3" class="st3" width="32.8" height="32.8"/>
			</g>
			<g>
				<rect x="4320.7" y="2275.3" class="st3" width="32.8" height="32.8"/>
			</g>
			<g>
				<rect x="4268.8" y="2275.3" class="st3" width="32.8" height="32.8"/>
			</g>
			<g>
				<rect x="4372.6" y="2325.7" class="st3" width="32.8" height="32.8"/>
			</g>
			<g>
				<rect x="4902.2" y="2482.8" class="st3" width="32.8" height="32.8"/>
			</g>
			<g>
				<rect x="4954.1" y="2482.8" class="st3" width="32.8" height="32.8"/>
			</g>
			<g>
				<rect x="4850.3" y="2533.2" class="st3" width="32.8" height="32.8"/>
			</g>
			<g>
				<rect x="4320.7" y="2376.1" class="st3" width="32.8" height="32.8"/>
			</g>
			<g>
				<rect x="4268.8" y="2376.1" class="st3" width="32.8" height="32.8"/>
			</g>
			<g>
				<rect x="123" y="2333.9" class="st3" width="43" height="43"/>
			</g>
			<g>
				<rect x="198.5" y="2333.9" class="st3" width="43" height="43"/>
			</g>
			<g>
				<rect x="274" y="2333.9" class="st3" width="43" height="43"/>
			</g>
			<g>
				<rect x="941.8" y="1971.9" class="st3" width="43" height="43"/>
			</g>
			<g>
				<rect x="1017.3" y="1971.9" class="st3" width="43" height="43"/>
			</g>
			<g>
				<rect x="1092.8" y="1971.9" class="st3" width="43" height="43"/>
			</g>
			<g>
				<rect x="941.8" y="2086.6" class="st3" width="43" height="43"/>
			</g>
			<g>
				<rect x="1017.3" y="2086.6" class="st3" width="43" height="43"/>
			</g>
			<g>
				<rect x="1092.8" y="2086.6" class="st3" width="43" height="43"/>
			</g>
			<g>
				<rect x="941.8" y="2201.2" class="st3" width="43" height="43"/>
			</g>
			<g>
				<rect x="1017.3" y="2201.2" class="st3" width="43" height="43"/>
			</g>
			<g>
				<rect x="1092.8" y="2201.2" class="st3" width="43" height="43"/>
			</g>
			<g>
				<rect x="941.8" y="2315.9" class="st3" width="43" height="43"/>
			</g>
			<g>
				<rect x="1017.3" y="2315.9" class="st3" width="43" height="43"/>
			</g>
			<g>
				<rect x="1092.8" y="2315.9" class="st3" width="43" height="43"/>
			</g>
			<g>
				<rect x="941.8" y="2430.6" class="st3" width="43" height="43"/>
			</g>
			<g>
				<rect x="1017.3" y="2430.6" class="st3" width="43" height="43"/>
			</g>
			<g>
				<rect x="1092.8" y="2430.6" class="st3" width="43" height="43"/>
			</g>
			<g>
				<rect x="941.8" y="2545.2" class="st3" width="43" height="43"/>
			</g>
			<g>
				<rect x="1017.3" y="2545.2" class="st3" width="43" height="43"/>
			</g>
			<g>
				<rect x="1092.8" y="2545.2" class="st3" width="43" height="43"/>
			</g>
			<g>
				<rect x="3459.1" y="1603.7" class="st3" width="43" height="43"/>
			</g>
			<g>
				<rect x="3534.6" y="1603.7" class="st3" width="43" height="43"/>
			</g>
			<g>
				<rect x="3610.1" y="1603.7" class="st3" width="43" height="43"/>
			</g>
			<g>
				<rect x="3534.6" y="1718.4" class="st3" width="43" height="43"/>
			</g>
			<g>
				<rect x="3610.1" y="1718.4" class="st3" width="43" height="43"/>
			</g>
			<g>
				<rect x="3459.1" y="1833" class="st3" width="43" height="43"/>
			</g>
			<g>
				<rect x="3534.6" y="1833" class="st3" width="43" height="43"/>
			</g>
			<g>
				<rect x="3485.1" y="1947.7" class="st3" width="43" height="43"/>
			</g>
			<g>
				<rect x="3610.1" y="1947.7" class="st3" width="43" height="43"/>
			</g>
			<g>
				<rect x="3474.1" y="2062.4" class="st3" width="43" height="43"/>
			</g>
			<g>
				<rect x="3556.1" y="2062.4" class="st3" width="43" height="43"/>
			</g>
			<g>
				<rect x="3039.9" y="1879.3" class="st3" width="43" height="43"/>
			</g>
			<g>
				<rect x="3039.9" y="2013.4" class="st3" width="43" height="43"/>
			</g>
			<g>
				<rect x="3039.9" y="2147.5" class="st3" width="43" height="43"/>
			</g>
			<g>
				<rect x="3039.9" y="2281.6" class="st3" width="43" height="43"/>
			</g>
			<g>
				<rect x="3039.9" y="2415.8" class="st3" width="43" height="43"/>
			</g>
			<g>
				<rect x="3502.1" y="2177" class="st3" width="43" height="43"/>
			</g>
			<g>
				<rect x="3610.1" y="2177" class="st3" width="43" height="43"/>
			</g>
			<g>
				<rect x="2417.3" y="1291.5" class="st3" width="43" height="43"/>
			</g>
			<g>
				<rect x="2492.8" y="1291.5" class="st3" width="43" height="43"/>
			</g>
			<g>
				<rect x="2568.3" y="1291.5" class="st3" width="43" height="43"/>
			</g>
			<g>
				<rect x="2417.3" y="1406.1" class="st3" width="43" height="43"/>
			</g>
			<g>
				<rect x="2568.3" y="1406.1" class="st3" width="43" height="43"/>
			</g>
			<g>
				<rect x="2417.3" y="1520.8" class="st3" width="43" height="43"/>
			</g>
			<g>
				<rect x="2492.8" y="1520.8" class="st3" width="43" height="43"/>
			</g>
			<g>
				<rect x="2568.3" y="1520.8" class="st3" width="43" height="43"/>
			</g>
			<g>
				<rect x="2417.3" y="1635.5" class="st3" width="43" height="43"/>
			</g>
			<g>
				<rect x="2492.8" y="1635.5" class="st3" width="43" height="43"/>
			</g>
			<g>
				<rect x="2568.3" y="1635.5" class="st3" width="43" height="43"/>
			</g>
			<g>
				<rect x="2417.3" y="1750.1" class="st3" width="43" height="43"/>
			</g>
			<g>
				<rect x="2492.8" y="1750.1" class="st3" width="43" height="43"/>
			</g>
			<g>
				<rect x="2417.3" y="1864.8" class="st3" width="43" height="43"/>
			</g>
			<g>
				<rect x="2568.3" y="1864.8" class="st3" width="43" height="43"/>
			</g>
			<g>
				<rect x="2643.8" y="1406.1" class="st3" width="43" height="43"/>
			</g>
			<g>
				<rect x="2643.8" y="1520.8" class="st3" width="43" height="43"/>
			</g>
			<g>
				<rect x="2643.8" y="1635.5" class="st3" width="43" height="43"/>
			</g>
			<g>
				<rect x="2643.8" y="1750.1" class="st3" width="43" height="43"/>
			</g>
			<g>
				<rect x="2643.8" y="1864.8" class="st3" width="43" height="43"/>
			</g>
			<g>
				<rect x="1421.7" y="1442.6" class="st3" width="69.3" height="69.3"/>
			</g>
			<g>
				<rect x="1551.7" y="1562" class="st3" width="69.3" height="69.3"/>
			</g>
			<g>
				<rect x="2794.2" y="1644.8" class="st3" width="33.7" height="33.7"/>
			</g>
			<g>
				<rect x="2837.6" y="1644.8" class="st3" width="33.7" height="33.7"/>
			</g>
			<g>
				<rect x="2880.9" y="1644.8" class="st3" width="33.7" height="33.7"/>
			</g>
			<g>
				<rect x="2924.2" y="1644.8" class="st3" width="33.7" height="33.7"/>
			</g>
			<g>
				<rect x="2794.2" y="1687.5" class="st3" width="33.7" height="33.7"/>
			</g>
			<g>
				<rect x="2837.6" y="1687.5" class="st3" width="33.7" height="33.7"/>
			</g>
			<g>
				<rect x="2880.9" y="1687.5" class="st3" width="33.7" height="33.7"/>
			</g>
			<g>
				<rect x="2924.2" y="1687.5" class="st3" width="33.7" height="33.7"/>
			</g>
			<g>
				<rect x="2794.2" y="1730.1" class="st3" width="33.7" height="33.7"/>
			</g>
			<g>
				<rect x="2837.6" y="1730.1" class="st3" width="33.7" height="33.7"/>
			</g>
			<g>
				<rect x="2880.9" y="1730.1" class="st3" width="33.7" height="33.7"/>
			</g>
			<g>
				<rect x="2924.2" y="1730.1" class="st3" width="33.7" height="33.7"/>
			</g>
			<g>
				<rect x="2794.2" y="1772.8" class="st3" width="33.7" height="33.7"/>
			</g>
			<g>
				<rect x="2837.6" y="1772.8" class="st3" width="33.7" height="33.7"/>
			</g>
			<g>
				<rect x="2880.9" y="1772.8" class="st3" width="33.7" height="33.7"/>
			</g>
			<g>
				<rect x="2924.2" y="1772.8" class="st3" width="33.7" height="33.7"/>
			</g>
			<g>
				<rect x="2794.2" y="1815.5" class="st3" width="33.7" height="33.7"/>
			</g>
			<g>
				<rect x="2837.6" y="1815.5" class="st3" width="33.7" height="33.7"/>
			</g>
			<g>
				<rect x="2880.9" y="1815.5" class="st3" width="33.7" height="33.7"/>
			</g>
			<g>
				<rect x="2924.2" y="1815.5" class="st3" width="33.7" height="33.7"/>
			</g>
			<g>
				<rect x="2794.2" y="1858.1" class="st3" width="33.7" height="33.7"/>
			</g>
			<g>
				<rect x="2837.6" y="1858.1" class="st3" width="33.7" height="33.7"/>
			</g>
			<g>
				<rect x="2880.9" y="1858.1" class="st3" width="33.7" height="33.7"/>
			</g>
			<g>
				<rect x="2924.2" y="1858.1" class="st3" width="33.7" height="33.7"/>
			</g>
			<g>
				<rect x="2794.2" y="1900.8" class="st3" width="33.7" height="33.7"/>
			</g>
			<g>
				<rect x="2837.6" y="1900.8" class="st3" width="33.7" height="33.7"/>
			</g>
			<g>
				<rect x="2880.9" y="1900.8" class="st3" width="33.7" height="33.7"/>
			</g>
			<g>
				<rect x="2924.2" y="1900.8" class="st3" width="33.7" height="33.7"/>
			</g>
			<g>
				<rect x="2794.2" y="1943.5" class="st3" width="33.7" height="33.7"/>
			</g>
			<g>
				<rect x="2837.6" y="1943.5" class="st3" width="33.7" height="33.7"/>
			</g>
			<g>
				<rect x="2880.9" y="1943.5" class="st3" width="33.7" height="33.7"/>
			</g>
			<g>
				<rect x="2924.2" y="1943.5" class="st3" width="33.7" height="33.7"/>
			</g>
			<g>
				<rect x="2794.2" y="1986.1" class="st3" width="33.7" height="33.7"/>
			</g>
			<g>
				<rect x="2837.6" y="1986.1" class="st3" width="33.7" height="33.7"/>
			</g>
			<g>
				<rect x="2880.9" y="1986.1" class="st3" width="33.7" height="33.7"/>
			</g>
			<g>
				<rect x="2924.2" y="1986.1" class="st3" width="33.7" height="33.7"/>
			</g>
			<g>
				<rect x="2794.2" y="2028.8" class="st3" width="33.7" height="33.7"/>
			</g>
			<g>
				<rect x="2837.6" y="2028.8" class="st3" width="33.7" height="33.7"/>
			</g>
			<g>
				<rect x="2880.9" y="2028.8" class="st3" width="33.7" height="33.7"/>
			</g>
			<g>
				<rect x="2924.2" y="2028.8" class="st3" width="33.7" height="33.7"/>
			</g>
			<g>
				<rect x="2097.7" y="1484.4" class="st3" width="201.7" height="19.5"/>
			</g>
			<g>
				<rect x="2097.7" y="1627.4" class="st3" width="201.7" height="19.5"/>
			</g>
			<g>
				<rect x="2097.7" y="1770.4" class="st3" width="201.7" height="19.5"/>
			</g>
			<g>
				<rect x="2097.7" y="1913.4" class="st3" width="201.7" height="19.5"/>
			</g>
			<g>
				<rect x="2097.7" y="2056.4" class="st3" width="201.7" height="19.5"/>
			</g>
			<g>
				<rect x="2097.7" y="1532.7" class="st3" width="88" height="19.5"/>
			</g>
			<g>
				<rect x="2097.7" y="1580.1" class="st3" width="88" height="19.5"/>
			</g>
			<g>
				<rect x="3910.8" y="1990.7" class="st3" width="54.9" height="16.1"/>
			</g>
			<g>
				<rect x="3911.6" y="2108.6" class="st3" width="199.2" height="16.1"/>
			</g>
			<g>
				<rect x="3840.4" y="2151.1" class="st3" width="270.4" height="16.1"/>
			</g>
			<g>
				<rect x="3840.4" y="2193.7" class="st3" width="270.4" height="16.1"/>
			</g>
			<g>
				<rect x="3840.4" y="2236.2" class="st3" width="270.4" height="16.1"/>
			</g>
			<g>
				<rect x="3840.4" y="2278.7" class="st3" width="88.6" height="16.1"/>
			</g>
			<g>
				<rect x="3910.8" y="2030.5" class="st3" width="120.2" height="16.1"/>
			</g>
			<g>
				<rect x="3910.8" y="2069.5" class="st3" width="36.3" height="16.1"/>
			</g>
			<g>
				<rect x="1551.7" y="1695.3" class="st3" width="69.3" height="69.3"/>
			</g>
			<g>
				<rect x="1421.7" y="1872.3" class="st3" width="69.3" height="69.3"/>
			</g>
			<g>
				<rect x="1421.7" y="2078.3" class="st3" width="69.3" height="69.3"/>
			</g>
			<g>
				<rect x="3283.6" y="1730.1" class="st3" width="63.3" height="63.3"/>
			</g>
			<g>
				<rect x="3164.9" y="1839.1" class="st3" width="63.3" height="63.3"/>
			</g>
			<g>
				<rect x="3164.9" y="1960.8" class="st3" width="63.3" height="63.3"/>
			</g>
			<g>
				<rect x="3283.6" y="2122.4" class="st3" width="63.3" height="63.3"/>
			</g>
			<g>
				<rect x="2417.3" y="1957.2" class="st3" width="37.4" height="37.4"/>
			</g>
			<g>
				<rect x="2643.8" y="2044" class="st3" width="43" height="43"/>
			</g>
			<g>
				<rect x="2568.3" y="2044" class="st3" width="43" height="43"/>
			</g>
			<g>
				<rect x="2492.8" y="2044" class="st3" width="43" height="43"/>
			</g>
			<g>
				<rect x="2643.8" y="2158.6" class="st3" width="43" height="43"/>
			</g>
			<g>
				<rect x="2492.8" y="2158.6" class="st3" width="43" height="43"/>
			</g>
			<g>
				<rect x="2643.8" y="2273.3" class="st3" width="43" height="43"/>
			</g>
			<g>
				<rect x="2568.3" y="2273.3" class="st3" width="43" height="43"/>
			</g>
			<g>
				<rect x="2643.8" y="2388" class="st3" width="43" height="43"/>
			</g>
			<g>
				<rect x="2492.8" y="2388" class="st3" width="43" height="43"/>
			</g>
			<g>
				<rect x="2417.3" y="2158.6" class="st3" width="43" height="43"/>
			</g>
			<g>
				<rect x="2417.3" y="2273.3" class="st3" width="43" height="43"/>
			</g>
			<g>
				<rect x="123" y="2432.9" class="st3" width="43" height="43"/>
			</g>
			<g>
				<rect x="198.5" y="2432.9" class="st3" width="43" height="43"/>
			</g>
			<g>
				<rect x="274" y="2432.9" class="st3" width="43" height="43"/>
			</g>
			<g>
				<rect x="47.5" y="2531.9" class="st3" width="43" height="43"/>
			</g>
			<g>
				<rect x="123" y="2531.9" class="st3" width="43" height="43"/>
			</g>
			<g>
				<rect x="274" y="2531.9" class="st3" width="43" height="43"/>
			</g>
			<g>
				<rect x="47.5" y="2630.9" class="st3" width="43" height="43"/>
			</g>
			<g>
				<rect x="198.5" y="2630.9" class="st3" width="43" height="43"/>
			</g>
			<g>
				<rect x="274" y="2630.9" class="st3" width="43" height="43"/>
			</g>
		</g>
	</g>
	<rect y="3890.6" class="st4" width="5000" height="1109.4"/>
	<path class="st5" d="M1217.8,747.9c0,80.7-49.3,150-119.4,179.2c-15.8,9.5-34.2,14.9-53.9,14.9H462.8c-4.8,0-9.6-0.3-14.2-1
		c-42.3-4.2-80.6-22.1-110.5-49.1c0,0,0,0,0,0c-39.3-35.5-64-86.9-64-144.1c0-98,72.5-178.9,166.8-192.2
		C454.9,479.1,522,421,602.7,421c26.9,0,52.3,6.5,74.7,17.9c42.8-52.9,108.2-86.7,181.6-86.7c39.2,0,76.2,9.7,108.6,26.8l0,0
		c0,0,0,0,0,0c58.3,30.7,101.9,85.4,118,150.9c0.1,0.4,0.2,0.9,0.3,1.3c33.4,4,59.4,32,60.4,66.3c19.4,15.8,35.6,35.3,47.7,57.4
		C1209.2,682.5,1217.8,714.2,1217.8,747.9z"/>
	<path class="st6" d="M1217.8,747.9c0,80.7-49.3,150-119.4,179.2c-15.8,9.5-34.2,14.9-53.9,14.9H462.8c-4.8,0-9.6-0.3-14.2-1
		c-42.3-4.2-80.6-22.1-110.5-49.1c2.2,1.2,137.7,72.8,230-59.7c0,0,33.3-37.9,16.9-82.9c0,0,151.7,39.9,160.9-96.7
		c0,0,136.1,125.1,245.1-24.6c0,0,71.9-105.5-23.5-249.1c0,0,0,0,0,0c2.5,1.2,96.3,46.9,118,150.9c8.7,42,5.7,93.4-19.8,155.3
		c0,0-12.3,67.6-129,120.8c0,0,10.7,144.3,182.7,62.4c0,0,136.6-65.5,73.2-212.9l1.3-0.6C1209.2,682.5,1217.8,714.2,1217.8,747.9z"
		/>
	<path class="st5" d="M2850.8,478.1c0,48.3-29.5,89.8-71.5,107.3c-9.4,5.7-20.5,8.9-32.3,8.9h-348.3c-2.9,0-5.7-0.2-8.5-0.6
		c-25.3-2.5-48.3-13.2-66.1-29.4c0,0,0,0,0,0c-23.5-21.3-38.3-52-38.3-86.3c0-58.7,43.4-107.1,99.8-115.1
		c8.4-45.9,48.6-80.6,96.9-80.6c16.1,0,31.3,3.9,44.7,10.7c25.6-31.7,64.8-51.9,108.7-51.9c23.5,0,45.6,5.8,65,16l0,0c0,0,0,0,0,0
		c34.9,18.4,61,51.1,70.6,90.3c0.1,0.3,0.1,0.5,0.2,0.8c20,2.4,35.6,19.2,36.2,39.7c11.6,9.5,21.3,21.1,28.6,34.4
		C2845.7,439,2850.8,457.9,2850.8,478.1z"/>
	<path class="st6" d="M2850.8,478.1c0,48.3-29.5,89.8-71.5,107.3c-9.4,5.7-20.5,8.9-32.3,8.9h-348.3c-2.9,0-5.7-0.2-8.5-0.6
		c-25.3-2.5-48.3-13.2-66.1-29.4c1.3,0.7,82.4,43.6,137.7-35.8c0,0,19.9-22.7,10.1-49.6c0,0,90.8,23.9,96.3-57.9
		c0,0,81.5,74.9,146.8-14.7c0,0,43.1-63.2-14-149.1c0,0,0,0,0,0c1.5,0.7,57.7,28.1,70.6,90.3c5.2,25.1,3.4,55.9-11.8,93
		c0,0-7.4,40.4-77.2,72.3c0,0,6.4,86.4,109.4,37.4c0,0,81.8-39.2,43.8-127.5l0.8-0.3C2845.7,439,2850.8,457.9,2850.8,478.1z"/>
	<path class="st5" d="M4820.9,912.3c0,64.9-39.6,120.5-96,144c-12.7,7.6-27.5,12-43.3,12h-467.4c-3.9,0-7.7-0.3-11.4-0.8
		c-34-3.4-64.8-17.7-88.8-39.4c0,0,0,0,0,0c-31.6-28.5-51.4-69.8-51.4-115.8c0-78.7,58.3-143.7,134-154.4
		c11.3-61.6,65.3-108.2,130.1-108.2c21.6,0,42,5.2,60,14.4c34.4-42.5,87-69.7,145.9-69.7c31.5,0,61.2,7.8,87.3,21.5l0,0c0,0,0,0,0,0
		c46.8,24.7,81.9,68.6,94.8,121.2c0.1,0.4,0.2,0.7,0.3,1.1c26.9,3.3,47.8,25.7,48.5,53.3c15.6,12.7,28.6,28.4,38.3,46.1
		C4814,859.7,4820.9,885.2,4820.9,912.3z"/>
	<path class="st6" d="M4820.9,912.3c0,64.9-39.6,120.5-96,144c-12.7,7.6-27.5,12-43.3,12h-467.4c-3.9,0-7.7-0.3-11.4-0.8
		c-34-3.4-64.8-17.7-88.8-39.4c1.8,1,110.6,58.5,184.8-48c0,0,26.7-30.4,13.6-66.6c0,0,121.9,32.1,129.3-77.7
		c0,0,109.4,100.5,197-19.7c0,0,57.8-84.8-18.8-200.2c0,0,0,0,0,0c2,1,77.4,37.7,94.8,121.2c7,33.7,4.6,75.1-15.9,124.7
		c0,0-9.9,54.3-103.6,97c0,0,8.6,116,146.8,50.2c0,0,109.8-52.6,58.8-171.1l1-0.5C4814,859.7,4820.9,885.2,4820.9,912.3z"/>
</g>
<g id="Layer_2">
	<rect y="3369" class="st7" width="5000" height="1631"/>
	<path class="st8" d="M3404,4560.9H669.7c-32,0-58.1-26.1-58.1-58.1l0,0c0-32,26.1-58.1,58.1-58.1H3404c32,0,58.1,26.1,58.1,58.1
		l0,0C3462.1,4534.8,3436,4560.9,3404,4560.9z"/>
	<path class="st8" d="M1617.7,4619H805.2c-32,0-58.1-26.1-58.1-58.1l0,0c0-32,26.1-58.1,58.1-58.1h812.5c32,0,58.1,26.1,58.1,58.1
		l0,0C1675.8,4592.9,1649.6,4619,1617.7,4619z"/>
	<path class="st8" d="M2563.7,4716.9h-812.5c-32,0-58.1-26.1-58.1-58.1l0,0c0-32,26.1-58.1,58.1-58.1h812.5
		c32,0,58.1,26.1,58.1,58.1l0,0C2621.8,4690.8,2595.7,4716.9,2563.7,4716.9z"/>
	<path class="st8" d="M2996.5,4658.8H1285.1c-32,0-58.1-26.1-58.1-58.1l0,0c0-32,26.1-58.1,58.1-58.1h1711.3
		c32,0,58.1,26.1,58.1,58.1l0,0C3054.6,4632.7,3028.4,4658.8,2996.5,4658.8z"/>
	<path class="st9" d="M4830.4,3117.1H4045c-16.2,0-29.3-13.1-29.3-29.3v-377.6c0-16.2,13.1-29.3,29.3-29.3h785.4
		c16.2,0,29.3,13.1,29.3,29.3v377.6C4859.7,3104,4846.6,3117.1,4830.4,3117.1z"/>
	<g>
		<g>
			<path class="st10" d="M4100.4,3091h-22.9c-11.1,0-20.1-9-20.1-20.1v-339c0-11.1,9-20.1,20.1-20.1h22.9c11.1,0,20.1,9,20.1,20.1
				v339C4120.5,3082.1,4111.5,3091,4100.4,3091z"/>
			<path class="st10" d="M4239.9,3091h-22.9c-11.1,0-20.1-9-20.1-20.1v-339c0-11.1,9-20.1,20.1-20.1h22.9c11.1,0,20.1,9,20.1,20.1
				v339C4260,3082.1,4251,3091,4239.9,3091z"/>
			<path class="st10" d="M4379.4,3091h-22.9c-11.1,0-20.1-9-20.1-20.1v-339c0-11.1,9-20.1,20.1-20.1h22.9c11.1,0,20.1,9,20.1,20.1
				v339C4399.5,3082.1,4390.5,3091,4379.4,3091z"/>
			<path class="st10" d="M4518.9,3091H4496c-11.1,0-20.1-9-20.1-20.1v-339c0-11.1,9-20.1,20.1-20.1h22.9c11.1,0,20.1,9,20.1,20.1
				v339C4539,3082.1,4530,3091,4518.9,3091z"/>
			<path class="st10" d="M4658.4,3091h-22.9c-11.1,0-20.1-9-20.1-20.1v-339c0-11.1,9-20.1,20.1-20.1h22.9c11.1,0,20.1,9,20.1,20.1
				v339C4678.5,3082.1,4669.5,3091,4658.4,3091z"/>
			<path class="st10" d="M4797.9,3091H4775c-11.1,0-20.1-9-20.1-20.1v-339c0-11.1,9-20.1,20.1-20.1h22.9c11.1,0,20.1,9,20.1,20.1
				v339C4818,3082.1,4809,3091,4797.9,3091z"/>
		</g>
	</g>
	<path class="st11" d="M4830.4,2680.9H4045c-16.2,0-29.3-13.1-29.3-29.3V2274c0-16.2,13.1-29.3,29.3-29.3h785.4
		c16.2,0,29.3,13.1,29.3,29.3v377.6C4859.7,2667.8,4846.6,2680.9,4830.4,2680.9z"/>
	<g>
		<g>
			<path class="st12" d="M4100.4,2654.8h-22.9c-11.1,0-20.1-9-20.1-20.1v-339c0-11.1,9-20.1,20.1-20.1h22.9c11.1,0,20.1,9,20.1,20.1
				v339C4120.5,2645.8,4111.5,2654.8,4100.4,2654.8z"/>
			<path class="st12" d="M4239.9,2654.8h-22.9c-11.1,0-20.1-9-20.1-20.1v-339c0-11.1,9-20.1,20.1-20.1h22.9c11.1,0,20.1,9,20.1,20.1
				v339C4260,2645.8,4251,2654.8,4239.9,2654.8z"/>
			<path class="st12" d="M4379.4,2654.8h-22.9c-11.1,0-20.1-9-20.1-20.1v-339c0-11.1,9-20.1,20.1-20.1h22.9c11.1,0,20.1,9,20.1,20.1
				v339C4399.5,2645.8,4390.5,2654.8,4379.4,2654.8z"/>
			<path class="st12" d="M4518.9,2654.8H4496c-11.1,0-20.1-9-20.1-20.1v-339c0-11.1,9-20.1,20.1-20.1h22.9c11.1,0,20.1,9,20.1,20.1
				v339C4539,2645.8,4530,2654.8,4518.9,2654.8z"/>
			<path class="st12" d="M4658.4,2654.8h-22.9c-11.1,0-20.1-9-20.1-20.1v-339c0-11.1,9-20.1,20.1-20.1h22.9c11.1,0,20.1,9,20.1,20.1
				v339C4678.5,2645.8,4669.5,2654.8,4658.4,2654.8z"/>
			<path class="st12" d="M4797.9,2654.8H4775c-11.1,0-20.1-9-20.1-20.1v-339c0-11.1,9-20.1,20.1-20.1h22.9c11.1,0,20.1,9,20.1,20.1
				v339C4818,2645.8,4809,2654.8,4797.9,2654.8z"/>
		</g>
	</g>
	<rect x="3913" y="1242.6" class="st13" width="17.8" height="1667.3"/>
	<rect x="4066" y="1242.6" class="st13" width="17.8" height="1667.3"/>
	<rect x="3925.7" y="1404.7" class="st13" width="145" height="14.4"/>
	<rect x="3925.7" y="1568.5" class="st13" width="145" height="14.4"/>
	<rect x="3925.7" y="1732.3" class="st13" width="145" height="14.4"/>
	<rect x="3925.7" y="1896.1" class="st13" width="145" height="14.4"/>
	<rect x="3925.7" y="2059.9" class="st13" width="145" height="14.4"/>
	<rect x="3925.7" y="2223.6" class="st13" width="145" height="14.4"/>
	<rect x="3925.7" y="2387.4" class="st13" width="145" height="14.4"/>
	<rect x="3925.7" y="2551.2" class="st13" width="145" height="14.4"/>
	<rect x="3925.7" y="2715" class="st13" width="145" height="14.4"/>
	<rect x="3925.7" y="2878.8" class="st13" width="145" height="14.4"/>
	
		<rect x="3991.6" y="1221.7" transform="matrix(0.7427 0.6696 -0.6696 0.7427 1917.2755 -2335.2642)" class="st13" width="11.9" height="211.3"/>
	
		<rect x="3991.6" y="1221.7" transform="matrix(-0.7427 0.6696 -0.6696 -0.7427 7855.2866 -363.5926)" class="st13" width="11.9" height="211.3"/>
	
		<rect x="3991.6" y="1388.7" transform="matrix(0.7427 0.6696 -0.6696 0.7427 2029.1108 -2292.2932)" class="st13" width="11.9" height="211.3"/>
	
		<rect x="3991.6" y="1388.7" transform="matrix(-0.7427 0.6696 -0.6696 -0.7427 7967.1201 -72.5302)" class="st13" width="11.9" height="211.3"/>
	
		<rect x="3991.6" y="1552.5" transform="matrix(0.7427 0.6696 -0.6696 0.7427 2138.7856 -2250.1523)" class="st13" width="11.9" height="211.3"/>
	
		<rect x="3991.6" y="1552.5" transform="matrix(-0.7427 0.6696 -0.6696 -0.7427 8076.793 212.9091)" class="st13" width="11.9" height="211.3"/>
	
		<rect x="3991.6" y="1716.3" transform="matrix(0.7427 0.6696 -0.6696 0.7427 2248.4604 -2208.0115)" class="st13" width="11.9" height="211.3"/>
	
		<rect x="3991.6" y="1716.3" transform="matrix(-0.7427 0.6696 -0.6696 -0.7427 8186.4653 498.3483)" class="st13" width="11.9" height="211.3"/>
	
		<rect x="3991.6" y="1880.1" transform="matrix(0.7427 0.6696 -0.6696 0.7427 2358.1094 -2165.8604)" class="st13" width="11.9" height="211.3"/>
	
		<rect x="3991.6" y="1880.1" transform="matrix(-0.7427 0.6696 -0.6696 -0.7427 8296.1455 783.8148)" class="st13" width="11.9" height="211.3"/>
	
		<rect x="3991.6" y="2043.8" transform="matrix(0.7427 0.6696 -0.6696 0.7427 2467.8638 -2123.749)" class="st13" width="11.9" height="211.3"/>
	
		<rect x="3991.6" y="2043.8" transform="matrix(-0.7427 0.6696 -0.6696 -0.7427 8405.7979 1069.172)" class="st13" width="11.9" height="211.3"/>
	
		<rect x="3991.6" y="2207.6" transform="matrix(0.7427 0.6696 -0.6696 0.7427 2577.4849 -2081.5891)" class="st13" width="11.9" height="211.3"/>
	
		<rect x="3991.6" y="2207.6" transform="matrix(-0.7427 0.6696 -0.6696 -0.7427 8515.4834 1354.6665)" class="st13" width="11.9" height="211.3"/>
	
		<rect x="3991.6" y="2371.4" transform="matrix(0.7427 0.6696 -0.6696 0.7427 2687.1313 -2039.4402)" class="st13" width="11.9" height="211.3"/>
	
		<rect x="3991.6" y="2371.4" transform="matrix(-0.7427 0.6696 -0.6696 -0.7427 8625.1621 1640.1349)" class="st13" width="11.9" height="211.3"/>
	
		<rect x="3991.6" y="2535.2" transform="matrix(0.7427 0.6696 -0.6696 0.7427 2796.8345 -1997.3075)" class="st13" width="11.9" height="211.3"/>
	
		<rect x="3991.6" y="2535.2" transform="matrix(-0.7427 0.6696 -0.6696 -0.7427 8734.8291 1925.5454)" class="st13" width="11.9" height="211.3"/>
	
		<rect x="3991.6" y="2699" transform="matrix(0.7427 0.6696 -0.6696 0.7427 2906.5691 -1955.1804)" class="st13" width="11.9" height="211.3"/>
	
		<rect x="3991.6" y="2699" transform="matrix(-0.7427 0.6696 -0.6696 -0.7427 8844.4951 2210.9241)" class="st13" width="11.9" height="211.3"/>
	
		<rect x="3757.7" y="341.6" transform="matrix(-1.836970e-16 1 -1 -1.836970e-16 4881.0264 -2648.7898)" class="st13" width="14.5" height="1549"/>
	
		<rect x="3661.5" y="606.5" transform="matrix(0.5 0.866 -0.866 0.5 2654.4502 -2703.8318)" class="st13" width="14.5" height="680.8"/>
	
		<rect x="2877.3" y="1050.8" transform="matrix(0.5 0.866 -0.866 0.5 2462.4424 -1909.0811)" class="st13" width="14.5" height="254.3"/>
	
		<rect x="4192.8" y="647.2" transform="matrix(-0.5702 0.8215 -0.8215 -0.5702 7372.2373 -1964.4819)" class="st13" width="14.5" height="598.3"/>
	
		<rect x="3923.3" y="783.2" transform="matrix(-0.9908 -0.1351 0.1351 -0.9908 7691.2935 2423.3574)" class="st13" width="9.3" height="334.9"/>
	
		<rect x="3985.9" y="783.2" transform="matrix(0.9908 -0.1351 0.1351 0.9908 -91.8602 547.9752)" class="st13" width="9.3" height="334.9"/>
	
		<rect x="3630.4" y="373.5" transform="matrix(-1.836970e-16 1 -1 -1.836970e-16 4878.666 -2396.6553)" class="st13" width="14.5" height="1734.9"/>
	
		<rect x="4274.1" y="1172.5" transform="matrix(-1.836970e-16 1 -1 -1.836970e-16 5511.6294 -3154.8516)" class="st13" width="118.3" height="11.7"/>
	
		<rect x="4140.4" y="1172.5" transform="matrix(-1.836970e-16 1 -1 -1.836970e-16 5377.9331 -3021.155)" class="st13" width="118.3" height="11.7"/>
	
		<rect x="4006.7" y="1172.5" transform="matrix(-1.836970e-16 1 -1 -1.836970e-16 5244.2363 -2887.4585)" class="st13" width="118.3" height="11.7"/>
	
		<rect x="3873" y="1172.5" transform="matrix(-1.836970e-16 1 -1 -1.836970e-16 5110.54 -2753.762)" class="st13" width="118.3" height="11.7"/>
	
		<rect x="3739.3" y="1172.5" transform="matrix(-1.836970e-16 1 -1 -1.836970e-16 4976.8433 -2620.0654)" class="st13" width="118.3" height="11.7"/>
	
		<rect x="3911.4" y="1066.3" transform="matrix(-1 -1.224647e-16 1.224647e-16 -1 7918.5405 2144.3176)" class="st13" width="95.7" height="11.7"/>
	
		<rect x="3917" y="1007" transform="matrix(-1 -1.224647e-16 1.224647e-16 -1 7918.5405 2025.6859)" class="st13" width="84.4" height="11.7"/>
	
		<rect x="3928.9" y="947.7" transform="matrix(-1 -1.224647e-16 1.224647e-16 -1 7918.5405 1907.0541)" class="st13" width="60.7" height="11.7"/>
	
		<rect x="3933.3" y="888.3" transform="matrix(-1 -1.224647e-16 1.224647e-16 -1 7918.5405 1788.4222)" class="st13" width="51.9" height="11.7"/>
	
		<rect x="3942.2" y="829" transform="matrix(-1 -1.224647e-16 1.224647e-16 -1 7918.5405 1669.7903)" class="st13" width="34.1" height="11.7"/>
	
		<rect x="3605.6" y="1172.5" transform="matrix(-1.836970e-16 1 -1 -1.836970e-16 4843.147 -2486.3689)" class="st13" width="118.3" height="11.7"/>
	
		<rect x="3471.9" y="1172.5" transform="matrix(-1.836970e-16 1 -1 -1.836970e-16 4709.4507 -2352.6724)" class="st13" width="118.3" height="11.7"/>
	
		<rect x="3338.2" y="1172.5" transform="matrix(-1.836970e-16 1 -1 -1.836970e-16 4575.7539 -2218.9761)" class="st13" width="118.3" height="11.7"/>
	
		<rect x="3204.5" y="1172.5" transform="matrix(-1.836970e-16 1 -1 -1.836970e-16 4442.0576 -2085.2795)" class="st13" width="118.3" height="11.7"/>
	
		<rect x="3070.8" y="1172.5" transform="matrix(-1.836970e-16 1 -1 -1.836970e-16 4308.3613 -1951.583)" class="st13" width="118.3" height="11.7"/>
	
		<rect x="4397.5" y="1091.6" transform="matrix(-0.6696 0.7427 -0.7427 -0.6696 8224.8701 -1303.1851)" class="st13" width="9.7" height="172.4"/>
	
		<rect x="4397.5" y="1091.6" transform="matrix(-0.6696 -0.7427 0.7427 -0.6696 6475.3228 5236.1226)" class="st13" width="9.7" height="172.4"/>
	
		<rect x="4261.1" y="1091.6" transform="matrix(-0.6696 0.7427 -0.7427 -0.6696 7997.2524 -1201.9304)" class="st13" width="9.7" height="172.4"/>
	
		<rect x="4261.1" y="1091.6" transform="matrix(-0.6696 -0.7427 0.7427 -0.6696 6247.7051 5134.8677)" class="st13" width="9.7" height="172.4"/>
	
		<rect x="4127.4" y="1091.6" transform="matrix(-0.6696 0.7427 -0.7427 -0.6696 7774.0142 -1102.6598)" class="st13" width="9.7" height="172.4"/>
	
		<rect x="4127.4" y="1091.6" transform="matrix(-0.6696 -0.7427 0.7427 -0.6696 6024.4546 5035.5835)" class="st13" width="9.7" height="172.4"/>
	
		<rect x="3993.7" y="1091.6" transform="matrix(-0.6696 0.7427 -0.7427 -0.6696 7550.7944 -1003.3605)" class="st13" width="9.7" height="172.4"/>
	
		<rect x="3993.7" y="1091.6" transform="matrix(-0.6696 -0.7427 0.7427 -0.6696 5801.2349 4936.2847)" class="st13" width="9.7" height="172.4"/>
	
		<rect x="3860" y="1091.6" transform="matrix(-0.6696 0.7427 -0.7427 -0.6696 7327.623 -903.9816)" class="st13" width="9.7" height="172.4"/>
	
		<rect x="3860" y="1091.6" transform="matrix(-0.6696 -0.7427 0.7427 -0.6696 5578.0996 4836.9458)" class="st13" width="9.7" height="172.4"/>
	
		<rect x="3726.3" y="1091.6" transform="matrix(-0.6696 0.7427 -0.7427 -0.6696 7104.3555 -804.7622)" class="st13" width="9.7" height="172.4"/>
	
		<rect x="3726.3" y="1091.6" transform="matrix(-0.6696 -0.7427 0.7427 -0.6696 5354.7959 4737.686)" class="st13" width="9.7" height="172.4"/>
	
		<rect x="3592.6" y="1091.6" transform="matrix(-0.6696 0.7427 -0.7427 -0.6696 6881.1499 -705.4377)" class="st13" width="9.7" height="172.4"/>
	
		<rect x="3592.6" y="1091.6" transform="matrix(-0.6696 -0.7427 0.7427 -0.6696 5131.6025 4638.375)" class="st13" width="9.7" height="172.4"/>
	
		<rect x="3458.9" y="1091.6" transform="matrix(-0.6696 0.7427 -0.7427 -0.6696 6657.9155 -606.1637)" class="st13" width="9.7" height="172.4"/>
	
		<rect x="3458.9" y="1091.6" transform="matrix(-0.6696 -0.7427 0.7427 -0.6696 4908.356 4539.0874)" class="st13" width="9.7" height="172.4"/>
	
		<rect x="3325.3" y="1091.6" transform="matrix(-0.6696 0.7427 -0.7427 -0.6696 6434.6958 -506.8645)" class="st13" width="9.7" height="172.4"/>
	
		<rect x="3325.3" y="1091.6" transform="matrix(-0.6696 -0.7427 0.7427 -0.6696 4685.1362 4439.7886)" class="st13" width="9.7" height="172.4"/>
	
		<rect x="3191.6" y="1091.6" transform="matrix(-0.6696 0.7427 -0.7427 -0.6696 6211.4761 -407.5652)" class="st13" width="9.7" height="172.4"/>
	
		<rect x="3191.6" y="1091.6" transform="matrix(-0.6696 -0.7427 0.7427 -0.6696 4461.9165 4340.4893)" class="st13" width="9.7" height="172.4"/>
	
		<rect x="2937.1" y="1172.5" transform="matrix(-1.836970e-16 1 -1 -1.836970e-16 4174.6646 -1817.8865)" class="st13" width="118.3" height="11.7"/>
	
		<rect x="3057.9" y="1091.6" transform="matrix(-0.6696 0.7427 -0.7427 -0.6696 5988.2676 -308.2435)" class="st13" width="9.7" height="172.4"/>
	
		<rect x="3057.9" y="1091.6" transform="matrix(-0.6696 -0.7427 0.7427 -0.6696 4238.7202 4241.1807)" class="st13" width="9.7" height="172.4"/>
	
		<rect x="3393.2" y="1235.7" transform="matrix(0.9977 6.718811e-02 -6.718811e-02 0.9977 116.4661 -224.6037)" class="st13" width="8.3" height="766.8"/>
	
		<rect x="3314.4" y="1235.7" transform="matrix(-0.9977 6.718811e-02 -6.718811e-02 -0.9977 6738.3159 3011.7224)" class="st13" width="8.3" height="766.8"/>
	<path class="st14" d="M3417.6,2187.2c-6.5,16.5-20.3,24.2-36.8,27.8c-18.1,3.9-34.6,0.2-48.5-12.5c-13.1-12-20.7-27.3-25-44.3
		c-0.1-0.3-0.1-0.5-0.1-0.8c-0.1-2.9,3-5,5.7-3.8c0.3,0.1,0.6,0.3,0.8,0.5c5.1,4.7,9.9,9.7,14.6,14.7c6.9,7.3,14,13.9,24.8,14.9
		c15.1,1.4,26.4-8.3,26.6-23.5c0.1-5.7-2.2-10.2-6.6-13.6c-5.3-4.1-10.9-7.8-16.2-11.9c-12.1-9.5-15.8-22.9-8.9-34.5
		c1.4-2.4,3.6-3.9,4.5-4.5c3.5-2.2,14.6-4.3,17,5.4c0.1,0.2,0.1,0.5,0.2,0.7c1.4,7.4,6.1,10.9,12.5,14.3c11.8,6.2,23.8,12.5,32,23.8
		c4.8,6.6,7.3,13.8,7.3,18.6C3422,2170.2,3420.6,2179.6,3417.6,2187.2z"/>
	<polygon class="st15" points="3356.8,1996.6 3394.4,1996.6 3394.4,2032.2 3375.7,2101.5 3356.8,2101.5 3337.9,2101.5 
		3319.1,2032.2 3319.1,1996.6 	"/>
	<rect x="4431.5" y="1120.1" class="st15" width="89.5" height="221.1"/>
	<rect x="4479.7" y="1052.4" class="st15" width="82.5" height="134.6"/>
	<rect x="3799.9" y="2909.9" class="st14" width="410.5" height="111.7"/>
	<rect x="3572.7" y="3016.4" class="st15" width="865.1" height="100.7"/>
	<rect x="3248.4" y="1178.4" class="st15" width="218.2" height="55.4"/>
	<rect y="3117.1" class="st16" width="5000" height="251.9"/>
	<path class="st9" d="M1091.7,3117.1H306.3c-16.2,0-29.3-13.1-29.3-29.3v-377.6c0-16.2,13.1-29.3,29.3-29.3h785.4
		c16.2,0,29.3,13.1,29.3,29.3v377.6C1121,3104,1107.9,3117.1,1091.7,3117.1z"/>
	<g>
		<g>
			<path class="st10" d="M361.7,3091h-22.9c-11.1,0-20.1-9-20.1-20.1v-339c0-11.1,9-20.1,20.1-20.1h22.9c11.1,0,20.1,9,20.1,20.1
				v339C381.7,3082.1,372.8,3091,361.7,3091z"/>
			<path class="st10" d="M501.2,3091h-22.9c-11.1,0-20.1-9-20.1-20.1v-339c0-11.1,9-20.1,20.1-20.1h22.9c11.1,0,20.1,9,20.1,20.1
				v339C521.2,3082.1,512.3,3091,501.2,3091z"/>
			<path class="st10" d="M640.7,3091h-22.9c-11.1,0-20.1-9-20.1-20.1v-339c0-11.1,9-20.1,20.1-20.1h22.9c11.1,0,20.1,9,20.1,20.1
				v339C660.7,3082.1,651.7,3091,640.7,3091z"/>
			<path class="st10" d="M780.2,3091h-22.9c-11.1,0-20.1-9-20.1-20.1v-339c0-11.1,9-20.1,20.1-20.1h22.9c11.1,0,20.1,9,20.1,20.1
				v339C800.2,3082.1,791.2,3091,780.2,3091z"/>
			<path class="st10" d="M919.6,3091h-22.9c-11.1,0-20.1-9-20.1-20.1v-339c0-11.1,9-20.1,20.1-20.1h22.9c11.1,0,20.1,9,20.1,20.1
				v339C939.7,3082.1,930.7,3091,919.6,3091z"/>
			<path class="st10" d="M1059.1,3091h-22.9c-11.1,0-20.1-9-20.1-20.1v-339c0-11.1,9-20.1,20.1-20.1h22.9c11.1,0,20.1,9,20.1,20.1
				v339C1079.2,3082.1,1070.2,3091,1059.1,3091z"/>
		</g>
	</g>
	<path class="st9" d="M2922.7,3117.1h-785.4c-16.2,0-29.3-13.1-29.3-29.3v-377.6c0-16.2,13.1-29.3,29.3-29.3h785.4
		c16.2,0,29.3,13.1,29.3,29.3v377.6C2952,3104,2938.9,3117.1,2922.7,3117.1z"/>
	<g>
		<g>
			<path class="st10" d="M2192.7,3091h-22.9c-11.1,0-20.1-9-20.1-20.1v-339c0-11.1,9-20.1,20.1-20.1h22.9c11.1,0,20.1,9,20.1,20.1
				v339C2212.8,3082.1,2203.8,3091,2192.7,3091z"/>
			<path class="st10" d="M2332.2,3091h-22.9c-11.1,0-20.1-9-20.1-20.1v-339c0-11.1,9-20.1,20.1-20.1h22.9c11.1,0,20.1,9,20.1,20.1
				v339C2352.3,3082.1,2343.3,3091,2332.2,3091z"/>
			<path class="st10" d="M2471.7,3091h-22.9c-11.1,0-20.1-9-20.1-20.1v-339c0-11.1,9-20.1,20.1-20.1h22.9c11.1,0,20.1,9,20.1,20.1
				v339C2491.8,3082.1,2482.8,3091,2471.7,3091z"/>
			<path class="st10" d="M2611.2,3091h-22.9c-11.1,0-20.1-9-20.1-20.1v-339c0-11.1,9-20.1,20.1-20.1h22.9c11.1,0,20.1,9,20.1,20.1
				v339C2631.3,3082.1,2622.3,3091,2611.2,3091z"/>
			<path class="st10" d="M2750.7,3091h-22.9c-11.1,0-20.1-9-20.1-20.1v-339c0-11.1,9-20.1,20.1-20.1h22.9c11.1,0,20.1,9,20.1,20.1
				v339C2770.8,3082.1,2761.8,3091,2750.7,3091z"/>
			<path class="st10" d="M2890.2,3091h-22.9c-11.1,0-20.1-9-20.1-20.1v-339c0-11.1,9-20.1,20.1-20.1h22.9c11.1,0,20.1,9,20.1,20.1
				v339C2910.3,3082.1,2901.3,3091,2890.2,3091z"/>
		</g>
	</g>
	<path class="st14" d="M2047.7,3117.1h-785.4c-16.2,0-29.3-13.1-29.3-29.3v-377.6c0-16.2,13.1-29.3,29.3-29.3h785.4
		c16.2,0,29.3,13.1,29.3,29.3v377.6C2077,3104,2063.9,3117.1,2047.7,3117.1z"/>
	<g>
		<g>
			<path class="st17" d="M1317.7,3091h-22.9c-11.1,0-20.1-9-20.1-20.1v-339c0-11.1,9-20.1,20.1-20.1h22.9c11.1,0,20.1,9,20.1,20.1
				v339C1337.7,3082.1,1328.8,3091,1317.7,3091z"/>
			<path class="st17" d="M1457.2,3091h-22.9c-11.1,0-20.1-9-20.1-20.1v-339c0-11.1,9-20.1,20.1-20.1h22.9c11.1,0,20.1,9,20.1,20.1
				v339C1477.2,3082.1,1468.3,3091,1457.2,3091z"/>
			<path class="st17" d="M1596.7,3091h-22.9c-11.1,0-20.1-9-20.1-20.1v-339c0-11.1,9-20.1,20.1-20.1h22.9c11.1,0,20.1,9,20.1,20.1
				v339C1616.7,3082.1,1607.7,3091,1596.7,3091z"/>
			<path class="st17" d="M1736.2,3091h-22.9c-11.1,0-20.1-9-20.1-20.1v-339c0-11.1,9-20.1,20.1-20.1h22.9c11.1,0,20.1,9,20.1,20.1
				v339C1756.2,3082.1,1747.2,3091,1736.2,3091z"/>
			<path class="st17" d="M1875.6,3091h-22.9c-11.1,0-20.1-9-20.1-20.1v-339c0-11.1,9-20.1,20.1-20.1h22.9c11.1,0,20.1,9,20.1,20.1
				v339C1895.7,3082.1,1886.7,3091,1875.6,3091z"/>
			<path class="st17" d="M2015.1,3091h-22.9c-11.1,0-20.1-9-20.1-20.1v-339c0-11.1,9-20.1,20.1-20.1h22.9c11.1,0,20.1,9,20.1,20.1
				v339C2035.2,3082.1,2026.2,3091,2015.1,3091z"/>
		</g>
	</g>
	<path class="st2" d="M3749.5,2590.3h-785.4c-16.2,0-29.3-13.1-29.3-29.3v-377.6c0-16.2,13.1-29.3,29.3-29.3h785.4
		c16.2,0,29.3,13.1,29.3,29.3V2561C3778.8,2577.2,3765.7,2590.3,3749.5,2590.3z"/>
	<g>
		<g>
			<path class="st18" d="M3019.5,2564.2h-22.9c-11.1,0-20.1-9-20.1-20.1v-339c0-11.1,9-20.1,20.1-20.1h22.9c11.1,0,20.1,9,20.1,20.1
				v339C3039.6,2555.2,3030.6,2564.2,3019.5,2564.2z"/>
			<path class="st18" d="M3159,2564.2h-22.9c-11.1,0-20.1-9-20.1-20.1v-339c0-11.1,9-20.1,20.1-20.1h22.9c11.1,0,20.1,9,20.1,20.1
				v339C3179.1,2555.2,3170.1,2564.2,3159,2564.2z"/>
			<path class="st18" d="M3298.5,2564.2h-22.9c-11.1,0-20.1-9-20.1-20.1v-339c0-11.1,9-20.1,20.1-20.1h22.9c11.1,0,20.1,9,20.1,20.1
				v339C3318.5,2555.2,3309.6,2564.2,3298.5,2564.2z"/>
			<path class="st18" d="M3438,2564.2h-22.9c-11.1,0-20.1-9-20.1-20.1v-339c0-11.1,9-20.1,20.1-20.1h22.9c11.1,0,20.1,9,20.1,20.1
				v339C3458,2555.2,3449.1,2564.2,3438,2564.2z"/>
			<path class="st18" d="M3577.5,2564.2h-22.9c-11.1,0-20.1-9-20.1-20.1v-339c0-11.1,9-20.1,20.1-20.1h22.9c11.1,0,20.1,9,20.1,20.1
				v339C3597.5,2555.2,3588.5,2564.2,3577.5,2564.2z"/>
			<path class="st18" d="M3717,2564.2h-22.9c-11.1,0-20.1-9-20.1-20.1v-339c0-11.1,9-20.1,20.1-20.1h22.9c11.1,0,20.1,9,20.1,20.1
				v339C3737,2555.2,3728,2564.2,3717,2564.2z"/>
		</g>
	</g>
	<path class="st2" d="M2020.2,2680.9h-413.5c-11.9,0-21.6-9.7-21.6-21.6v-393.1c0-11.9,9.7-21.6,21.6-21.6h413.5
		c11.9,0,21.6,9.7,21.6,21.6v393.1C2041.8,2671.3,2032.1,2680.9,2020.2,2680.9z"/>
	<path class="st18" d="M1624,2429.8v-22.9c0-11.1,9-20.1,20.1-20.1h339c11.1,0,20.1,9,20.1,20.1v22.9c0,11.1-9,20.1-20.1,20.1h-339
		C1632.9,2449.9,1624,2440.9,1624,2429.8z"/>
	<path class="st18" d="M1624,2331v-22.9c0-11.1,9-20.1,20.1-20.1h339c11.1,0,20.1,9,20.1,20.1v22.9c0,11.1-9,20.1-20.1,20.1h-339
		C1632.9,2351.1,1624,2342.1,1624,2331z"/>
	<path class="st18" d="M1624,2528.6v-22.9c0-11.1,9-20.1,20.1-20.1h339c11.1,0,20.1,9,20.1,20.1v22.9c0,11.1-9,20.1-20.1,20.1h-339
		C1632.9,2548.6,1624,2539.6,1624,2528.6z"/>
	<path class="st18" d="M1624,2627.3v-22.9c0-11.1,9-20.1,20.1-20.1h339c11.1,0,20.1,9,20.1,20.1v22.9c0,11.1-9,20.1-20.1,20.1h-339
		C1632.9,2647.4,1624,2638.4,1624,2627.3z"/>
	<path class="st11" d="M2020.2,2244.2h-413.5c-11.9,0-21.6-9.7-21.6-21.6v-393.1c0-11.9,9.7-21.6,21.6-21.6h413.5
		c11.9,0,21.6,9.7,21.6,21.6v393.1C2041.8,2234.6,2032.1,2244.2,2020.2,2244.2z"/>
	<path class="st12" d="M1624,1993.1v-22.9c0-11.1,9-20.1,20.1-20.1h339c11.1,0,20.1,9,20.1,20.1v22.9c0,11.1-9,20.1-20.1,20.1h-339
		C1632.9,2013.2,1624,2004.2,1624,1993.1z"/>
	<path class="st12" d="M1624,1894.4v-22.9c0-11.1,9-20.1,20.1-20.1h339c11.1,0,20.1,9,20.1,20.1v22.9c0,11.1-9,20.1-20.1,20.1h-339
		C1632.9,1914.4,1624,1905.4,1624,1894.4z"/>
	<path class="st12" d="M1624,2091.9V2069c0-11.1,9-20.1,20.1-20.1h339c11.1,0,20.1,9,20.1,20.1v22.9c0,11.1-9,20.1-20.1,20.1h-339
		C1632.9,2112,1624,2103,1624,2091.9z"/>
	<path class="st12" d="M1624,2190.7v-22.9c0-11.1,9-20.1,20.1-20.1h339c11.1,0,20.1,9,20.1,20.1v22.9c0,11.1-9,20.1-20.1,20.1h-339
		C1632.9,2210.7,1624,2201.8,1624,2190.7z"/>
	<path class="st14" d="M2499,4334.7h-343.2c-9.9,0-17.9-8-17.9-17.9v-326.3c0-9.9,8-17.9,17.9-17.9H2499c9.9,0,17.9,8,17.9,17.9
		v326.3C2516.9,4326.7,2508.9,4334.7,2499,4334.7z"/>
	<path class="st17" d="M2170.1,4126.3v-19c0-9.2,7.5-16.6,16.6-16.6h281.3c9.2,0,16.6,7.5,16.6,16.6v19c0,9.2-7.5,16.6-16.6,16.6
		h-281.3C2177.6,4142.9,2170.1,4135.5,2170.1,4126.3z"/>
	<path class="st17" d="M2170.1,4044.3v-19c0-9.2,7.5-16.6,16.6-16.6h281.3c9.2,0,16.6,7.5,16.6,16.6v19c0,9.2-7.5,16.6-16.6,16.6
		h-281.3C2177.6,4061,2170.1,4053.5,2170.1,4044.3z"/>
	<path class="st17" d="M2170.1,4208.3v-19c0-9.2,7.5-16.6,16.6-16.6h281.3c9.2,0,16.6,7.5,16.6,16.6v19c0,9.2-7.5,16.6-16.6,16.6
		h-281.3C2177.6,4224.9,2170.1,4217.5,2170.1,4208.3z"/>
	<path class="st17" d="M2170.1,4290.2v-19c0-9.2,7.5-16.6,16.6-16.6h281.3c9.2,0,16.6,7.5,16.6,16.6v19c0,9.2-7.5,16.6-16.6,16.6
		h-281.3C2177.6,4306.9,2170.1,4299.4,2170.1,4290.2z"/>
	<path class="st11" d="M1091.7,2680.9H306.3c-16.2,0-29.3-13.1-29.3-29.3V2274c0-16.2,13.1-29.3,29.3-29.3h785.4
		c16.2,0,29.3,13.1,29.3,29.3v377.6C1121,2667.8,1107.9,2680.9,1091.7,2680.9z"/>
	<g>
		<g>
			<path class="st12" d="M361.7,2654.8h-22.9c-11.1,0-20.1-9-20.1-20.1v-339c0-11.1,9-20.1,20.1-20.1h22.9c11.1,0,20.1,9,20.1,20.1
				v339C381.7,2645.8,372.8,2654.8,361.7,2654.8z"/>
			<path class="st12" d="M501.2,2654.8h-22.9c-11.1,0-20.1-9-20.1-20.1v-339c0-11.1,9-20.1,20.1-20.1h22.9c11.1,0,20.1,9,20.1,20.1
				v339C521.2,2645.8,512.3,2654.8,501.2,2654.8z"/>
			<path class="st12" d="M640.7,2654.8h-22.9c-11.1,0-20.1-9-20.1-20.1v-339c0-11.1,9-20.1,20.1-20.1h22.9c11.1,0,20.1,9,20.1,20.1
				v339C660.7,2645.8,651.7,2654.8,640.7,2654.8z"/>
			<path class="st12" d="M780.2,2654.8h-22.9c-11.1,0-20.1-9-20.1-20.1v-339c0-11.1,9-20.1,20.1-20.1h22.9c11.1,0,20.1,9,20.1,20.1
				v339C800.2,2645.8,791.2,2654.8,780.2,2654.8z"/>
			<path class="st12" d="M919.6,2654.8h-22.9c-11.1,0-20.1-9-20.1-20.1v-339c0-11.1,9-20.1,20.1-20.1h22.9c11.1,0,20.1,9,20.1,20.1
				v339C939.7,2645.8,930.7,2654.8,919.6,2654.8z"/>
			<path class="st12" d="M1059.1,2654.8h-22.9c-11.1,0-20.1-9-20.1-20.1v-339c0-11.1,9-20.1,20.1-20.1h22.9c11.1,0,20.1,9,20.1,20.1
				v339C1079.2,2645.8,1070.2,2654.8,1059.1,2654.8z"/>
		</g>
	</g>
	<g>
		<path class="st19" d="M1872.4,2237L1872.4,2237c-5.3,0-9.7-4.4-9.7-9.7v-399c0-5.3,4.4-9.7,9.7-9.7l0,0c5.3,0,9.7,4.3,9.7,9.7v399
			C1882.1,2232.6,1877.8,2237,1872.4,2237z"/>
		<path class="st19" d="M1966.7,2237L1966.7,2237c-5.3,0-9.7-4.4-9.7-9.7v-399c0-5.3,4.3-9.7,9.7-9.7l0,0c5.3,0,9.7,4.3,9.7,9.7v399
			C1976.4,2232.6,1972,2237,1966.7,2237z"/>
		<path class="st19" d="M1869.4,1850.8v-9.7c0-2.6,2.2-4.8,4.8-4.8h94.1c2.6,0,4.8,2.2,4.8,4.8v9.7c0,2.6-2.2,4.8-4.8,4.8h-94.1
			C1871.6,1855.6,1869.4,1853.4,1869.4,1850.8z"/>
		<path class="st19" d="M1869.4,1919.3v-9.7c0-2.6,2.2-4.8,4.8-4.8h94.1c2.6,0,4.8,2.2,4.8,4.8v9.7c0,2.6-2.2,4.8-4.8,4.8h-94.1
			C1871.6,1924.1,1869.4,1921.9,1869.4,1919.3z"/>
		<path class="st19" d="M1869.4,1987.8v-9.7c0-2.6,2.2-4.8,4.8-4.8h94.1c2.6,0,4.8,2.2,4.8,4.8v9.7c0,2.6-2.2,4.8-4.8,4.8h-94.1
			C1871.6,1992.6,1869.4,1990.4,1869.4,1987.8z"/>
		<path class="st19" d="M1869.4,2056.2v-9.7c0-2.6,2.2-4.8,4.8-4.8h94.1c2.6,0,4.8,2.2,4.8,4.8v9.7c0,2.6-2.2,4.8-4.8,4.8h-94.1
			C1871.6,2061,1869.4,2058.9,1869.4,2056.2z"/>
		<path class="st19" d="M1869.4,2124.7v-9.7c0-2.6,2.2-4.8,4.8-4.8h94.1c2.6,0,4.8,2.2,4.8,4.8v9.7c0,2.6-2.2,4.8-4.8,4.8h-94.1
			C1871.6,2129.5,1869.4,2127.4,1869.4,2124.7z"/>
		<path class="st19" d="M1869.4,2193.2v-9.7c0-2.6,2.2-4.8,4.8-4.8h94.1c2.6,0,4.8,2.2,4.8,4.8v9.7c0,2.6-2.2,4.8-4.8,4.8h-94.1
			C1871.6,2198,1869.4,2195.8,1869.4,2193.2z"/>
	</g>
	<g>
		<path class="st19" d="M4670.7,3118.1L4670.7,3118.1c-5.3,0-9.7-4.3-9.7-9.7v-399c0-5.3,4.4-9.7,9.7-9.7l0,0c5.3,0,9.7,4.4,9.7,9.7
			v399C4680.4,3113.7,4676,3118.1,4670.7,3118.1z"/>
		<path class="st19" d="M4765,3118.1L4765,3118.1c-5.3,0-9.7-4.3-9.7-9.7v-399c0-5.3,4.4-9.7,9.7-9.7l0,0c5.3,0,9.7,4.4,9.7,9.7v399
			C4774.6,3113.7,4770.3,3118.1,4765,3118.1z"/>
		<path class="st19" d="M4667.7,2731.9v-9.7c0-2.6,2.2-4.8,4.8-4.8h94.1c2.6,0,4.8,2.2,4.8,4.8v9.7c0,2.6-2.2,4.8-4.8,4.8h-94.1
			C4669.9,2736.7,4667.7,2734.5,4667.7,2731.9z"/>
		<path class="st19" d="M4667.7,2800.3v-9.7c0-2.6,2.2-4.8,4.8-4.8h94.1c2.6,0,4.8,2.2,4.8,4.8v9.7c0,2.6-2.2,4.8-4.8,4.8h-94.1
			C4669.9,2805.1,4667.7,2803,4667.7,2800.3z"/>
		<path class="st19" d="M4667.7,2868.8v-9.7c0-2.6,2.2-4.8,4.8-4.8h94.1c2.6,0,4.8,2.2,4.8,4.8v9.7c0,2.6-2.2,4.8-4.8,4.8h-94.1
			C4669.9,2873.6,4667.7,2871.5,4667.7,2868.8z"/>
		<path class="st19" d="M4667.7,2937.3v-9.7c0-2.6,2.2-4.8,4.8-4.8h94.1c2.6,0,4.8,2.2,4.8,4.8v9.7c0,2.6-2.2,4.8-4.8,4.8h-94.1
			C4669.9,2942.1,4667.7,2939.9,4667.7,2937.3z"/>
		<path class="st19" d="M4667.7,3005.8v-9.7c0-2.6,2.2-4.8,4.8-4.8h94.1c2.6,0,4.8,2.2,4.8,4.8v9.7c0,2.6-2.2,4.8-4.8,4.8h-94.1
			C4669.9,3010.6,4667.7,3008.4,4667.7,3005.8z"/>
		<path class="st19" d="M4667.7,3074.3v-9.7c0-2.6,2.2-4.8,4.8-4.8h94.1c2.6,0,4.8,2.2,4.8,4.8v9.7c0,2.6-2.2,4.8-4.8,4.8h-94.1
			C4669.9,3079.1,4667.7,3076.9,4667.7,3074.3z"/>
	</g>
	<g>
		<path class="st19" d="M4670.7,2680.9L4670.7,2680.9c-5.3,0-9.7-4.4-9.7-9.7v-399c0-5.3,4.4-9.7,9.7-9.7l0,0c5.3,0,9.7,4.4,9.7,9.7
			v399C4680.4,2676.6,4676,2680.9,4670.7,2680.9z"/>
		<path class="st19" d="M4765,2680.9L4765,2680.9c-5.3,0-9.7-4.4-9.7-9.7v-399c0-5.3,4.4-9.7,9.7-9.7l0,0c5.3,0,9.7,4.4,9.7,9.7v399
			C4774.6,2676.6,4770.3,2680.9,4765,2680.9z"/>
		<path class="st19" d="M4667.7,2294.7v-9.7c0-2.6,2.2-4.8,4.8-4.8h94.1c2.6,0,4.8,2.2,4.8,4.8v9.7c0,2.6-2.2,4.8-4.8,4.8h-94.1
			C4669.9,2299.5,4667.7,2297.4,4667.7,2294.7z"/>
		<path class="st19" d="M4667.7,2363.2v-9.7c0-2.6,2.2-4.8,4.8-4.8h94.1c2.6,0,4.8,2.2,4.8,4.8v9.7c0,2.6-2.2,4.8-4.8,4.8h-94.1
			C4669.9,2368,4667.7,2365.8,4667.7,2363.2z"/>
		<path class="st19" d="M4667.7,2431.7v-9.7c0-2.6,2.2-4.8,4.8-4.8h94.1c2.6,0,4.8,2.2,4.8,4.8v9.7c0,2.6-2.2,4.8-4.8,4.8h-94.1
			C4669.9,2436.5,4667.7,2434.3,4667.7,2431.7z"/>
		<path class="st19" d="M4667.7,2500.1v-9.7c0-2.6,2.2-4.8,4.8-4.8h94.1c2.6,0,4.8,2.2,4.8,4.8v9.7c0,2.6-2.2,4.8-4.8,4.8h-94.1
			C4669.9,2505,4667.7,2502.8,4667.7,2500.1z"/>
		<path class="st19" d="M4667.7,2568.6v-9.7c0-2.6,2.2-4.8,4.8-4.8h94.1c2.6,0,4.8,2.2,4.8,4.8v9.7c0,2.6-2.2,4.8-4.8,4.8h-94.1
			C4669.9,2573.4,4667.7,2571.3,4667.7,2568.6z"/>
		<path class="st19" d="M4667.7,2637.1v-9.7c0-2.6,2.2-4.8,4.8-4.8h94.1c2.6,0,4.8,2.2,4.8,4.8v9.7c0,2.6-2.2,4.8-4.8,4.8h-94.1
			C4669.9,2641.9,4667.7,2639.8,4667.7,2637.1z"/>
	</g>
	<g>
		<path class="st19" d="M373.7,3113.8L373.7,3113.8c-5.3,0-9.7-4.3-9.7-9.7v-399c0-5.3,4.4-9.7,9.7-9.7l0,0c5.3,0,9.7,4.4,9.7,9.7
			v399C383.4,3109.5,379.1,3113.8,373.7,3113.8z"/>
		<path class="st19" d="M468,3113.8L468,3113.8c-5.3,0-9.7-4.3-9.7-9.7v-399c0-5.3,4.4-9.7,9.7-9.7l0,0c5.3,0,9.7,4.4,9.7,9.7v399
			C477.7,3109.5,473.3,3113.8,468,3113.8z"/>
		<path class="st19" d="M370.8,2727.6v-9.7c0-2.6,2.2-4.8,4.8-4.8h94.1c2.6,0,4.8,2.2,4.8,4.8v9.7c0,2.6-2.2,4.8-4.8,4.8h-94.1
			C372.9,2732.4,370.8,2730.2,370.8,2727.6z"/>
		<path class="st19" d="M370.8,2796.1v-9.7c0-2.6,2.2-4.8,4.8-4.8h94.1c2.6,0,4.8,2.2,4.8,4.8v9.7c0,2.6-2.2,4.8-4.8,4.8h-94.1
			C372.9,2800.9,370.8,2798.7,370.8,2796.1z"/>
		<path class="st19" d="M370.8,2864.6v-9.7c0-2.6,2.2-4.8,4.8-4.8h94.1c2.6,0,4.8,2.2,4.8,4.8v9.7c0,2.6-2.2,4.8-4.8,4.8h-94.1
			C372.9,2869.4,370.8,2867.2,370.8,2864.6z"/>
		<path class="st19" d="M370.8,2933v-9.7c0-2.6,2.2-4.8,4.8-4.8h94.1c2.6,0,4.8,2.2,4.8,4.8v9.7c0,2.6-2.2,4.8-4.8,4.8h-94.1
			C372.9,2937.9,370.8,2935.7,370.8,2933z"/>
		<path class="st19" d="M370.8,3001.5v-9.7c0-2.6,2.2-4.8,4.8-4.8h94.1c2.6,0,4.8,2.2,4.8,4.8v9.7c0,2.6-2.2,4.8-4.8,4.8h-94.1
			C372.9,3006.3,370.8,3004.2,370.8,3001.5z"/>
		<path class="st19" d="M370.8,3070v-9.7c0-2.6,2.2-4.8,4.8-4.8h94.1c2.6,0,4.8,2.2,4.8,4.8v9.7c0,2.6-2.2,4.8-4.8,4.8h-94.1
			C372.9,3074.8,370.8,3072.7,370.8,3070z"/>
	</g>
	<path class="st9" d="M3193.1,4334.5h-651.8c-13.4,0-24.3-10.9-24.3-24.3v-313.4c0-13.4,10.9-24.3,24.3-24.3h651.8
		c13.4,0,24.3,10.9,24.3,24.3v313.4C3217.4,4323.6,3206.5,4334.5,3193.1,4334.5z"/>
	<g>
		<path class="st10" d="M2587.2,4312.9h-19c-9.2,0-16.6-7.5-16.6-16.7v-281.3c0-9.2,7.5-16.6,16.6-16.6h19c9.2,0,16.6,7.5,16.6,16.6
			v281.3C2603.9,4305.4,2596.4,4312.9,2587.2,4312.9z"/>
		<path class="st10" d="M2703,4312.9h-19c-9.2,0-16.6-7.5-16.6-16.7v-281.3c0-9.2,7.5-16.6,16.6-16.6h19c9.2,0,16.6,7.5,16.6,16.6
			v281.3C2719.7,4305.4,2712.2,4312.9,2703,4312.9z"/>
		<path class="st10" d="M2818.8,4312.9h-19c-9.2,0-16.6-7.5-16.6-16.7v-281.3c0-9.2,7.5-16.6,16.6-16.6h19c9.2,0,16.6,7.5,16.6,16.6
			v281.3C2835.4,4305.4,2828,4312.9,2818.8,4312.9z"/>
		<path class="st10" d="M2934.5,4312.9h-19c-9.2,0-16.6-7.5-16.6-16.7v-281.3c0-9.2,7.5-16.6,16.6-16.6h19c9.2,0,16.6,7.5,16.6,16.6
			v281.3C2951.2,4305.4,2943.7,4312.9,2934.5,4312.9z"/>
		<path class="st10" d="M3050.3,4312.9h-19c-9.2,0-16.6-7.5-16.6-16.7v-281.3c0-9.2,7.5-16.6,16.6-16.6h19c9.2,0,16.6,7.5,16.6,16.6
			v281.3C3067,4305.4,3059.5,4312.9,3050.3,4312.9z"/>
		<path class="st10" d="M3166.1,4312.9h-19c-9.2,0-16.6-7.5-16.6-16.7v-281.3c0-9.2,7.5-16.6,16.6-16.6h19c9.2,0,16.6,7.5,16.6,16.6
			v281.3C3182.7,4305.4,3175.3,4312.9,3166.1,4312.9z"/>
	</g>
	<path class="st11" d="M3193.1,3972.5h-651.8c-13.4,0-24.3-10.9-24.3-24.3v-313.4c0-13.4,10.9-24.3,24.3-24.3h651.8
		c13.4,0,24.3,10.9,24.3,24.3v313.4C3217.4,3961.6,3206.5,3972.5,3193.1,3972.5z"/>
	<g>
		<path class="st12" d="M2587.2,3950.8h-19c-9.2,0-16.6-7.5-16.6-16.6v-281.3c0-9.2,7.5-16.7,16.6-16.7h19c9.2,0,16.6,7.5,16.6,16.7
			v281.3C2603.9,3943.4,2596.4,3950.8,2587.2,3950.8z"/>
		<path class="st12" d="M2703,3950.8h-19c-9.2,0-16.6-7.5-16.6-16.6v-281.3c0-9.2,7.5-16.7,16.6-16.7h19c9.2,0,16.6,7.5,16.6,16.7
			v281.3C2719.7,3943.4,2712.2,3950.8,2703,3950.8z"/>
		<path class="st12" d="M2818.8,3950.8h-19c-9.2,0-16.6-7.5-16.6-16.6v-281.3c0-9.2,7.5-16.7,16.6-16.7h19c9.2,0,16.6,7.5,16.6,16.7
			v281.3C2835.4,3943.4,2828,3950.8,2818.8,3950.8z"/>
		<path class="st12" d="M2934.5,3950.8h-19c-9.2,0-16.6-7.5-16.6-16.6v-281.3c0-9.2,7.5-16.7,16.6-16.7h19c9.2,0,16.6,7.5,16.6,16.7
			v281.3C2951.2,3943.4,2943.7,3950.8,2934.5,3950.8z"/>
		<path class="st12" d="M3050.3,3950.8h-19c-9.2,0-16.6-7.5-16.6-16.6v-281.3c0-9.2,7.5-16.7,16.6-16.7h19c9.2,0,16.6,7.5,16.6,16.7
			v281.3C3067,3943.4,3059.5,3950.8,3050.3,3950.8z"/>
		<path class="st12" d="M3166.1,3950.8h-19c-9.2,0-16.6-7.5-16.6-16.6v-281.3c0-9.2,7.5-16.7,16.6-16.7h19c9.2,0,16.6,7.5,16.6,16.7
			v281.3C3182.7,3943.4,3175.3,3950.8,3166.1,3950.8z"/>
	</g>
	<g>
		<path class="st19" d="M1329.5,3110.7L1329.5,3110.7c-5.3,0-9.7-4.4-9.7-9.7v-399c0-5.3,4.4-9.7,9.7-9.7l0,0c5.3,0,9.7,4.4,9.7,9.7
			v399C1339.2,3106.3,1334.9,3110.7,1329.5,3110.7z"/>
		<path class="st19" d="M1423.8,3110.7L1423.8,3110.7c-5.3,0-9.7-4.4-9.7-9.7v-399c0-5.3,4.3-9.7,9.7-9.7l0,0c5.3,0,9.7,4.4,9.7,9.7
			v399C1433.5,3106.3,1429.1,3110.7,1423.8,3110.7z"/>
		<path class="st19" d="M1326.6,2724.5v-9.7c0-2.6,2.2-4.8,4.8-4.8h94.1c2.6,0,4.8,2.2,4.8,4.8v9.7c0,2.6-2.2,4.8-4.8,4.8h-94.1
			C1328.7,2729.3,1326.6,2727.1,1326.6,2724.5z"/>
		<path class="st19" d="M1326.6,2792.9v-9.7c0-2.6,2.2-4.8,4.8-4.8h94.1c2.6,0,4.8,2.2,4.8,4.8v9.7c0,2.6-2.2,4.8-4.8,4.8h-94.1
			C1328.7,2797.8,1326.6,2795.6,1326.6,2792.9z"/>
		<path class="st19" d="M1326.6,2861.4v-9.7c0-2.6,2.2-4.8,4.8-4.8h94.1c2.6,0,4.8,2.2,4.8,4.8v9.7c0,2.6-2.2,4.8-4.8,4.8h-94.1
			C1328.7,2866.2,1326.6,2864.1,1326.6,2861.4z"/>
		<path class="st19" d="M1326.6,2929.9v-9.7c0-2.6,2.2-4.8,4.8-4.8h94.1c2.6,0,4.8,2.2,4.8,4.8v9.7c0,2.6-2.2,4.8-4.8,4.8h-94.1
			C1328.7,2934.7,1326.6,2932.5,1326.6,2929.9z"/>
		<path class="st19" d="M1326.6,2998.4v-9.7c0-2.6,2.2-4.8,4.8-4.8h94.1c2.6,0,4.8,2.2,4.8,4.8v9.7c0,2.6-2.2,4.8-4.8,4.8h-94.1
			C1328.7,3003.2,1326.6,3001,1326.6,2998.4z"/>
		<path class="st19" d="M1326.6,3066.9v-9.7c0-2.6,2.2-4.8,4.8-4.8h94.1c2.6,0,4.8,2.2,4.8,4.8v9.7c0,2.6-2.2,4.8-4.8,4.8h-94.1
			C1328.7,3071.7,1326.6,3069.5,1326.6,3066.9z"/>
	</g>
	<path class="st5" d="M1914.9,4357.1H779.1c-21,0-38.1-17.2-38.1-38.1v-379.7c0-21,17.2-38.1,38.1-38.1h1135.8
		c21,0,38.1,17.2,38.1,38.1V4319C1953.1,4340,1935.9,4357.1,1914.9,4357.1z"/>
	<path class="st5" d="M1824.3,4028.3H861.9c-13.2,0-24-10.8-24-24v-168.1c0-13.2,10.8-24,24-24h962.4c13.2,0,24,10.8,24,24v168.1
		C1848.2,4017.5,1837.4,4028.3,1824.3,4028.3z"/>
	<path class="st5" d="M1706.2,3844H950.3c-11.7,0-21.3-9.6-21.3-21.3v-173.4c0-11.7,9.6-21.3,21.3-21.3h755.9
		c11.7,0,21.3,9.6,21.3,21.3v173.4C1727.5,3834.4,1717.9,3844,1706.2,3844z"/>
	<path class="st20" d="M637.8,4047.3l27,214.4c0,0,8,61.4,34.4,127.6c25.6,63.9,87.3,105.9,156.1,105.9h2315.9l290.9-417.2
		l-427.5-0.9c-73.4-0.2-142.3,54.1-181.1,145.1c-1,2.4-2,4.8-3,7.3c0,0-23.8,65.7-161.1,53l-1058.4,2c-51.9,0.1-102-27.8-140.7-78.4
		l-46.5-60.8c-47.2-61.7-108.2-95.9-171.6-96.1L637.8,4047.3z"/>
	
		<ellipse transform="matrix(0.1615 -0.9869 0.9869 0.1615 -3261.3816 4134.6602)" class="st20" cx="802.5" cy="3986.6" rx="26.2" ry="26.2"/>
	
		<ellipse transform="matrix(0.2106 -0.9776 0.9776 0.2106 -3168.1714 4049.8367)" class="st20" cx="923.5" cy="3986.6" rx="26.2" ry="26.2"/>
	
		<ellipse transform="matrix(0.7071 -0.7071 0.7071 0.7071 -2513.0063 1906.2056)" class="st20" cx="1044.5" cy="3986.6" rx="26.2" ry="26.2"/>
	
		<ellipse transform="matrix(0.1602 -0.9871 0.9871 0.1602 -2956.2769 4498.4521)" class="st20" cx="1165.5" cy="3986.6" rx="26.2" ry="26.2"/>
	
		<ellipse transform="matrix(0.2298 -0.9732 0.9732 0.2298 -2888.9792 4322.7563)" class="st20" cx="1286.5" cy="3986.6" rx="26.2" ry="26.2"/>
	
		<ellipse transform="matrix(0.2298 -0.9732 0.9732 0.2298 -2795.7642 4440.5386)" class="st20" cx="1407.5" cy="3986.6" rx="26.2" ry="26.2"/>
	
		<ellipse transform="matrix(0.7071 -0.7071 0.7071 0.7071 -2371.2229 2248.5012)" class="st20" cx="1528.6" cy="3986.6" rx="26.2" ry="26.2"/>
	
		<ellipse transform="matrix(0.1602 -0.9871 0.9871 0.1602 -2549.7388 4976.2803)" class="st20" cx="1649.6" cy="3986.6" rx="26.2" ry="26.2"/>
	
		<ellipse transform="matrix(0.2298 -0.9732 0.9732 0.2298 -2516.1189 4793.8857)" class="st20" cx="1770.6" cy="3986.6" rx="26.2" ry="26.2"/>
	
		<ellipse transform="matrix(0.7071 -0.7071 0.7071 0.7071 -2264.8853 2505.2229)" class="st20" cx="1891.6" cy="3986.6" rx="26.2" ry="26.2"/>
	<path class="st20" d="M1853.6,4236h-233.9c-20.9,0-38-17.1-38-38v-70.8c0-20.9,17.1-38,38-38h233.9c20.9,0,38,17.1,38,38v70.8
		C1891.6,4218.9,1874.5,4236,1853.6,4236z"/>
	<path class="st20" d="M975.4,3890.3h-49c-5.5,0-10-4.5-10-10v-41.5c0-5.5,4.5-10,10-10h49c5.5,0,10,4.5,10,10v41.5
		C985.4,3885.8,980.9,3890.3,975.4,3890.3z"/>
	<path class="st20" d="M1132.3,3890.3h-49c-5.5,0-10-4.5-10-10v-41.5c0-5.5,4.5-10,10-10h49c5.5,0,10,4.5,10,10v41.5
		C1142.2,3885.8,1137.7,3890.3,1132.3,3890.3z"/>
	<path class="st20" d="M1289.1,3890.3h-49c-5.5,0-10-4.5-10-10v-41.5c0-5.5,4.5-10,10-10h49c5.5,0,10,4.5,10,10v41.5
		C1299.1,3885.8,1294.6,3890.3,1289.1,3890.3z"/>
	<path class="st20" d="M1095.1,3791.1H993.9c-11.3,0-20.6-9.3-20.6-20.6v-85.8c0-11.3,9.3-20.6,20.6-20.6h101.2
		c11.3,0,20.6,9.3,20.6,20.6v85.8C1115.7,3781.8,1106.4,3791.1,1095.1,3791.1z"/>
	<path class="st20" d="M1378.9,3791.1h-101.2c-11.3,0-20.6-9.3-20.6-20.6v-85.8c0-11.3,9.3-20.6,20.6-20.6h101.2
		c11.3,0,20.6,9.3,20.6,20.6v85.8C1399.4,3781.8,1390.2,3791.1,1378.9,3791.1z"/>
	<path class="st20" d="M1662.6,3791.1h-101.2c-11.3,0-20.6-9.3-20.6-20.6v-85.8c0-11.3,9.3-20.6,20.6-20.6h101.2
		c11.3,0,20.6,9.3,20.6,20.6v85.8C1683.2,3781.8,1673.9,3791.1,1662.6,3791.1z"/>
	<path class="st20" d="M1446,3890.3h-49c-5.5,0-10-4.5-10-10v-41.5c0-5.5,4.5-10,10-10h49c5.5,0,10,4.5,10,10v41.5
		C1455.9,3885.8,1451.5,3890.3,1446,3890.3z"/>
	<path class="st20" d="M1602.8,3890.3h-49c-5.5,0-10-4.5-10-10v-41.5c0-5.5,4.5-10,10-10h49c5.5,0,10,4.5,10,10v41.5
		C1612.8,3885.8,1608.3,3890.3,1602.8,3890.3z"/>
	<path class="st20" d="M1759.7,3890.3h-49c-5.5,0-10-4.5-10-10v-41.5c0-5.5,4.5-10,10-10h49c5.5,0,10,4.5,10,10v41.5
		C1769.7,3885.8,1765.2,3890.3,1759.7,3890.3z"/>
	<circle class="st5" cx="828.6" cy="4263.4" r="66"/>
	<circle class="st20" cx="828.6" cy="4263.4" r="35.2"/>
	<circle class="st5" cx="1027.8" cy="4263.4" r="66"/>
	<circle class="st20" cx="1027.8" cy="4263.4" r="35.2"/>
	<circle class="st5" cx="1227" cy="4263.4" r="66"/>
	<circle class="st20" cx="1227" cy="4263.4" r="35.2"/>
</g>
</svg>
