<?xml version="1.0" encoding="utf-8"?>
<!-- Generator: Adobe Illustrator 16.0.0, SVG Export Plug-In . SVG Version: 6.00 Build 0)  -->
<!DOCTYPE svg PUBLIC "-//W3C//DTD SVG 1.1//EN" "http://www.w3.org/Graphics/SVG/1.1/DTD/svg11.dtd">
<svg version="1.1" id="Pagina_inicia_Movil" xmlns="http://www.w3.org/2000/svg" xmlns:xlink="http://www.w3.org/1999/xlink"
	 x="0px" y="0px" width="560px" height="560px" viewBox="200 0 560 560" enable-background="new 200 0 560 560"
	 xml:space="preserve">
<title>servicio-1</title>
<circle fill="#0088C4" cx="480" cy="280" r="280"/>
<path fill-rule="evenodd" clip-rule="evenodd" fill="#FFFFFF" d="M372.488,462.173c-15.219-44.255-29.915-86.994-45.062-131.038
	c50.489-24.043,99.538-47.547,148.812-70.563c3.331-1.557,8.891-0.645,12.5,1.053c48.12,22.594,96.074,45.537,146.049,69.331
	c-6.04,18.163-11.786,35.796-17.766,53.344c-8.997,26.4-18.721,52.576-27.004,79.198c-3.758,12.096-9.367,15.427-21.242,11.184
	c-17.094-6.105-34.455-11.516-51.862-16.682C474.669,445.449,449.027,433.952,372.488,462.173z"/>
<path fill-rule="evenodd" clip-rule="evenodd" fill="#FFFFFF" d="M377.3,295.489c0-25.039-0.924-46.377,0.698-67.519
	c0.37-4.817,9.482-12.751,14.667-12.83c58.575-0.92,117.165-0.432,175.75-0.722c11.729-0.057,16.744,5.159,16.751,16.299
	c0.016,20.125,0.005,40.248,0.005,64.87c-19.048-9.028-37.017-14.874-51.94-25.142c-35.698-24.574-69.374-23.704-104.818,0.362
	C414.114,280.521,397.04,286.145,377.3,295.489z"/>
<path fill-rule="evenodd" clip-rule="evenodd" fill="#FFFFFF" d="M421.424,201.963c3.742-24.249,23.89-9.232,35.622-18.016
	c1.709-10.946,3.773-24.169,5.96-38.185c11.991,0,23.456,0,36.083,0c2.103,13.433,4.174,26.66,6.035,38.548
	c11.085,8.68,31.393-7.043,35.665,17.653C501.214,201.963,462.725,201.963,421.424,201.963z"/>
<path fill-rule="evenodd" clip-rule="evenodd" fill="#FFFFFF" d="M412.636,100.601c0.773-21.435,15.664-35.573,27.561-29.156
	c14.763,7.961,28.497,20.447,38.067,34.185c3.966,5.695,21.085,16.592,5.977,26.416c-4.791,3.118-16.697-5.067-25.478-7.639
	c-8.429-2.467-17.909-2.788-25.323-6.92C424.511,112.504,417.273,104.497,412.636,100.601z"/>
</svg>
