<?xml version="1.0" encoding="utf-8"?>
<!-- Generator: Adobe Illustrator 16.0.0, SVG Export Plug-In . SVG Version: 6.00 Build 0)  -->
<!DOCTYPE svg PUBLIC "-//W3C//DTD SVG 1.1//EN" "http://www.w3.org/Graphics/SVG/1.1/DTD/svg11.dtd">
<svg version="1.1" id="Layer_1" xmlns="http://www.w3.org/2000/svg" xmlns:xlink="http://www.w3.org/1999/xlink" x="0px" y="0px"
	 width="503.469px" height="281.869px" viewBox="0 0 503.469 281.869" enable-background="new 0 0 503.469 281.869"
	 xml:space="preserve">
<g>
	<g>
		<g>
			<path fill="#25236F" d="M175.393,239.869c2.472-0.027,4.077-0.595,4.816-1.702s1.109-2.769,1.109-4.983v-39.908
				c0-2.281-0.423-3.781-1.268-4.501c-0.846-0.72-2.345-1.188-4.499-1.405v-2.133h16.349l12.769,38.883h0.539l12.695-38.883h16.359
				v2.133c-2.197,0.218-3.697,0.741-4.499,1.57c-0.804,0.83-1.204,2.863-1.204,6.1v37.16c0,3.09,0.4,5.113,1.204,6.07
				c0.802,0.957,2.302,1.49,4.499,1.6v2.133h-21.546v-2.133c1.922-0.082,3.369-0.499,4.341-1.251s1.458-2.399,1.458-4.942v-41.057
				h-0.476l-15.905,49.383h-1.741l-16.065-48.398h-0.285v37.98c0,2.803,0.4,4.85,1.204,6.142c0.803,1.292,2.576,2.007,5.322,2.144
				v2.133h-15.177V239.869z"/>
			<path fill="#25236F" d="M234.917,239.992c1.141-0.246,1.922-0.615,2.345-1.107c0.633-0.738,0.95-2.064,0.95-3.979v-24.691
				c0-1.71-0.222-2.875-0.665-3.495c-0.444-0.62-1.32-1.082-2.63-1.386v-2.01h12.451v31.91c0,1.832,0.211,3.008,0.634,3.527
				c0.423,0.52,1.215,0.93,2.377,1.23v2.01h-15.462V239.992z M239.241,185.872c0.982-1.271,2.171-1.907,3.564-1.907
				c1.373,0,2.551,0.636,3.533,1.907s1.474,2.81,1.474,4.614s-0.491,3.343-1.474,4.614s-2.16,1.907-3.533,1.907
				c-1.394,0-2.582-0.636-3.564-1.907c-0.981-1.271-1.473-2.81-1.473-4.614S238.259,187.144,239.241,185.872z"/>
			<path fill="#25236F" d="M255.425,207.692c2.654-3.568,5.853-5.353,9.597-5.353c2.136,0,4.145,0.725,6.027,2.174
				c1.882,1.449,3.33,3.459,4.346,6.029c0.761,1.941,1.29,4.457,1.586,7.547c0.148,1.449,0.223,2.557,0.223,3.322h-16.571
				c0.148,3.363,0.571,6.275,1.27,8.736c1.271,4.621,3.503,6.932,6.699,6.932c1.524,0,2.964-0.615,4.318-1.846
				c0.825-0.738,1.852-1.982,3.08-3.732l1.489,1.189c-2.01,4.266-4.336,7.232-6.979,8.9c-1.713,1.066-3.68,1.6-5.9,1.6
				c-3.193,0-6.187-1.627-8.978-4.881c-2.792-3.254-4.188-8.449-4.188-15.586C251.443,216.271,252.771,211.261,255.425,207.692z
				 M269.219,218.295c-0.043-4.949-0.34-8.408-0.891-10.377c-0.552-1.969-1.654-2.953-3.308-2.953c-1.696,0-2.856,1.135-3.481,3.404
				c-0.626,2.27-0.981,5.578-1.065,9.926H269.219z"/>
			<path fill="#25236F" d="M278.108,239.992c1.246-0.191,2.112-0.574,2.599-1.148c0.485-0.574,0.749-1.682,0.792-3.322l0.063-2.461
				v-22.846c0-1.765-0.232-2.964-0.697-3.599s-1.384-1.062-2.757-1.282v-2.01h12.294v6.604c1.376-2.324,2.741-4.17,4.097-5.537
				c1.354-1.367,2.922-2.051,4.699-2.051c1.334,0,2.535,0.554,3.604,1.661s1.604,2.728,1.604,4.86c0,1.641-0.377,2.994-1.128,4.061
				c-0.752,1.066-1.731,1.6-2.938,1.6c-1.376,0-2.567-0.834-3.573-2.502s-1.71-2.502-2.111-2.502c-0.868,0-1.742,0.69-2.62,2.071
				c-0.879,1.381-1.318,3.359-1.318,5.936v15.905c0,2.771,0.312,4.504,0.936,5.197c0.622,0.693,1.863,1.148,3.723,1.365v2.01
				h-17.269V239.992z"/>
			<path fill="#25236F" d="M318.421,248.605c0.91-0.902,1.995-1.354,3.254-1.354c1.102,0,2.007,0.396,2.715,1.189
				s1.063,1.736,1.063,2.83l-0.158,1.846c0,0.355,0.11,0.684,0.333,0.984c0.222,0.301,0.502,0.451,0.841,0.451
				c1.128,0,2.178-1.14,3.148-3.417c0.609-1.406,1.49-4.162,2.642-8.269l-7.693-24.593c-0.549-1.753-1.082-3.396-1.6-4.93
				c-0.518-1.533-1.062-3.026-1.632-4.478c-0.592-1.479-1.057-2.41-1.395-2.794c-0.338-0.383-0.95-0.63-1.837-0.739v-2.01h16.22
				v2.01c-1.015,0.027-1.845,0.178-2.489,0.452c-0.645,0.273-0.967,0.861-0.967,1.765c0,0.192,0.036,0.452,0.11,0.78
				s0.238,0.917,0.491,1.766l5.169,16.525h0.322l4.271-14.76c0.211-0.821,0.385-1.54,0.522-2.155
				c0.138-0.616,0.206-1.157,0.206-1.622c0-1.177-0.302-1.922-0.903-2.237c-0.603-0.315-1.495-0.486-2.678-0.514v-2.01h9.824v2.01
				c-0.845,0.082-1.536,0.376-2.075,0.882s-1.093,1.729-1.663,3.671l-9.695,33.51c-1.886,6.18-3.508,10.377-4.866,12.592
				s-3.485,3.322-6.381,3.322c-2.11,0-3.715-0.677-4.815-2.03c-1.1-1.354-1.649-2.837-1.649-4.45
				C317.056,250.916,317.511,249.508,318.421,248.605z"/>
		</g>
		<g>
			<path fill="#25236F" d="M350.217,185.484h39.067l0.063,16.939h-1.869c-0.612-6.061-2.365-10.16-5.26-12.299
				c-1.626-1.18-4.055-1.823-7.287-1.934v44.25c0,3.092,0.417,5.145,1.252,6.156c0.834,1.013,2.571,1.52,5.212,1.52v2.133h-23.13
				v-2.133c2.535,0,4.219-0.513,5.054-1.54c0.834-1.025,1.252-3.071,1.252-6.136v-44.25c-3.169,0.11-5.598,0.754-7.288,1.934
				c-3.104,2.193-4.858,6.293-5.259,12.299h-1.87L350.217,185.484z"/>
			<path fill="#25236F" d="M389.485,207.94c2.654-3.568,5.853-5.353,9.597-5.353c2.136,0,4.146,0.725,6.027,2.174
				s3.331,3.459,4.346,6.029c0.762,1.941,1.29,4.457,1.586,7.547c0.148,1.449,0.223,2.557,0.223,3.322h-16.571
				c0.148,3.363,0.571,6.275,1.271,8.736c1.27,4.621,3.503,6.932,6.699,6.932c1.523,0,2.963-0.615,4.317-1.846
				c0.825-0.738,1.853-1.982,3.08-3.732l1.489,1.189c-2.009,4.266-4.336,7.232-6.979,8.9c-1.713,1.066-3.68,1.6-5.9,1.6
				c-3.193,0-6.186-1.627-8.978-4.881s-4.188-8.449-4.188-15.586C385.504,216.52,386.831,211.509,389.485,207.94z M403.279,218.543
				c-0.043-4.949-0.34-8.408-0.891-10.377c-0.552-1.969-1.653-2.953-3.308-2.953c-1.695,0-2.856,1.135-3.481,3.404
				c-0.626,2.27-0.98,5.578-1.065,9.926H403.279z"/>
			<path fill="#25236F" d="M412.3,240.24c1.246-0.191,2.111-0.574,2.598-1.148c0.485-0.574,0.75-1.682,0.792-3.322l0.063-2.461
				v-22.846c0-1.766-0.232-2.964-0.697-3.599s-1.384-1.062-2.756-1.282v-2.01h12.293v6.604c1.376-2.324,2.741-4.17,4.097-5.537
				c1.354-1.367,2.922-2.051,4.7-2.051c1.333,0,2.534,0.554,3.604,1.661s1.604,2.728,1.604,4.86c0,1.641-0.376,2.994-1.128,4.061
				s-1.73,1.6-2.938,1.6c-1.376,0-2.567-0.834-3.572-2.502c-1.007-1.668-1.71-2.502-2.112-2.502c-0.868,0-1.741,0.69-2.62,2.071
				s-1.317,3.359-1.317,5.935v15.906c0,2.771,0.312,4.504,0.935,5.196c0.623,0.693,1.863,1.148,3.723,1.366v2.01H412.3V240.24z"/>
			<path fill="#25236F" d="M444.038,225.404c2.809-2.219,7.213-4.451,13.213-6.697v-6.111c0-2.488-0.408-4.327-1.221-5.517
				s-2.256-1.784-4.324-1.784c-1.162,0-2.119,0.28-2.867,0.841c-0.75,0.561-1.125,1.265-1.125,2.112c0,0.328,0.041,0.602,0.127,0.82
				c0.084,0.219,0.211,0.451,0.379,0.697l0.381,0.574c0.295,0.465,0.533,0.978,0.713,1.538s0.27,1.155,0.27,1.784
				c0,1.586-0.408,2.81-1.221,3.671s-1.758,1.292-2.836,1.292c-1.246,0-2.308-0.477-3.184-1.432
				c-0.877-0.955-1.315-2.332-1.315-4.133c0-3.218,1.173-5.769,3.518-7.649c2.345-1.882,5.228-2.823,8.649-2.823
				c3.676,0,6.75,0.916,9.221,2.748c2.449,1.859,3.676,5.277,3.676,10.254v20.344c0,0.602,0.121,1.114,0.363,1.538
				s0.512,0.636,0.809,0.636c0.254,0,0.48-0.062,0.682-0.185c0.199-0.123,0.512-0.458,0.934-1.005l0.982,1.764
				c-1.268,1.914-2.672,3.254-4.213,4.02c-0.973,0.492-1.996,0.738-3.074,0.738c-1.922,0-3.326-0.727-4.215-2.178
				c-0.506-0.821-0.877-2.041-1.107-3.657c-1.797,2.328-3.824,3.972-6.084,4.931c-1.373,0.603-2.725,0.904-4.057,0.904
				c-1.773,0-3.433-0.733-4.974-2.198c-1.542-1.465-2.313-3.745-2.313-6.84C439.823,230.621,441.229,227.623,444.038,225.404z
				 M455.349,236.217c0.508-0.493,1.109-1.26,1.807-2.302v-12.296c-1.732,0.549-3.254,1.411-4.563,2.59
				c-2.219,2.002-3.326,4.552-3.326,7.649c0,1.837,0.32,3.229,0.965,4.174c0.645,0.946,1.367,1.419,2.172,1.419
				C453.458,237.451,454.44,237.04,455.349,236.217z"/>
			<path fill="#25236F" d="M469.915,240.24c1.183-0.191,2.054-0.608,2.613-1.251s0.84-1.921,0.84-3.835v-24.691
				c0-1.71-0.228-2.896-0.681-3.558c-0.455-0.661-1.379-1.103-2.772-1.323v-2.01h12.293v6.029c1.035-2.023,2.35-3.698,3.945-5.024
				c1.594-1.326,3.363-1.989,5.307-1.989c2.788,0,4.948,0.93,6.479,2.789s2.297,5.127,2.297,9.803v20.303
				c0,1.887,0.248,3.104,0.745,3.65c0.496,0.547,1.325,0.916,2.487,1.107v2.01h-15.24v-2.01c1.161-0.301,1.953-0.711,2.376-1.23
				s0.634-1.695,0.634-3.527v-20.344c0-1.914-0.148-3.35-0.443-4.307c-0.507-1.723-1.511-2.584-3.011-2.584
				c-1.119,0-2.149,0.526-3.089,1.579c-0.94,1.053-1.663,2.112-2.17,3.179v22.477c0,1.832,0.211,3.008,0.634,3.527
				c0.422,0.52,1.214,0.93,2.376,1.23v2.01h-15.62V240.24z"/>
		</g>
		<g>
			<path fill="#25236F" d="M461.691,183.499l-9.697,15.059h-2.52l3.398-15.059H461.691z"/>
		</g>
		<g>
			<path fill="#0080C3" d="M186.16,271.219c-1.744,1.349-2.839,2.128-3.284,2.338c-0.668,0.31-1.38,0.464-2.134,0.464
				c-1.176,0-2.144-0.401-2.903-1.206c-0.762-0.804-1.142-1.861-1.142-3.173c0-0.828,0.186-1.546,0.557-2.152
				c0.507-0.841,1.389-1.633,2.644-2.375c1.256-0.742,3.343-1.645,6.263-2.709v-0.668c0-1.694-0.269-2.857-0.808-3.488
				c-0.537-0.631-1.32-0.946-2.347-0.946c-0.779,0-1.398,0.211-1.855,0.631c-0.471,0.421-0.705,0.903-0.705,1.447l0.037,1.076
				c0,0.569-0.146,1.009-0.437,1.317c-0.29,0.31-0.671,0.464-1.141,0.464c-0.458,0-0.832-0.16-1.123-0.482
				c-0.29-0.321-0.436-0.761-0.436-1.317c0-1.063,0.544-2.041,1.633-2.932c1.088-0.891,2.616-1.336,4.583-1.336
				c1.509,0,2.746,0.254,3.711,0.761c0.729,0.384,1.268,0.983,1.614,1.8c0.223,0.532,0.334,1.621,0.334,3.266v5.771
				c0,1.621,0.03,2.613,0.093,2.979c0.062,0.365,0.164,0.609,0.306,0.732c0.143,0.124,0.307,0.186,0.492,0.186
				c0.197,0,0.371-0.043,0.52-0.13c0.26-0.16,0.761-0.612,1.503-1.354v1.039c-1.386,1.855-2.709,2.783-3.971,2.783
				c-0.606,0-1.089-0.21-1.447-0.631C186.357,272.951,186.172,272.233,186.16,271.219z M186.16,270.013v-6.476
				c-1.868,0.742-3.074,1.269-3.618,1.577c-0.978,0.545-1.677,1.113-2.097,1.707c-0.421,0.594-0.631,1.243-0.631,1.948
				c0,0.891,0.266,1.63,0.798,2.218c0.531,0.588,1.144,0.881,1.837,0.881C183.389,271.868,184.626,271.25,186.16,270.013z"/>
			<path fill="#0080C3" d="M197.98,267.471c-1.039-0.507-1.837-1.215-2.394-2.124s-0.835-1.914-0.835-3.016
				c0-1.682,0.634-3.129,1.901-4.342c1.269-1.212,2.892-1.818,4.871-1.818c1.62,0,3.024,0.396,4.212,1.188h3.6
				c0.531,0,0.841,0.016,0.928,0.047c0.086,0.031,0.148,0.083,0.186,0.157c0.074,0.111,0.111,0.31,0.111,0.594
				c0,0.322-0.031,0.545-0.093,0.668c-0.037,0.063-0.102,0.111-0.195,0.148c-0.092,0.037-0.405,0.056-0.937,0.056h-2.208
				c0.692,0.891,1.039,2.029,1.039,3.414c0,1.584-0.606,2.938-1.818,4.063c-1.213,1.126-2.839,1.688-4.88,1.688
				c-0.842,0-1.701-0.123-2.579-0.371c-0.545,0.471-0.912,0.882-1.104,1.234c-0.192,0.353-0.288,0.652-0.288,0.899
				c0,0.211,0.103,0.415,0.306,0.612c0.205,0.198,0.604,0.341,1.197,0.427c0.346,0.05,1.212,0.093,2.598,0.13
				c2.548,0.063,4.199,0.148,4.954,0.26c1.15,0.161,2.069,0.588,2.755,1.28c0.688,0.693,1.03,1.546,1.03,2.561
				c0,1.397-0.656,2.709-1.967,3.934c-1.93,1.806-4.447,2.709-7.552,2.709c-2.388,0-4.404-0.538-6.049-1.614
				c-0.928-0.618-1.392-1.262-1.392-1.93c0-0.297,0.067-0.594,0.204-0.891c0.21-0.458,0.643-1.095,1.299-1.911
				c0.086-0.111,0.717-0.779,1.893-2.004c-0.644-0.383-1.098-0.727-1.363-1.029c-0.267-0.303-0.399-0.646-0.399-1.03
				c0-0.433,0.177-0.939,0.528-1.521C195.894,269.357,196.706,268.535,197.98,267.471z M197.795,273.668
				c-0.582,0.631-1.021,1.219-1.317,1.763s-0.445,1.045-0.445,1.503c0,0.594,0.358,1.113,1.076,1.559
				c1.236,0.767,3.024,1.15,5.362,1.15c2.227,0,3.868-0.393,4.927-1.178c1.057-0.786,1.586-1.624,1.586-2.515
				c0-0.644-0.315-1.101-0.946-1.373c-0.644-0.272-1.918-0.433-3.822-0.482C201.432,274.021,199.291,273.878,197.795,273.668z
				 M201.209,257.062c-0.916,0-1.683,0.365-2.301,1.095c-0.619,0.73-0.928,1.85-0.928,3.358c0,1.955,0.42,3.47,1.262,4.546
				c0.643,0.816,1.459,1.225,2.449,1.225c0.939,0,1.713-0.353,2.319-1.058c0.605-0.705,0.909-1.812,0.909-3.321
				c0-1.967-0.427-3.507-1.28-4.62C203.009,257.47,202.198,257.062,201.209,257.062z"/>
			<path fill="#0080C3" d="M215.33,263.073c-0.013,2.523,0.6,4.503,1.837,5.938c1.236,1.436,2.69,2.152,4.36,2.152
				c1.113,0,2.081-0.306,2.904-0.918c0.822-0.612,1.512-1.661,2.068-3.146l0.575,0.371c-0.26,1.695-1.015,3.238-2.264,4.63
				c-1.25,1.392-2.814,2.087-4.694,2.087c-2.041,0-3.788-0.794-5.242-2.384c-1.453-1.59-2.18-3.727-2.18-6.411
				c0-2.906,0.745-5.173,2.236-6.8c1.49-1.627,3.36-2.44,5.612-2.44c1.904,0,3.47,0.628,4.694,1.884s1.837,2.935,1.837,5.037H215.33
				z M215.33,261.997h7.867c-0.063-1.088-0.192-1.855-0.39-2.301c-0.31-0.692-0.771-1.236-1.382-1.633
				c-0.613-0.396-1.253-0.594-1.921-0.594c-1.027,0-1.945,0.399-2.755,1.197C215.939,259.465,215.466,260.575,215.33,261.997z"/>
			<path fill="#0080C3" d="M234.331,259.771c1.991-2.399,3.89-3.6,5.696-3.6c0.928,0,1.726,0.232,2.394,0.696
				s1.199,1.228,1.596,2.291c0.271,0.742,0.408,1.881,0.408,3.414v7.255c0,1.076,0.086,1.807,0.26,2.189
				c0.136,0.31,0.355,0.551,0.659,0.724c0.303,0.174,0.862,0.26,1.679,0.26v0.668h-8.405V273h0.353c0.791,0,1.345-0.12,1.661-0.361
				c0.314-0.241,0.534-0.597,0.658-1.067c0.049-0.186,0.074-0.767,0.074-1.744v-6.958c0-1.546-0.201-2.668-0.604-3.367
				c-0.401-0.699-1.079-1.049-2.031-1.049c-1.473,0-2.938,0.805-4.397,2.412v8.962c0,1.15,0.067,1.862,0.204,2.134
				c0.173,0.359,0.411,0.622,0.715,0.789c0.303,0.167,0.918,0.25,1.846,0.25v0.668h-8.405V273h0.371c0.865,0,1.45-0.219,1.753-0.658
				c0.304-0.439,0.455-1.277,0.455-2.515v-6.309c0-2.041-0.047-3.284-0.139-3.729c-0.094-0.445-0.235-0.748-0.428-0.909
				c-0.191-0.16-0.448-0.241-0.77-0.241c-0.347,0-0.761,0.093-1.243,0.278l-0.278-0.668l5.121-2.078h0.798V259.771z"/>
			<path fill="#0080C3" d="M262.851,267.211c-0.458,2.239-1.354,3.962-2.69,5.168s-2.814,1.809-4.435,1.809
				c-1.93,0-3.612-0.81-5.047-2.431c-1.436-1.62-2.152-3.81-2.152-6.568c0-2.672,0.795-4.843,2.385-6.513
				c1.589-1.67,3.497-2.505,5.724-2.505c1.67,0,3.043,0.442,4.119,1.327s1.614,1.803,1.614,2.755c0,0.471-0.151,0.851-0.455,1.142
				c-0.303,0.291-0.727,0.436-1.271,0.436c-0.73,0-1.28-0.234-1.651-0.705c-0.211-0.26-0.35-0.754-0.418-1.484
				c-0.067-0.729-0.318-1.286-0.751-1.67c-0.434-0.371-1.033-0.557-1.8-0.557c-1.237,0-2.233,0.458-2.987,1.373
				c-1.002,1.213-1.503,2.814-1.503,4.806c0,2.029,0.498,3.819,1.494,5.372c0.995,1.553,2.34,2.328,4.035,2.328
				c1.212,0,2.301-0.414,3.266-1.243c0.68-0.568,1.342-1.602,1.985-3.099L262.851,267.211z"/>
			<path fill="#0080C3" d="M271.183,256.171v13.656c0,1.064,0.077,1.772,0.232,2.125c0.154,0.353,0.383,0.615,0.686,0.788
				c0.304,0.174,0.856,0.26,1.661,0.26v0.668h-8.257V273c0.828,0,1.385-0.08,1.67-0.241c0.284-0.16,0.51-0.427,0.678-0.798
				c0.166-0.371,0.25-1.082,0.25-2.134v-6.55c0-1.843-0.056-3.036-0.167-3.581c-0.087-0.396-0.223-0.671-0.408-0.825
				s-0.439-0.232-0.761-0.232c-0.347,0-0.768,0.093-1.262,0.278l-0.26-0.668l5.121-2.078H271.183z M269.643,247.283
				c0.52,0,0.962,0.183,1.327,0.548c0.364,0.365,0.547,0.807,0.547,1.326s-0.183,0.965-0.547,1.336
				c-0.365,0.371-0.808,0.557-1.327,0.557s-0.965-0.186-1.336-0.557s-0.557-0.816-0.557-1.336s0.183-0.961,0.548-1.326
				C268.662,247.466,269.11,247.283,269.643,247.283z"/>
			<path fill="#0080C3" d="M285.544,271.219c-1.744,1.349-2.839,2.128-3.284,2.338c-0.668,0.31-1.38,0.464-2.134,0.464
				c-1.176,0-2.144-0.401-2.903-1.206c-0.762-0.804-1.142-1.861-1.142-3.173c0-0.828,0.186-1.546,0.557-2.152
				c0.507-0.841,1.389-1.633,2.644-2.375c1.256-0.742,3.343-1.645,6.263-2.709v-0.668c0-1.694-0.269-2.857-0.808-3.488
				c-0.537-0.631-1.32-0.946-2.347-0.946c-0.779,0-1.398,0.211-1.855,0.631c-0.471,0.421-0.705,0.903-0.705,1.447l0.037,1.076
				c0,0.569-0.146,1.009-0.437,1.317c-0.29,0.31-0.671,0.464-1.141,0.464c-0.458,0-0.832-0.16-1.123-0.482
				c-0.29-0.321-0.436-0.761-0.436-1.317c0-1.063,0.544-2.041,1.633-2.932c1.088-0.891,2.616-1.336,4.583-1.336
				c1.509,0,2.746,0.254,3.711,0.761c0.729,0.384,1.268,0.983,1.614,1.8c0.223,0.532,0.334,1.621,0.334,3.266v5.771
				c0,1.621,0.03,2.613,0.093,2.979c0.062,0.365,0.164,0.609,0.306,0.732c0.143,0.124,0.307,0.186,0.492,0.186
				c0.197,0,0.371-0.043,0.52-0.13c0.26-0.16,0.761-0.612,1.503-1.354v1.039c-1.386,1.855-2.709,2.783-3.971,2.783
				c-0.606,0-1.089-0.21-1.447-0.631C285.741,272.951,285.556,272.233,285.544,271.219z M285.544,270.013v-6.476
				c-1.868,0.742-3.074,1.269-3.618,1.577c-0.978,0.545-1.677,1.113-2.097,1.707c-0.421,0.594-0.631,1.243-0.631,1.948
				c0,0.891,0.266,1.63,0.798,2.218c0.531,0.588,1.144,0.881,1.837,0.881C282.772,271.868,284.01,271.25,285.544,270.013z"/>
		</g>
		<g>
			<path fill="#0080C3" d="M394.072,271.555c-1.744,1.349-2.839,2.128-3.284,2.338c-0.668,0.309-1.38,0.464-2.134,0.464
				c-1.176,0-2.144-0.402-2.903-1.206c-0.762-0.804-1.142-1.861-1.142-3.173c0-0.829,0.186-1.546,0.557-2.152
				c0.507-0.841,1.389-1.633,2.644-2.375c1.256-0.742,3.343-1.646,6.263-2.709v-0.668c0-1.694-0.269-2.857-0.808-3.488
				c-0.537-0.631-1.32-0.946-2.347-0.946c-0.779,0-1.398,0.21-1.855,0.631c-0.471,0.421-0.705,0.903-0.705,1.447l0.037,1.076
				c0,0.569-0.146,1.008-0.437,1.317c-0.29,0.31-0.671,0.464-1.141,0.464c-0.458,0-0.832-0.161-1.123-0.482
				c-0.29-0.321-0.436-0.761-0.436-1.317c0-1.063,0.544-2.041,1.633-2.932c1.088-0.891,2.616-1.336,4.583-1.336
				c1.509,0,2.746,0.254,3.711,0.761c0.729,0.384,1.268,0.983,1.614,1.8c0.223,0.532,0.334,1.62,0.334,3.266v5.771
				c0,1.62,0.03,2.613,0.093,2.978c0.062,0.365,0.164,0.609,0.306,0.733c0.143,0.124,0.307,0.186,0.492,0.186
				c0.197,0,0.371-0.043,0.52-0.13c0.26-0.161,0.761-0.612,1.503-1.354v1.039c-1.386,1.855-2.709,2.783-3.971,2.783
				c-0.606,0-1.089-0.211-1.447-0.631C394.27,273.286,394.084,272.569,394.072,271.555z M394.072,270.349v-6.476
				c-1.868,0.742-3.074,1.268-3.618,1.577c-0.978,0.544-1.677,1.113-2.097,1.707c-0.421,0.594-0.631,1.243-0.631,1.948
				c0,0.891,0.266,1.63,0.798,2.217c0.531,0.588,1.144,0.882,1.837,0.882C391.301,272.204,392.538,271.586,394.072,270.349z"/>
			<path fill="#0080C3" d="M413.352,272.093c-0.829,0.866-1.64,1.487-2.431,1.864c-0.792,0.377-1.646,0.566-2.561,0.566
				c-1.855,0-3.477-0.776-4.861-2.329c-1.386-1.552-2.078-3.547-2.078-5.983s0.767-4.667,2.301-6.689
				c1.533-2.022,3.507-3.033,5.919-3.033c1.496,0,2.733,0.477,3.711,1.429v-3.136c0-1.942-0.046-3.136-0.14-3.581
				c-0.092-0.445-0.238-0.748-0.436-0.909c-0.198-0.161-0.445-0.241-0.742-0.241c-0.322,0-0.749,0.099-1.28,0.297l-0.241-0.649
				l5.065-2.078h0.835v19.649c0,1.991,0.047,3.207,0.139,3.646c0.094,0.439,0.242,0.746,0.445,0.919
				c0.205,0.173,0.442,0.26,0.715,0.26c0.334,0,0.779-0.105,1.336-0.315l0.204,0.649l-5.047,2.097h-0.854V272.093z M413.352,270.794
				v-8.758c-0.074-0.841-0.297-1.608-0.668-2.301s-0.862-1.216-1.476-1.568c-0.611-0.353-1.209-0.528-1.79-0.528
				c-1.089,0-2.06,0.488-2.913,1.466c-1.126,1.286-1.688,3.167-1.688,5.641c0,2.499,0.544,4.413,1.633,5.742
				c1.088,1.33,2.301,1.995,3.637,1.995C411.211,272.482,412.3,271.92,413.352,270.794z"/>
			<path fill="#0080C3" d="M435.284,257.008v10.298c0,1.967,0.046,3.17,0.14,3.608c0.092,0.439,0.24,0.746,0.445,0.919
				c0.203,0.173,0.441,0.26,0.714,0.26c0.383,0,0.816-0.105,1.299-0.315l0.26,0.649l-5.084,2.097h-0.835v-3.6
				c-1.46,1.583-2.573,2.579-3.34,2.987c-0.768,0.408-1.577,0.612-2.431,0.612c-0.953,0-1.778-0.275-2.478-0.826
				c-0.698-0.55-1.185-1.258-1.456-2.124c-0.272-0.866-0.408-2.091-0.408-3.674v-7.589c0-0.804-0.087-1.36-0.26-1.67
				c-0.174-0.31-0.43-0.548-0.771-0.715c-0.34-0.167-0.955-0.244-1.846-0.231v-0.687h5.956v11.374c0,1.583,0.275,2.622,0.825,3.117
				c0.551,0.495,1.216,0.742,1.995,0.742c0.531,0,1.135-0.167,1.81-0.501c0.674-0.334,1.475-0.971,2.402-1.911v-9.63
				c0-0.965-0.176-1.617-0.529-1.958c-0.352-0.34-1.085-0.522-2.198-0.547v-0.687H435.284z"/>
			<path fill="#0080C3" d="M449.053,271.555c-1.744,1.349-2.839,2.128-3.284,2.338c-0.668,0.309-1.38,0.464-2.134,0.464
				c-1.176,0-2.144-0.402-2.903-1.206c-0.762-0.804-1.142-1.861-1.142-3.173c0-0.829,0.186-1.546,0.557-2.152
				c0.507-0.841,1.389-1.633,2.644-2.375c1.256-0.742,3.343-1.646,6.263-2.709v-0.668c0-1.694-0.269-2.857-0.808-3.488
				c-0.537-0.631-1.32-0.946-2.347-0.946c-0.779,0-1.398,0.21-1.855,0.631c-0.471,0.421-0.705,0.903-0.705,1.447l0.037,1.076
				c0,0.569-0.146,1.008-0.437,1.317c-0.29,0.31-0.671,0.464-1.141,0.464c-0.458,0-0.832-0.161-1.123-0.482
				c-0.29-0.321-0.436-0.761-0.436-1.317c0-1.063,0.544-2.041,1.633-2.932c1.088-0.891,2.616-1.336,4.583-1.336
				c1.509,0,2.746,0.254,3.711,0.761c0.729,0.384,1.268,0.983,1.614,1.8c0.223,0.532,0.334,1.62,0.334,3.266v5.771
				c0,1.62,0.03,2.613,0.093,2.978c0.062,0.365,0.164,0.609,0.306,0.733c0.143,0.124,0.307,0.186,0.492,0.186
				c0.197,0,0.371-0.043,0.52-0.13c0.26-0.161,0.761-0.612,1.503-1.354v1.039c-1.386,1.855-2.709,2.783-3.971,2.783
				c-0.606,0-1.089-0.211-1.447-0.631C449.25,273.286,449.064,272.569,449.053,271.555z M449.053,270.349v-6.476
				c-1.868,0.742-3.074,1.268-3.618,1.577c-0.978,0.544-1.677,1.113-2.097,1.707c-0.421,0.594-0.631,1.243-0.631,1.948
				c0,0.891,0.266,1.63,0.798,2.217c0.531,0.588,1.144,0.882,1.837,0.882C446.281,272.204,447.519,271.586,449.053,270.349z"/>
			<path fill="#0080C3" d="M461.281,260.106c1.991-2.399,3.89-3.6,5.696-3.6c0.928,0,1.726,0.231,2.394,0.695
				s1.199,1.229,1.596,2.292c0.271,0.742,0.408,1.88,0.408,3.414v7.255c0,1.076,0.086,1.806,0.26,2.189
				c0.136,0.31,0.355,0.551,0.659,0.724c0.303,0.173,0.862,0.26,1.679,0.26v0.668h-8.405v-0.668h0.353
				c0.791,0,1.345-0.121,1.661-0.362c0.314-0.241,0.534-0.597,0.658-1.066c0.049-0.186,0.074-0.767,0.074-1.744v-6.958
				c0-1.546-0.201-2.669-0.604-3.368c-0.401-0.698-1.079-1.048-2.031-1.048c-1.473,0-2.938,0.804-4.397,2.412v8.962
				c0,1.15,0.067,1.861,0.204,2.134c0.173,0.358,0.411,0.621,0.715,0.788c0.303,0.167,0.918,0.251,1.846,0.251v0.668h-8.405v-0.668
				h0.371c0.865,0,1.45-0.22,1.753-0.659c0.304-0.438,0.455-1.276,0.455-2.514v-6.309c0-2.041-0.047-3.284-0.139-3.729
				c-0.094-0.445-0.235-0.748-0.428-0.909c-0.191-0.161-0.448-0.241-0.77-0.241c-0.347,0-0.761,0.093-1.243,0.278l-0.278-0.668
				l5.121-2.078h0.798V260.106z"/>
			<path fill="#0080C3" d="M484.995,271.555c-1.744,1.349-2.839,2.128-3.284,2.338c-0.668,0.309-1.38,0.464-2.134,0.464
				c-1.176,0-2.144-0.402-2.903-1.206c-0.762-0.804-1.142-1.861-1.142-3.173c0-0.829,0.186-1.546,0.557-2.152
				c0.507-0.841,1.389-1.633,2.644-2.375c1.256-0.742,3.343-1.646,6.263-2.709v-0.668c0-1.694-0.269-2.857-0.808-3.488
				c-0.537-0.631-1.32-0.946-2.347-0.946c-0.779,0-1.398,0.21-1.855,0.631c-0.471,0.421-0.705,0.903-0.705,1.447l0.037,1.076
				c0,0.569-0.146,1.008-0.437,1.317c-0.29,0.31-0.671,0.464-1.141,0.464c-0.458,0-0.832-0.161-1.123-0.482
				c-0.29-0.321-0.436-0.761-0.436-1.317c0-1.063,0.544-2.041,1.633-2.932c1.088-0.891,2.616-1.336,4.583-1.336
				c1.509,0,2.746,0.254,3.711,0.761c0.729,0.384,1.268,0.983,1.614,1.8c0.223,0.532,0.334,1.62,0.334,3.266v5.771
				c0,1.62,0.03,2.613,0.093,2.978c0.062,0.365,0.164,0.609,0.306,0.733c0.143,0.124,0.307,0.186,0.492,0.186
				c0.197,0,0.371-0.043,0.52-0.13c0.26-0.161,0.761-0.612,1.503-1.354v1.039c-1.386,1.855-2.709,2.783-3.971,2.783
				c-0.606,0-1.089-0.211-1.447-0.631C485.192,273.286,485.007,272.569,484.995,271.555z M484.995,270.349v-6.476
				c-1.868,0.742-3.074,1.268-3.618,1.577c-0.978,0.544-1.677,1.113-2.097,1.707c-0.421,0.594-0.631,1.243-0.631,1.948
				c0,0.891,0.266,1.63,0.798,2.217c0.531,0.588,1.144,0.882,1.837,0.882C482.224,272.204,483.461,271.586,484.995,270.349z"/>
			<path fill="#0080C3" d="M498.113,247.619v22.544c0,1.063,0.077,1.769,0.231,2.115c0.155,0.347,0.393,0.609,0.715,0.788
				c0.321,0.18,0.921,0.27,1.8,0.27v0.668h-8.331v-0.668c0.779,0,1.311-0.08,1.596-0.241c0.284-0.161,0.507-0.427,0.668-0.798
				c0.16-0.371,0.241-1.082,0.241-2.134v-15.438c0-1.917-0.044-3.096-0.13-3.535c-0.087-0.438-0.226-0.738-0.418-0.899
				c-0.191-0.161-0.436-0.241-0.732-0.241c-0.322,0-0.73,0.099-1.225,0.297l-0.315-0.649l5.065-2.078H498.113z"/>
		</g>
	</g>
	<g>
		<g>
			<path fill="#25236F" d="M88.685,47.073V12.097c0-2.479,1.519-4.49,3.394-4.49h18.964c3.31-0.049,3.4,3.01,3.394,4.25l3.262,0.027
				V8.675c0-2.44-1.905-4.42-4.255-4.42H89.679c-2.35,0-4.255,1.98-4.255,4.42v34.43c0,2.09,1.424,3.758,3.3,4.219
				C88.719,47.237,88.685,47.162,88.685,47.073z"/>
			<rect x="28.09" y="228.752" fill="#0080C3" width="135" height="13.25"/>
			<rect x="28.09" y="245.252" fill="#0080C3" width="135" height="10.75"/>
			<rect x="28.09" y="259.502" fill="#0080C3" width="135" height="6.5"/>
			<rect x="28.09" y="269.252" fill="#0080C3" width="135" height="2.75"/>
			<rect x="180.34" y="162.668" fill="#0080C3" width="20" height="4.334"/>
			<rect x="182.34" y="155.168" fill="#0080C3" width="19.833" height="5"/>
			<rect x="194.34" y="147.002" fill="#0080C3" width="19.833" height="4.166"/>
			<rect x="194.34" y="141.001" fill="#0080C3" width="23" height="4.167"/>
			<rect x="194.34" y="134.168" fill="#0080C3" width="27.667" height="4.167"/>
			<rect x="194.34" y="127.668" fill="#0080C3" width="31.333" height="4.167"/>
			<rect x="194.34" y="120.668" fill="#0080C3" width="34.167" height="4.167"/>
			<rect x="194.34" y="113.835" fill="#0080C3" width="34.167" height="4.167"/>
			<rect x="188.173" y="107.001" fill="#0080C3" width="40.333" height="4.167"/>
			<rect x="188.173" y="100.501" fill="#0080C3" width="40.333" height="4.167"/>
			<rect x="178.173" y="93.334" fill="#0080C3" width="57.167" height="4.167"/>
			<rect x="172.006" y="86.501" fill="#0080C3" width="56.5" height="4.167"/>
			<rect x="170.339" y="76.918" fill="#0080C3" width="46.333" height="4.167"/>
			<rect x="170.339" y="70.084" fill="#0080C3" width="50.667" height="4.167"/>
			<rect x="170.339" y="63.917" fill="#0080C3" width="55.334" height="4.167"/>
			<rect x="170.339" y="56.751" fill="#0080C3" width="58.167" height="4.167"/>
			<rect x="170.339" y="50.084" fill="#0080C3" width="58.167" height="4.167"/>
			<rect x="98.006" y="35.834" fill="#0080C3" width="112.667" height="3.333"/>
			<rect x="98.006" y="41.813" fill="#0080C3" width="115.667" height="3.333"/>
			<rect x="98.006" y="30" fill="#0080C3" width="110.333" height="3.333"/>
			<rect x="98.006" y="23.834" fill="#0080C3" width="26.333" height="4.166"/>
			<rect x="98.006" y="17" fill="#0080C3" width="26.333" height="4.166"/>
			<rect x="136.757" y="23.834" fill="#0080C3" width="33.583" height="4.166"/>
			<rect x="136.757" y="17" fill="#0080C3" width="33.583" height="4.166"/>
			<rect x="183.339" y="23.834" fill="#0080C3" width="25" height="4.166"/>
			<rect x="183.339" y="17" fill="#0080C3" width="25" height="4.166"/>
			<rect x="172.505" y="102.584" fill="#25236F" width="12.667" height="48.583"/>
			<path fill="#25236F" d="M163.09,88.769v-0.185v-44.75h-91c-7-3.168-37.247-10.5-53.75,0C2.367,53.997,4.441,72.167,4.441,72.167
				c18.734,3.335,23.648,28.334,23.648,28.334v122.834h135v-38.559c6.54-1.021,11.544-6.574,11.544-13.289v-69.43
				C174.634,95.343,169.629,89.792,163.09,88.769z"/>
			<path fill="#F5F5F5" d="M13.533,62.868c0,0-2.451,2.277-2.451-1.05c0,0,9.272-23.63,44.463-15.932
				c37.778,8.265,78.067,36.238,96.977,68.974c0,0,1.222,4.9-3.676,2.101c0,0-45.114-47.364-85.95-59.867
				C62.895,57.094,37.333,46.591,13.533,62.868z"/>
			<path fill="#FFFFFF" d="M92.506,52.167v-2.083h64.833v61.083h-1.917C155.423,111.168,147.006,73.5,92.506,52.167z"/>
		</g>
		
			<rect x="175.339" y="106.168" fill="#FFFFFF" stroke="#000000" stroke-width="0.25" stroke-miterlimit="10" width="7" height="41.667"/>
	</g>
</g>
</svg>
