<?xml version="1.0" encoding="utf-8"?>
<!-- Generator: Adobe Illustrator 16.0.0, SVG Export Plug-In . SVG Version: 6.00 Build 0)  -->
<!DOCTYPE svg PUBLIC "-//W3C//DTD SVG 1.1//EN" "http://www.w3.org/Graphics/SVG/1.1/DTD/svg11.dtd">
<svg version="1.1" id="Pagina_inicial_Escritorio" xmlns="http://www.w3.org/2000/svg" xmlns:xlink="http://www.w3.org/1999/xlink"
	 x="0px" y="0px" width="960px" height="560px" viewBox="0 0 960 560" enable-background="new 0 0 960 560" xml:space="preserve">
<title>mundo</title>
<g id="Porque_somos_tu_mejor_elección">
	<path d="M506.937,0c-154.354,0-280,125.646-280,280s125.646,280,280,280s280.178-125.469,280.178-279.823
		C787.114,125.823,661.291,0,506.937,0z"/>
	<path d="M772.228,356.38c-3.544,0-8.506,1.772-8.506,3.013s-4.963,3.367-6.911,4.253c-1.949,0.886-4.785,5.849-5.671,7.443
		c-0.887,1.595-4.785,1.24-6.203,1.771c-1.418,0.532-4.607,3.19-4.607,4.608c0,1.417-0.886,1.24-1.772-0.354l-1.949,1.949
		l-2.481,2.658c-1.417,4.253-5.848,9.747-7.442,10.101c-1.595,0.354-1.772,7.798-1.772,10.811c-0.002,2.985,0.928,5.896,2.658,8.329
		v2.48l0.354,4.785c-0.408,2.856,0.659,5.726,2.836,7.62c0.886,0.532,7.62-1.24,10.278-1.771l3.544-1.418
		c12.384-20.953,22.032-43.405,28.709-66.811L772.228,356.38z"/>
	<path d="M309.696,363.469c-0.354,0.886,4.608,5.848,6.38,7.62c2.9,3.966,5.227,8.321,6.911,12.937c0.502,2.754,0.502,5.575,0,8.329
		c0.132,1.465,0.49,2.899,1.063,4.253c0.177,1.063-1.595,9.038-1.063,12.405s-3.899,13.469-3.544,18.785s2.481,11.696,3.19,11.342
		s1.24,4.607-0.177,5.316c-1.418,0.709-3.367,4.607-2.481,4.784c0.886,0.178,0,4.254,0.177,5.849s1.595,12.228,1.772,14.886
		c0.177,2.658,4.076,9.038,4.785,11.342c0.708,2.305,1.595,6.203,1.772,6.912l0.532,1.418c1.423,0.43,2.791,1.024,4.076,1.771
		c0.886,0.532,6.911,0.178,8.861-0.177c1.949-0.354,0.177-2.127-0.532-3.013c-0.709-0.886-1.595-5.671-2.658-6.025
		s-1.418-6.38-0.532-7.798c0.886-1.418,4.43-3.367,4.785-4.607c0.354-1.24,0.354-6.202-0.354-7.089
		c-0.708-0.886,0.177-7.088-0.354-10.278c-0.532-3.189,5.494-6.025,5.848-8.506c0.354-2.481,7.089-5.316,8.507-6.38
		c1.417-1.063,2.835-8.507,1.949-9.924c-0.886-1.418,2.481-2.836,3.899-2.836l3.544-1.063c0.354,0,2.126-3.189,3.013-3.898
		s2.835-8.329,4.431-9.393c1.664-2.024,2.709-4.485,3.012-7.089c0.7-2.324,1.843-4.49,3.367-6.379
		c0.886-1.241,7.088-4.076,8.329-4.431c1.24-0.354,2.835-10.456,3.19-14.177c0.625-3.298,1.453-6.553,2.48-9.747
		c0-1.24,1.95-2.127,2.481-2.658c0.531-0.532,1.771-4.962,2.835-6.025s4.431-5.494,4.431-6.38c0.241-1.924,0.656-3.822,1.24-5.671
		v-6.202c-1.063-3.013-4.431-6.912-5.316-5.849s-4.608-2.658-6.557-3.367c-2.597-0.74-5.275-1.157-7.975-1.24
		c-1.241,0-5.494-3.367-7.443-4.076c-2.576-0.5-5.12-1.151-7.62-1.949c-0.886-0.532-1.95-7.798-6.025-10.278
		c-4.075-2.481-10.81-7.975-11.696-10.102c-0.886-2.127-8.329-6.202-10.633-7.62s-5.848-1.595-6.203-1.063
		c-0.354,0.531-3.367-4.076-4.785-5.316s-6.025-2.127-6.203-1.24c-0.177,0.886-3.19,0.354-3.898-0.354
		c-0.708-0.708-3.013,0.354-4.253,0.886c-1.241,0.532-4.785,6.025-6.557,7.443c-1.772,1.418-3.898-1.24-4.962-1.771
		c-2.311-0.051-4.586,0.564-6.557,1.771c-1.24,0.887-3.898-6.025-3.19-9.215c0.709-3.189-2.835-9.393-5.67-9.747
		c-2.835-0.354-3.367-6.912-3.013-9.215s-4.785-4.076-6.203-4.253s-4.608,3.19-5.316,4.962c-0.708,1.772-12.937-2.126-11.519-9.747
		c1.418-7.621,7.266-15.063,8.684-15.95c1.417-0.886,9.215-1.24,10.987-0.177c1.144,0.614,2.545,0.474,3.544-0.354
		c2.924-0.224,5.865,0.076,8.684,0.886c1.772,0.886,4.608,8.329,6.557,9.038c1.949,0.709,2.658-4.785,3.013-6.203
		c-0.142-2.015-0.622-3.991-1.418-5.848c-0.354-1.063,3.19-10.101,6.203-11.519c3.013-1.417,6.203-6.557,5.848-7.443
		c-0.354-0.886,2.481-1.595,3.013-1.949s0-7.62,1.063-9.215c2.593-2.316,5.52-4.228,8.683-5.67c1.772-0.886,3.013-5.316,2.481-6.203
		s4.608-5.316,7.443-6.203c2.835-0.886,4.962,1.595,4.431,1.772l5.848-3.189c1.595-1.063,0-4.608-1.24-5.671
		c-1.241-1.063-0.354-4.785,1.063-5.316c1.415-1.021,2.216-2.688,2.127-4.431c-0.354-0.532,6.025,0.532,8.506-1.24
		c2.481-1.772,0.532,4.253-1.063,6.911c-0.883,1.293-0.55,3.058,0.744,3.94c0.51,0.348,1.12,0.521,1.737,0.49
		c1.23-0.044,2.331,0.762,2.658,1.949c0.177,0.532,2.658-0.886,4.253,0s2.658-2.126,2.658-3.544c0-1.417-3.899-4.076-4.431-5.848
		c-0.605-4.345-0.901-8.727-0.886-13.114c0-1.772-2.658-4.962-3.367-4.431c-0.708,0.532-2.481-4.962-3.898-6.202
		c-1.101-1.346-1.668-3.048-1.595-4.785c0-0.886-4.431-5.671-5.671-7.798c-1.24-2.126-2.658-1.772-2.835-0.886
		c-0.178,0.886-3.19,1.24-4.608,1.063S340,137.875,340,136.103c0-1.772-5.848-2.127-6.911-3.899s-4.785-0.886-5.494-1.772
		c-1.265-1.121-2.921-1.695-4.608-1.595c-0.532,0.354-0.354,14.354-1.063,17.899c-0.709,3.544-3.899,7.088-4.962,6.911
		c-1.063-0.177-0.354,2.658,0.178,2.481c0.532-0.177-2.126,4.076-2.658,6.911s-3.19,0-3.544-2.658s-3.19-6.025-3.899-5.316
		c-0.708,0.709-2.48-1.063-3.19-0.354c-0.709,0.709-6.025-3.012-8.329-4.253c-2.304-1.241-3.19-7.621-4.608-8.329
		s-0.177-1.418-0.177-2.481c0-1.063,4.253-4.785,5.494-6.203c2.365-3.1,4.909-6.059,7.62-8.861c1.772-1.418,3.19-4.607,2.836-5.316
		c-0.354-0.709,7.797-3.19,10.101-3.898c2.304-0.709,4.076-6.912,4.43-8.684c-0.015-2.099-0.916-4.094-2.48-5.494
		c-1.063-0.354,3.012-0.532,4.43,0.177c1.418,0.709,5.494-1.24,7.266-0.354l7.443,4.43l-0.354,4.431l-1.063,7.62
		c-6.38,2.658-8.329,7.266-6.025,7.089c2.304-0.177,12.405,4.43,15.241,6.379c2.835,1.949,3.898-3.013,4.607-4.607
		c0.699-2.432,0.699-5.011,0-7.443c-0.886-1.063,3.19-0.532,4.431,0.354c1.24,0.886,2.481-1.063,3.19-1.595s1.24-4.607,1.772-5.494
		s-1.772-1.595-1.949-2.835c-0.178-1.24-4.608-3.013-6.025-3.898c-1.382-1.023-1.831-2.891-1.063-4.431
		c0.532-0.532-0.354-4.607-1.24-5.848c-0.886-1.241-5.494-2.481-7.089-2.481s-3.19-3.544-4.253-4.253
		c-2.834-0.726-5.761-1.024-8.683-0.886c-1.418,0.354-4.253-4.431-6.912-2.835c-2.658,1.595-5.316-1.595-6.38-2.481
		c-1.063-0.886-7.266,5.848-7.088,10.278c0.177,4.431,2.126,8.861,3.19,9.038s-0.177,4.253-1.24,5.494
		c-1.063,1.24-3.544-1.241-2.658-2.126c0.886-0.886-2.658-5.848-3.899-7.621c-1.24-1.772-4.076-2.658-6.025-3.367l-3.544,4.076
		c0.615,1.765,0.738,3.665,0.354,5.494c-0.886,2.835-3.19,3.19-3.19,1.949c-0.684-0.732-1.658-1.122-2.658-1.063
		c-34.847,41.602-56.775,92.48-63.089,146.379c1.379,1.292,2.466,2.863,3.19,4.608c0.886,2.481,4.962,4.076,5.848,4.607
		c0.886,0.531,1.063-4.607,0.354-6.025c-0.709-1.418,1.063-1.949,1.063-1.24c0,0.708,4.076,5.494,5.317,7.266
		c1.24,1.772,2.658,12.228,4.076,14.532c1.418,2.303,13.469,7.088,17.544,7.797c3.76,1.219,7.125,3.422,9.747,6.38
		c0.886,1.241,6.025,1.772,7.089,2.481c1.69,1.496,3.288,3.094,4.785,4.785c0.951,0.918,1.626,2.084,1.949,3.367
		c0,0.531,6.912,3.189,8.684,4.961c1.365,1.231,3.367,1.445,4.962,0.532c0.354-0.886,1.772,3.544,2.658,5.316
		c0.886,1.772,0.886,5.316,0.178,5.849c-0.709,0.531-1.418,7.442-2.658,8.86c-1.241,1.418-3.544,11.519-3.013,13.469
		c1.103,2.652,2.948,4.93,5.316,6.557c0.769,0.429,1.045,1.4,0.615,2.17c-0.025,0.046-0.053,0.091-0.083,0.134l-0.708,0.531
		c-1.063,0-0.532,9.925,1.949,11.343C307.571,360.457,310.228,362.76,309.696,363.469z"/>
	<path d="M342.658,192.987"/>
	<path d="M323.519,74.785c3.19-0.532,8.861-1.595,9.215-2.481c0.244-1.296,0.183-2.63-0.177-3.898h1.595
		c1.24,0,3.367-6.912,4.608-8.506c1.241-1.595,8.861-4.076,10.633-4.962c1.772-0.886,5.848-4.785,7.266-5.494
		c1.417-0.709,3.898-4.076,3.367-4.607s5.316-4.076,7.266-4.785c1.949-0.709,3.19-3.19,2.481-3.367
		c-0.709-0.177-12.051,6.025-22.684,12.051c-12.153,8.394-23.7,17.632-34.557,27.646L323.519,74.785z"/>
	<path d="M526.253,423.367c3.367-1.949,9.747-10.987,11.696-12.937c1.949-1.95,3.367-8.684,3.898-10.102
		c1.065-1.793,2.596-3.263,4.431-4.253c1.063-0.354,4.607-15.241,7.797-18.785c3.19-3.544,6.911-19.14,6.38-24.987
		s1.95-16.481,2.836-19.14c1.451-3.095,3.43-5.913,5.849-8.329c4.097-5.207,7.884-10.65,11.341-16.304
		c2.481-4.076,4.785-12.937,4.254-15.063c-0.532-2.127-5.849-3.545-6.912-2.481c-1.063,1.063-6.024,1.772-7.62,1.772
		c-1.595,0-5.316-8.684-7.442-10.279c-2.127-1.595-4.253-11.696-5.671-13.468c-1.875-2.643-3.887-5.187-6.025-7.621
		c-1.24-1.063-1.418-6.202-1.595-7.62s2.126,0.886,2.658,3.013c0.531,2.126,6.202,10.456,7.975,13.291s6.557,11.874,7.797,14.709
		c1.241,2.835,11.874,1.418,15.418-0.178c3.545-1.595,7.798-4.43,7.975-5.494c0.178-1.063,5.671-3.367,7.267-4.607
		c1.595-1.241,2.835-7.621,3.898-8.684c1.063-1.063-0.887-7.266-1.95-9.038c-1.063-1.772-6.557-3.19-7.797-2.658
		s-3.367-4.076-4.431-5.848s-4.962-4.076-5.493-5.316c0-1.395,0.656-2.708,1.771-3.544c0.532-0.354,8.507,4.962,10.633,7.797
		c2.101,2.681,3.885,5.595,5.316,8.684c0.354,1.063,6.558,1.241,7.976,0.177c0.822-0.838,2.169-0.85,3.007-0.027
		c0.065,0.064,0.126,0.132,0.183,0.204l0.354,0.354h1.772l6.911-1.063c2.102,1.923,3.531,4.47,4.076,7.266
		c0.603,1.617,1.725,2.988,3.189,3.898c1.24,0.177,2.127,4.607,2.658,5.848c1.86,3.384,3.518,6.875,4.962,10.456
		c1.29,3.39,2.893,6.652,4.785,9.747c0.839,2.213,1.317,4.547,1.418,6.911c0.576,1.798,2.192,3.062,4.076,3.19
		c1.417-0.178,4.607-9.925,5.493-13.469c0.887-3.545,3.19-6.557,3.898-6.557c0.709,0,1.241-1.949,1.241-2.836
		c0-0.886,3.898-0.532,4.253-1.595c0.354-1.063,1.418-7.443,2.835-8.506c2.532-1.797,5.198-3.396,7.975-4.785
		c1.595-0.532,6.203,3.19,7.267,4.962c1.041,2.213,1.527,4.646,1.418,7.088c-0.354,0.532,2.126,4.608,4.607,4.608
		s3.013,3.013,3.19,4.075c0.177,1.064,3.189,4.254,3.898,5.672c0.489,2.038,0.489,4.164,0,6.202
		c-0.23,2.479-0.171,4.978,0.177,7.442c0.354,1.418,7.621,8.861,10.456,10.988c2.835,2.126,4.076-4.608,2.658-6.558
		s-6.202-7.089-7.267-8.507c-1.063-1.417-1.24-7.442-0.886-9.037c0.354-1.596,4.253,0.886,5.671,1.949
		c1.551,1.213,2.77,2.798,3.544,4.607c0,0.887,9.925-4.607,10.279-10.455c0.354-5.849,3.544-12.76,3.898-14.355
		c0.154-1.524-0.522-3.013-1.772-3.898c-0.886-0.177,1.418-4.431,4.253-4.431s9.216-7.266,10.811-10.278
		c1.337-2.146,3.013-4.061,4.962-5.671c1.354-3.239,2.306-6.631,2.836-10.101c0.354-2.835-1.595-7.266-1.772-8.861
		c-0.785-2.089-1.858-4.057-3.189-5.848c-0.77-1.848-1.074-3.856-0.887-5.848c0.178-0.532,2.836-1.418,3.013-2.126
		c0.177-0.709,3.013-3.544,2.836-4.962c-0.177-1.417,1.595,1.772,3.013,2.835s2.658,8.329,4.253,8.861s7.975-7.443,7.266-12.937
		c-0.709-5.494,1.772-12.228,3.367-12.937s4.253-4.785,6.202-7.798c-14.292-41.085-37.955-78.278-69.113-108.633h-1.063
		l-2.481-0.354c-4.076-0.886-6.202-4.962-5.671-6.025c0.203-0.573,0.203-1.199,0-1.772c-2.126-1.949-4.43-4.076-6.911-5.848h-4.962
		c-2.986-0.301-5.88-1.205-8.506-2.658c-0.887-0.886-4.076,0.886-4.254,2.658c-0.177,1.772-5.67,2.481-6.024,3.898
		c-0.931,1.174-2.553,1.543-3.899,0.886c-0.354-0.886-5.67,1.772-7.975,1.949c-2.88,0.608-5.676,1.56-8.328,2.835
		c-1.745,1.047-3.206,2.508-4.254,4.253c-1.287,1.383-2.859,2.471-4.607,3.19c-1.063,0.354-0.886,4.962,0.354,5.848
		s-2.48-0.532-4.253-1.418c-1.772-0.886-3.367,1.95-4.076,3.013c-0.709,1.063-1.949-0.532-1.949-1.949s-4.253-2.481-4.608-1.418
		c-0.354,1.063-3.366-0.354-4.607-1.063c-1.241-0.709-6.38,4.785-8.507,6.911c-2.126,2.127-11.341,3.367-12.937,2.835
		c-1.595-0.532-3.367,4.076-1.949,4.43h-5.671c-4.647,1.002-9.124,2.673-13.291,4.962c-0.872,0.786-2.217,0.717-3.004-0.156
		c-0.314-0.349-0.505-0.793-0.541-1.262c0-1.24-3.189-2.126-4.075-2.481c-0.887-0.354-2.836,6.203-4.431,7.443
		c-1.595,1.241-3.545-4.962-7.62-6.203c-4.076-1.24-10.102-4.785-11.874-5.316c-1.771-0.532-5.316-4.076-6.202-5.316
		c-0.886-1.24-6.025-1.772-7.62-1.772c-1.596,0-6.911,3.013-8.329,4.076s-3.367,0.886-4.253,1.417l-8.861,7.798
		c-2.126,1.772-6.202,9.392-7.442,11.519c-0.872,1.306-2.329,2.1-3.899,2.127c-0.853,0.702-1.367,1.732-1.417,2.835
		c0,0.886-6.558,4.253-7.443,7.266c-0.886,3.012,0.886,10.101,0.886,12.405c0,2.304,2.481,7.443,4.254,7.443
		c1.771,0,1.063,4.253,0.354,5.494c-0.709,1.241,1.24,2.481,1.063,3.367c-0.177,0.886-4.607,2.481-6.024,2.835
		c-1.862,1.167-3.294,2.909-4.076,4.962c-0.178,1.063-4.608,1.772-6.203,3.19c0.313-1.1,0.729-2.168,1.24-3.19
		c0.477-1.729,0.08-3.581-1.063-4.962c-0.532-0.532-1.063-8.684-2.127-10.456c-1.396-1.889-2.936-3.667-4.607-5.316
		c-0.532-0.532,0.354-2.658,1.063-3.544c0.709-0.886-3.899-1.418-4.785-0.886s-1.772,8.684-2.126,10.81
		c-0.029,2.238,1.027,4.352,2.835,5.671c0.887,0.177,0.354,4.076-1.063,4.253s-2.835,5.848-1.949,7.266s-1.063,3.898-1.772,4.431
		c-0.708,0.531,5.671,0.177,8.684,0.177c1.767-0.104,3.517,0.396,4.962,1.418c-0.177,0.177-5.671,1.063-6.557,2.126
		c-0.886,1.063-4.607,3.544-5.316,4.607c-0.709,1.063,1.24,3.013,2.658,3.013s3.189,5.316,4.431,6.203
		c0.916,1.382,0.984,3.159,0.177,4.607c-0.354,0.886-7.797-0.354-10.455,0.177s-6.203,6.38-6.38,8.684
		c-0.015,3.446,0.282,6.886,0.886,10.278c0.178,1.772,6.025,2.835,7.266,3.544c1.241,0.709,6.558,0,7.798,0.532
		s4.784-5.671,5.671-8.506c0.886-2.835,6.557-7.975,7.797-10.101s7.443-1.595,9.038-2.658c1.596-1.063,0.887,4.785,1.418,7.975
		c0.532,3.19,6.911,2.835,5.849-0.177c-1.063-3.013,0.531-4.253,0.886-3.19c0.354,1.063,6.025,3.367,7.266,4.962
		c1.241,1.595,0.887,5.317-0.354,5.317c-1.241,0-1.418,3.898,0,4.43c1.417,0.532,3.189-4.43,4.607-5.316s2.658-3.899,1.949-4.076
		c-0.708-0.177,1.24-3.013,1.95-1.949c-1.477-3.091-3.386-5.955-5.671-8.506c-2.658-2.658-0.532-1.418,3.898,2.481l3.189,4.43
		c0.532,0.886,1.418,3.19,1.95,4.076l0.886,1.24c0.674,2.31,1.09,4.688,1.24,7.089c0.577,1.798,2.192,3.063,4.076,3.19
		c0.926-0.164,1.869,0.173,2.481,0.886c-0.178,0.177,1.063,3.012,2.48,3.012c1.417,0,2.126-3.898,0.531-3.898
		s-1.24-5.671-1.417-8.329c-0.178-2.658,1.063-4.43,1.595-4.43s0,4.962,0,6.203c0.25,1.709,0.727,3.378,1.417,4.962l1.595,1.24
		l3.367,2.658c4.962-1.417,11.873-0.177,11.52,0.886c-0.354,1.063,3.544,1.24,3.898-0.354s0.354,0.177,0.354,1.241
		c0,1.063-3.19,5.671-3.899,7.62c-0.708,1.95-12.228,0.532-17.367,0.177c-5.139-0.354-12.404,1.24-12.937,2.835
		c-0.531,1.595-8.329-3.367-11.873-4.785s-6.38-6.912-7.089-7.621c-0.709-0.708,0.532-2.481,0.178-3.544
		c-0.354-1.063-8.507-1.241-10.811-0.354s-14.709,2.126-17.544,3.367s-7.267,0-8.684-0.177s-4.607,3.898-6.202,4.43
		s-3.545,6.38-4.608,12.76l-2.126,4.253l-1.418,2.835c-4.076,3.013-8.507,13.291-9.924,15.417
		c-1.418,2.126-2.481,16.835-2.481,21.975s4.253,15.417,5.671,18.607s8.684,9.215,11.342,10.811
		c2.658,1.595,10.633,1.771,13.291,1.771c3.132-0.389,5.72-2.628,6.557-5.671l3.898,0.354h1.772c0,2.127,5.849,3.898,7.267,4.607
		c2.041,0.538,4.194,0.477,6.202-0.177c1.063-0.178,2.48,9.924,1.595,12.937s1.949,13.291,2.836,16.481
		c0.886,3.189,4.43,11.696,4.607,14.709s-1.949,13.291-2.48,16.835c-0.531,3.545,4.43,13.469,5.671,16.836
		c1.125,4.053,1.837,8.209,2.126,12.405c0,1.595,5.316,12.05,6.38,16.304C507.646,422.48,522.531,425.494,526.253,423.367z"/>
	<path d="M756.811,296.127c0.177,0.886,3.544-1.772,5.67-2.127c2.127-0.354,3.19-5.67,1.595-6.025
		c-1.595-0.354-3.366-4.607-4.607-4.962s-3.189,1.772-3.189,3.367s-3.545,2.126-4.431,3.544c-0.887,1.418-0.532,2.127,0,2.127
		C753.728,293.108,755.407,294.488,756.811,296.127z"/>
	<path d="M752.911,325.722c1.063-0.354,0-5.671-2.126-6.025c-2.127-0.354-7.798,7.089-6.911,11.342
		c0.886,4.253,2.126,4.076,2.835,3.013s4.076,0.531,4.963,0.886c0.886,0.354,1.063-0.531,0-2.126
		C750.607,331.216,751.848,326.253,752.911,325.722z"/>
	<path d="M741.393,320.582c0.177-1.771,0.531-7.797,0.886-9.038c0.354-1.24-3.189-4.607-4.962-5.316
		c-1.772-0.708-7.266,11.52-11.342,13.646c-4.075,2.127-5.494,9.747-4.431,11.342c1.063,1.596,9.393,2.658,10.811,3.899
		c1.418,1.24,3.013-0.178,4.076-0.354c1.063-0.178,0.532-0.887,0.178-1.063c-0.354-0.178,2.835-3.544,3.366-5.849
		C740.609,325.46,741.082,323.033,741.393,320.582z"/>
	<path d="M718.354,340.962c-3.013-1.24-6.911,0.532-7.089,1.772c-0.177,1.24,12.051,3.189,16.304,4.253s6.557,1.418,5.849,0.886
		L718.354,340.962z"/>
	<path d="M744.051,259.443c1.063-1.417-1.418-7.797-2.658-6.379c-1.24,1.417-0.178,5.316,0,6.557
		C741.569,260.86,742.987,260.861,744.051,259.443z"/>
	<path d="M751.316,273.443c0.886-1.595-0.887-3.367-3.545-4.076c-2.658-0.709-2.126,7.443-1.063,8.506
		C747.771,278.937,750.607,275.038,751.316,273.443z"/>
	<path d="M765.493,323.772c3.19,2.126,10.456,1.24,10.633-3.013C772.937,318.633,765.316,318.987,765.493,323.772z"/>
	<path d="M763.722,224c-1.242,1.039-1.848,2.654-1.595,4.253h-0.532c-1.063,0-1.24,4.253,0,4.962s3.898-3.19,5.316-4.253
		c1.34-0.947,2.974-1.387,4.607-1.24c1.925-0.132,3.798-0.676,5.494-1.595c0.673-0.447,1.222-1.056,1.595-1.772
		c-0.531-3.013-1.418-6.025-1.949-9.215l-3.545,2.658L763.722,224z"/>
	<path d="M689.646,310.127"/>
	<path d="M709.848,328.911c-2.225-3.786-5.104-7.146-8.506-9.924l-1.24-2.126l-1.418-2.481c-1.24-2.658-5.316-4.607-5.671-5.493
		c-0.354-0.887-1.595,2.126-3.013,1.417l4.253,3.013c3.544,2.658,10.811,20.912,12.76,22.152S710.911,331.393,709.848,328.911z"/>
	<path d="M652.076,299.316c-1.064,1.949,5.316,6.38,5.848,5.494c0.083-2.482-0.531-4.938-1.772-7.089
		C654.734,296.48,653.139,297.189,652.076,299.316z"/>
	<path d="M567.367,396.607c0.177,2.127,4.607,3.898,5.848,3.367s4.785-6.911,5.316-8.684c0.497-2.279,0.852-4.588,1.063-6.911
		c0.125-1.183,0.487-2.328,1.063-3.367c0.891-1.468,1.492-3.092,1.772-4.785c0.354-2.48-2.658-13.822-2.658-15.949
		c0-2.126-2.127,1.063-2.836,3.013s-6.202,6.202-7.62,7.798c-1.418,1.595-2.658,7.442-1.949,8.506
		c0.132,2.064-0.232,4.131-1.063,6.025C565.418,387.038,567.013,394.658,567.367,396.607z"/>
	<path d="M361.088,476.354h3.899C365.341,472.102,360.911,472.811,361.088,476.354z"/>
	<path d="M463.696,42.709c-2.214,0.081-4.41-0.407-6.38-1.418c-2.784-1.007-5.799-1.191-8.684-0.532
		c-1.772,0.886-0.532-4.43,1.771-4.785c2.305-0.354,0.354-4.076-2.126-4.076c-2.481,0-9.215-1.063-10.633-0.532
		c-1.931-0.201-3.833-0.617-5.671-1.24c-1.063-0.177-9.038,2.481-12.76,2.126c-4.978-0.138-9.959,0.158-14.886,0.886
		c-1.949,0.354-3.367,4.43-3.013,5.848s-8.86,1.418-11.696,1.418c-2.835,0-18.253,3.19-22.329,5.493
		c-4.076,2.304-7.089,7.798-5.848,7.798c1.24,0-2.126,3.19-4.431,4.076c-2.304,0.886-7.266,1.063-8.506,2.126
		c-1.24,1.063,1.241,1.949,1.595,2.835c0.354,0.886,1.772-0.532,3.19,0.177c1.418,0.709,5.848,1.063,7.089,1.595
		c1.24,0.532-3.899,1.417-6.025,1.595s-1.772,4.608,0,5.494c1.772,0.886,6.912,1.241,7.266,0.354
		c0.355-0.886,5.848,0.886,8.329,1.24c2.481,0.354,4.253,6.203,4.962,7.621c0.709,1.417,0.886,5.848,0.886,7.266
		s4.253,3.544,4.962,2.835c0.709-0.709,0.532,1.949-1.24,1.772c-1.772-0.177-0.532,4.785,1.595,5.671
		c2.126,0.886,0.532,3.899-0.532,4.785c-1.063,0.886-0.532,3.899-1.772,4.962c-1.241,1.063,4.607,11.342,4.43,16.481
		s3.19,9.393,4.431,9.393c1.24,0,5.494,1.063,6.025,2.126c0.531,1.063,2.659-0.886,3.367-1.595c1.424-1.801,2.727-3.696,3.898-5.67
		c1.418-2.126,4.254-12.76,4.608-13.823s5.316-0.354,6.38-1.063l5.316-3.899c0.886-0.886,7.797-3.544,9.924-4.962
		s4.963-7.266,6.558-8.684s-0.887-0.886-2.658-1.949c-0.928-0.54-1.245-1.729-0.709-2.658l0.354-0.532
		c0.354-0.532,6.202,0.886,7.975,1.595c1.771,0.709,5.671-1.772,4.253-2.835c-1.418-1.063-0.532-1.063,0-0.532
		c0.531,0.532,1.418-3.367,0.886-4.253c-0.531-0.886,5.671-5.494,4.607-9.924c-1.063-4.43,1.596-9.038,3.367-9.038
		c1.772,0,1.24-4.962-1.063-5.494c-2.304-0.532,0-0.886,0.887-1.595c0.898-1.877,1.324-3.946,1.24-6.025
		c-0.354-0.886,3.189-1.772,3.898-2.835c1.828-1.476,3.938-2.562,6.202-3.19C464.228,46.785,465.113,42.709,463.696,42.709z"/>
	<path d="M500.025,46.785c-1.95-0.532-6.025,1.595-5.494,2.835s-3.19-1.595-5.849-0.177c-2.658,1.418-3.366,6.025-2.126,6.557
		c1.24,0.531,1.949,4.253,1.949,4.962s4.962,0.177,6.38-0.886c1.418-1.063,1.063,3.544-0.177,4.962
		c-1.241,1.418,0.354,3.898,1.771,4.076c1.418,0.177,3.19,3.367,4.785,3.367s4.076-5.67,4.43-7.62
		c0.354-1.95,5.494-0.354,7.621,0.177c2.126,0.531,3.013-7.621,0.531-9.038c-2.48-1.417-5.494-0.532-6.38-1.595
		c-1.082-1.016-2.437-1.693-3.898-1.95C503.038,52.456,501.975,47.316,500.025,46.785z"/>
	<path display="none" d="M519.519,50.861c3.403-0.007,6.685-1.269,9.215-3.544c1.063-0.886-10.81-3.19-15.417-3.367
		s-7.975,0.354-7.975,1.418S515.797,50.152,519.519,50.861z"/>
	<path d="M447.393,157.721c-1.063-0.354-1.596,3.367-1.418,4.785c0.177,1.417,3.898,1.417,5.493,1.063
		c1.427-0.234,2.518-1.397,2.658-2.835c0-1.24-2.126-7.088-3.012-7.088C450.228,153.646,448.455,158.076,447.393,157.721z"/>
	<path d="M459.089,112c-0.887-1.418-6.911-1.24-8.507-1.24c-2.503-0.455-4.903-1.355-7.089-2.658
		c-1.063-1.063-1.417,3.898-2.835,4.43s0.886,1.418,1.24,1.063c0.354-0.355,0,2.481-0.887,3.367
		c-0.886,0.886,4.076,1.595,4.608,3.19c0.814,1.548,2.525,2.403,4.253,2.126c1.772-0.177,5.494-2.126,6.911-2.481
		C458.201,119.443,459.975,113.595,459.089,112z"/>
	<path d="M589.342,76.557c1.949-1.95,10.811-4.962,11.873-7.266c0.787-1.354,0.328-3.089-1.024-3.876
		c-0.014-0.007-0.026-0.015-0.039-0.022h-0.354c-0.884,0.134-1.663,0.653-2.126,1.418c-0.178,0.354-10.278,2.658-13.291,4.253
		c-2.816,1.286-5.44,2.956-7.798,4.962c-1.24,1.24-3.367,11.342-4.076,12.228c-0.709,0.886,3.19,4.962,4.963,6.203
		c1.59,0.571,3.307,0.693,4.962,0.354c0.886-0.177-0.887-7.089-1.772-9.393S587.393,78.861,589.342,76.557z"/>
	<path d="M578.709,50.684c3.189,3.19,4.962-1.418,8.684-1.063C587.393,42.709,578.354,45.367,578.709,50.684z"/>
	<path d="M642.86,52.101c0,1.241,9.038,2.126,11.874,1.595c2.835-0.532-0.532-4.607-4.431-4.431
		C646.405,49.443,642.86,50.861,642.86,52.101z"/>
	<path d="M307.924,120.506c-1.063,0.886,0,5.494,1.595,5.494s4.785-6.912,7.089-5.494c2.304,1.417,3.898,1.772,3.367,1.24
		s-6.911-3.367-7.62-4.076C311.645,116.962,308.987,119.62,307.924,120.506z"/>
	<path d="M331.494,274.329c0,0.886,4.076,0.532,4.608-0.532c0.531-1.063,0.177-2.126-0.886-2.126
		C333.689,272.066,332.363,273.014,331.494,274.329z"/>
	<path d="M313.595,267.595c1.772-0.354,1.063,2.658,1.418,3.899c0.354,1.24,4.962,1.949,6.025,2.835
		c1.063,0.886,3.19-1.418,4.962-1.241c1.772,0.177-0.532-6.379-3.544-6.203c-3.013,0.177-5.494-2.835-6.203-3.19
		c-1.867-0.896-3.647-1.964-5.316-3.19c-1.063-0.886-8.861-1.417-11.519-1.417c-2.431,0.241-4.634,1.537-6.025,3.544
		c-0.354,0.886,4.253,1.595,5.494,0.886s7.443,0.886,8.861,2.126C309.323,267.109,311.455,267.82,313.595,267.595z"/>
	<path d="M305.088,274.329c0,0.886,4.076,0.177,4.962,0.177s1.063-0.886,0-1.418S305.088,273.443,305.088,274.329z"/>
	<path display="none" d="M307.924,253.417c-1.063-0.354-1.772,1.241-1.772,1.95c-0.006,0.718,0.527,1.328,1.24,1.417
		C308.101,256.785,309.164,253.772,307.924,253.417z"/>
	<path display="none" d="M316.607,253.949c-0.614-0.865-1.599-1.39-2.658-1.417c-0.532,0-0.886,1.24-0.886,3.012
		C313.063,257.316,316.785,254.658,316.607,253.949z"/>
	<path d="M322.633,263.342c1.595-0.886,1.772-2.658,0.886-2.658c-0.886,0-2.836-2.835-3.899-3.19s-1.772,1.772-1.772,2.658
		c-0.104,0.677,0.361,1.311,1.038,1.414c0.008,0.001,0.017,0.002,0.025,0.004h0.177
		C319.797,261.392,321.038,264.228,322.633,263.342z"/>
	<path d="M777.898,327.494c-0.886,0.354-4.785,0.886-5.494,0.177s-1.24,1.595-2.126,1.949c-0.419,0.412-0.423,1.086-0.011,1.504
		c0.279,0.283,0.693,0.387,1.074,0.269c1.418-0.532,4.784,1.595,7.797,3.544c0.532-3.013,1.24-6.202,1.595-9.393L777.898,327.494z"
		/>
	<path d="M309.696,363.469c-0.354,0.886,4.608,5.848,6.38,7.62c2.9,3.966,5.227,8.321,6.911,12.937c0.502,2.754,0.502,5.575,0,8.329
		c0.132,1.465,0.49,2.899,1.063,4.253c0.177,1.063-1.595,9.038-1.063,12.405s-3.899,13.469-3.544,18.785s2.481,11.696,3.19,11.342
		s1.24,4.607-0.177,5.316c-1.418,0.709-3.367,4.607-2.481,4.784c0.886,0.178,0,4.254,0.177,5.849s1.595,12.228,1.772,14.886
		c0.177,2.658,4.076,9.038,4.785,11.342c0.708,2.305,1.595,6.203,1.772,6.912l0.532,1.418c1.423,0.43,2.791,1.024,4.076,1.771
		c0.886,0.532,6.911,0.178,8.861-0.177c1.949-0.354,0.177-2.127-0.532-3.013c-0.709-0.886-1.595-5.671-2.658-6.025
		s-1.418-6.38-0.532-7.798c0.886-1.418,4.43-3.367,4.785-4.607c0.354-1.24,0.354-6.202-0.354-7.089
		c-0.708-0.886,0.177-7.088-0.354-10.278c-0.532-3.189,5.494-6.025,5.848-8.506c0.354-2.481,7.089-5.316,8.507-6.38
		c1.417-1.063,2.835-8.507,1.949-9.924c-0.886-1.418,2.481-2.836,3.899-2.836l3.544-1.063c0.354,0,2.126-3.189,3.013-3.898
		s2.835-8.329,4.431-9.393c1.664-2.024,2.709-4.485,3.012-7.089c0.7-2.324,1.843-4.49,3.367-6.379
		c0.886-1.241,7.088-4.076,8.329-4.431c1.24-0.354,2.835-10.456,3.19-14.177c0.625-3.298,1.453-6.553,2.48-9.747
		c0-1.24,1.95-2.127,2.481-2.658c0.531-0.532,1.771-4.962,2.835-6.025s4.431-5.494,4.431-6.38c0.241-1.924,0.656-3.822,1.24-5.671
		v-6.202c-1.063-3.013-4.431-6.912-5.316-5.849s-4.608-2.658-6.557-3.367c-2.597-0.74-5.275-1.157-7.975-1.24
		c-1.241,0-5.494-3.367-7.443-4.076c-2.576-0.5-5.12-1.151-7.62-1.949c-0.886-0.532-1.95-7.798-6.025-10.278
		c-4.075-2.481-10.81-7.975-11.696-10.102c-0.886-2.127-8.329-6.202-10.633-7.62s-5.848-1.595-6.203-1.063
		c-0.354,0.531-3.367-4.076-4.785-5.316s-6.025-2.127-6.203-1.24c-0.177,0.886-3.19,0.354-3.898-0.354
		c-0.708-0.708-3.013,0.354-4.253,0.886c-1.241,0.532-4.785,6.025-6.557,7.443c-1.772,1.418-3.898-1.24-4.962-1.771
		c-2.311-0.051-4.586,0.564-6.557,1.771c-1.24,0.887-3.898-6.025-3.19-9.215c0.709-3.189-2.835-9.393-5.67-9.747
		c-2.835-0.354-3.367-6.912-3.013-9.215s-4.785-4.076-6.203-4.253s-4.608,3.19-5.316,4.962c-0.708,1.772-12.937-2.126-11.519-9.747
		c1.418-7.621,7.266-15.063,8.684-15.95c1.417-0.886,9.215-1.24,10.987-0.177c1.144,0.614,2.545,0.474,3.544-0.354
		c2.924-0.224,5.865,0.076,8.684,0.886c1.772,0.886,4.608,8.329,6.557,9.038c1.949,0.709,2.658-4.785,3.013-6.203
		c-0.142-2.015-0.622-3.991-1.418-5.848c-0.354-1.063,3.19-10.101,6.203-11.519c3.013-1.417,6.203-6.557,5.848-7.443
		c-0.354-0.886,2.481-1.595,3.013-1.949s0-7.62,1.063-9.215c2.593-2.316,5.52-4.228,8.683-5.67c1.772-0.886,3.013-5.316,2.481-6.203
		s4.608-5.316,7.443-6.203c2.835-0.886,4.962,1.595,4.431,1.772l5.848-3.189c1.595-1.063,0-4.608-1.24-5.671
		c-1.241-1.063-0.354-4.785,1.063-5.316c1.415-1.021,2.216-2.688,2.127-4.431c-0.354-0.532,6.025,0.532,8.506-1.24
		c2.481-1.772,0.532,4.253-1.063,6.911c-0.883,1.293-0.55,3.058,0.744,3.94c0.51,0.348,1.12,0.521,1.737,0.49
		c1.23-0.044,2.331,0.762,2.658,1.949c0.177,0.532,2.658-0.886,4.253,0s2.658-2.126,2.658-3.544c0-1.417-3.899-4.076-4.431-5.848
		c-0.605-4.345-0.901-8.727-0.886-13.114c0-1.772-2.658-4.962-3.367-4.431c-0.708,0.532-2.481-4.962-3.898-6.202
		c-1.101-1.346-1.668-3.048-1.595-4.785c0-0.886-4.431-5.671-5.671-7.798c-1.24-2.126-2.658-1.772-2.835-0.886
		c-0.178,0.886-3.19,1.24-4.608,1.063S340,137.875,340,136.103c0-1.772-5.848-2.127-6.911-3.899s-4.785-0.886-5.494-1.772
		c-1.265-1.121-2.921-1.695-4.608-1.595c-0.532,0.354-0.354,14.354-1.063,17.899c-0.709,3.544-3.899,7.088-4.962,6.911
		c-1.063-0.177-0.354,2.658,0.178,2.481c0.532-0.177-2.126,4.076-2.658,6.911s-3.19,0-3.544-2.658s-3.19-6.025-3.899-5.316
		c-0.708,0.709-2.48-1.063-3.19-0.354c-0.709,0.709-6.025-3.012-8.329-4.253c-2.304-1.241-3.19-7.621-4.608-8.329
		s-0.177-1.418-0.177-2.481c0-1.063,4.253-4.785,5.494-6.203c2.365-3.1,4.909-6.059,7.62-8.861c1.772-1.418,3.19-4.607,2.836-5.316
		c-0.354-0.709,7.797-3.19,10.101-3.898c2.304-0.709,4.076-6.912,4.43-8.684c-0.015-2.099-0.916-4.094-2.48-5.494
		c-1.063-0.354,3.012-0.532,4.43,0.177c1.418,0.709,5.494-1.24,7.266-0.354l7.443,4.43l-0.354,4.431l-1.063,7.62
		c-6.38,2.658-8.329,7.266-6.025,7.089c2.304-0.177,12.405,4.43,15.241,6.379c2.835,1.949,3.898-3.013,4.607-4.607
		c0.699-2.432,0.699-5.011,0-7.443c-0.886-1.063,3.19-0.532,4.431,0.354c1.24,0.886,2.481-1.063,3.19-1.595s1.24-4.607,1.772-5.494
		s-1.772-1.595-1.949-2.835c-0.178-1.24-4.608-3.013-6.025-3.898c-1.382-1.023-1.831-2.891-1.063-4.431
		c0.532-0.532-0.354-4.607-1.24-5.848c-0.886-1.241-5.494-2.481-7.089-2.481s-3.19-3.544-4.253-4.253
		c-2.834-0.726-5.761-1.024-8.683-0.886c-1.418,0.354-4.253-4.431-6.912-2.835c-2.658,1.595-5.316-1.595-6.38-2.481
		c-1.063-0.886-7.266,5.848-7.088,10.278c0.177,4.431,2.126,8.861,3.19,9.038s-0.177,4.253-1.24,5.494
		c-1.063,1.24-3.544-1.241-2.658-2.126c0.886-0.886-2.658-5.848-3.899-7.621c-1.24-1.772-4.076-2.658-6.025-3.367l-3.544,4.076
		c0.615,1.765,0.738,3.665,0.354,5.494c-0.886,2.835-3.19,3.19-3.19,1.949c-0.684-0.732-1.658-1.122-2.658-1.063l-3.544,4.607
		l-3.544,4.607l-3.544,4.962l-3.19,4.43l-4.607,6.912l-4.253,6.557c-1.24,1.772-2.126,3.899-3.367,5.848
		c-0.846,1.283-1.559,2.648-2.126,4.076l-3.367,6.203l-1.772,3.544c-2.481,4.785-4.785,9.924-7.088,15.063v0.354l-3.013,7.62
		l-1.241,2.835l-2.835,7.797l-0.354,1.241c-3.058,8.899-5.66,17.95-7.797,27.114c-0.178,0.532-0.178,1.241-0.354,1.772
		c-2.187,9.768-3.843,19.647-4.962,29.595l0,0c1.379,1.292,2.466,2.862,3.19,4.607c0.886,2.481,4.962,4.076,5.848,4.607
		c0.886,0.532,1.063-4.607,0.354-6.025c-0.709-1.418,1.063-1.95,1.063-1.241s4.076,5.494,5.316,7.266
		c1.241,1.772,2.658,12.228,4.076,14.532s13.469,7.089,17.544,7.797c3.76,1.219,7.125,3.422,9.747,6.38
		c0.886,1.24,6.025,1.772,7.089,2.481c1.69,1.496,3.288,3.094,4.785,4.784c0.951,0.919,1.626,2.085,1.949,3.367
		c0,0.532,6.911,3.19,8.684,4.962c1.365,1.231,3.367,1.445,4.962,0.532c0.354-0.886,1.772,3.544,2.658,5.316
		c0.886,1.772,0.886,5.316,0.178,5.848c-0.709,0.532-1.418,7.443-2.659,8.861c-1.24,1.418-3.544,11.519-3.012,13.468
		c1.102,2.653,2.948,4.931,5.316,6.558c0.769,0.429,1.045,1.4,0.615,2.17c-0.025,0.046-0.053,0.091-0.083,0.134l-0.709,0.531
		c-1.063,0-0.532,9.924,1.95,11.342S310.228,362.76,309.696,363.469z"/>
	<line fill="none" x1="342.658" y1="192.81" x2="342.658" y2="192.81"/>
	<path display="none" d="M323.519,74.785c3.19-0.532,8.861-1.595,9.215-2.481c0.244-1.296,0.183-2.63-0.177-3.898h1.595
		c1.24,0,3.367-6.912,4.608-8.506c1.241-1.595,8.861-4.076,10.633-4.962c1.772-0.886,5.848-4.785,7.266-5.494
		c1.417-0.709,3.898-4.076,3.367-4.607s5.316-4.076,7.266-4.785c1.949-0.709,3.19-3.19,2.481-3.367
		c-0.709-0.177-12.051,6.025-22.684,12.051h-0.178l-9.038,6.38l-5.848,4.607l-3.013,2.481l-6.911,5.848l-1.418,1.24l-7.443,6.557
		L323.519,74.785z"/>
	<path display="none" d="M500.734,211.417c-1.24,0-1.418,3.899,0,4.431s2.126-2.126,3.366-3.899v-15.417h-0.177
		c-1.595-1.595-1.418-1.595,0.177-0.354v-96.05l-3.544,3.19c-2.127,1.772-6.202,9.393-7.443,11.519
		c-0.871,1.306-2.328,2.1-3.898,2.126c-0.853,0.702-1.368,1.732-1.418,2.835c0,0.886-6.557,4.253-7.442,7.266
		s0.886,10.101,0.886,12.405c0,2.304,2.481,7.443,4.253,7.443c1.772,0,1.063,4.253,0.354,5.494c-0.709,1.24,1.24,2.481,1.063,3.367
		c-0.177,0.886-4.607,2.481-6.025,2.835c-1.862,1.167-3.293,2.909-4.076,4.962c-0.177,1.063-4.607,1.772-6.202,3.19
		s1.063-2.481,1.24-3.19c0.477-1.729,0.08-3.581-1.063-4.962c-0.531-0.532-1.063-8.684-2.126-10.456
		c-1.396-1.889-2.937-3.667-4.608-5.316c-0.886-0.532,0.354-2.658,1.063-3.544c0.709-0.886-3.898-1.417-4.784-0.886
		s-1.772,8.684-2.127,10.81c-0.028,2.238,1.028,4.351,2.836,5.671c0.886,0.177,0.354,4.076-1.063,4.253s-2.836,5.848-1.949,7.266
		c0.886,1.418-1.063,3.899-1.772,4.431s5.671,0.177,8.684,0.177c1.767-0.104,3.517,0.396,4.962,1.417
		c-0.178,0.177-5.671,1.063-6.557,2.126c-0.887,1.063-4.608,3.544-5.316,4.608c-0.709,1.063,1.24,3.012,2.658,3.012
		s3.189,5.317,4.43,6.203c0.917,1.382,0.985,3.16,0.178,4.608c-0.354,0.886-7.797-0.354-10.455,0.177
		c-2.658,0.532-6.203,6.38-6.381,8.684c-0.019,3.446,0.277,6.887,0.887,10.279c0.178,1.595,6.025,2.835,7.266,3.544
		c1.241,0.708,6.557,0,7.798,0.532c1.24,0.532,4.784-5.671,5.671-8.507c0.886-2.835,6.557-7.975,7.797-10.101
		s7.443-1.595,9.038-2.658c1.596-1.063,0.886,4.785,1.418,7.975c0.531,3.19,6.911,2.835,5.848-0.177
		c-1.063-3.013,0.532-4.253,0.887-3.19c0.354,1.063,6.025,3.367,7.266,4.962C503.57,206.101,501.975,211.417,500.734,211.417z"/>
	<path display="none" d="M504.278,230.557l-3.013-1.418c-3.544-1.418-6.38-6.912-7.089-7.62c-0.708-0.709,0.532-2.481,0.178-3.544
		s-8.507-1.24-10.811-0.354c-2.304,0.886-14.709,2.126-17.544,3.367s-7.266,0-8.684-0.177c-1.417-0.177-4.607,3.899-6.202,4.431
		s-3.544,6.379-4.607,12.759l-2.127,4.253l-1.418,2.835c-4.076,3.013-8.506,13.292-9.924,15.418s-2.481,16.835-2.481,21.974
		c0,5.14,4.254,15.418,5.671,18.607c1.418,3.19,8.684,9.216,11.342,10.811s10.633,1.772,13.291,1.772
		c3.132-0.39,5.721-2.628,6.558-5.671l3.898,0.354h1.771c0,2.126,5.849,3.898,7.267,4.607c2.042,0.538,4.194,0.477,6.202-0.177
		c1.063-0.178,2.481,9.924,1.595,12.937c-0.886,3.013,1.95,13.291,2.836,16.48c0.886,3.19,4.431,11.696,4.607,14.709
		c0.178,3.014-1.949,13.292-2.48,16.836s4.431,13.468,5.671,16.835c1.125,4.053,1.837,8.209,2.126,12.405
		c0.689,2.515,1.64,4.949,2.836,7.266v-180.05l0,0L504.278,230.557z"/>
	<path display="none" d="M361.088,476.354h3.899C365.341,472.102,360.911,472.811,361.088,476.354z"/>
	<path display="none" d="M438.354,93.215c1.949,0.886,5.671-1.772,4.253-2.835s-0.531-1.063,0-0.532s1.418-3.367,0.886-4.253
		c-0.531-0.886,5.671-5.494,4.608-9.924c-1.063-4.43,1.771-9.038,3.366-9.038s1.241-4.962-1.063-5.494
		c-2.304-0.531,0-0.886,0.887-1.595c0.898-1.877,1.324-3.946,1.24-6.025c-0.354-0.886,3.189-1.772,3.898-2.835
		c1.804-1.513,3.923-2.603,6.203-3.19c1.595-0.177,2.126-4.253,0.886-4.076c-2.213,0.081-4.41-0.407-6.38-1.417
		c-0.887-0.886-6.911-1.418-8.684-0.886s-0.531-4.43,1.772-4.785s0.354-4.076-2.127-4.076c-2.48,0-9.215-1.063-10.633-0.532
		c-1.931-0.201-3.832-0.617-5.671-1.24c-1.063-0.177-9.038,2.481-12.759,2.126c-4.979-0.142-9.96,0.154-14.887,0.886
		c-1.949,0.354-3.366,4.431-3.012,5.849c0.354,1.417-8.861,1.417-11.697,1.417s-18.253,3.19-22.329,5.494
		c-4.076,2.304-7.089,7.798-5.848,7.798c1.24,0-2.127,3.189-4.431,4.076s-7.266,1.063-8.506,2.126
		c-1.24,1.063,1.24,1.949,1.595,2.835s1.772-0.886,3.19,0s5.848,1.063,7.089,1.595c1.24,0.532-3.899,1.417-6.025,1.595
		s-1.772,4.607,0,5.494s6.911,1.241,7.266,0.354c0.354-0.886,5.848,0.886,8.329,1.24c2.48,0.354,4.253,6.203,4.962,7.621
		c0.709,1.417,0.886,5.848,0.886,7.266s4.253,3.544,4.962,2.835s0.532,1.949-1.24,1.772c-1.772-0.177-0.532,4.785,1.595,5.671
		s0.532,3.898-0.532,4.785s-0.532,3.899-1.772,4.962c-1.24,1.063,4.608,11.342,4.431,16.481s3.19,9.393,4.43,9.393
		c1.241,0,5.494,1.063,6.025,2.126c0.531,1.063,2.658-0.886,3.367-1.595c1.424-1.801,2.726-3.696,3.898-5.671
		c1.418-2.126,4.253-12.759,4.607-13.823s5.316-0.354,6.38-1.063l5.316-3.899c0.887-0.886,7.798-3.544,9.925-4.962
		s4.962-7.266,6.557-8.684s-0.886-0.886-2.658-1.949c-0.928-0.54-1.245-1.729-0.709-2.658l0.354-0.532
		C430.734,91.088,436.582,92.506,438.354,93.215z"/>
	<path d="M500.025,46.785c-1.95-0.532-6.025,1.595-5.494,2.835s-3.19-1.595-5.849-0.177c-2.658,1.418-3.366,6.025-2.126,6.557
		c1.24,0.531,1.949,4.253,1.949,4.962s4.962,0.177,6.38-0.886c1.418-1.063,1.063,3.544-0.177,4.962
		c-1.241,1.418,0.354,3.898,1.771,4.076c1.418,0.177,3.19,3.367,4.785,3.367c1.285-0.565,2.257-1.667,2.658-3.012V52.102l0,0
		C503.038,52.456,501.975,47.316,500.025,46.785z"/>
	<path d="M451.646,163.57c1.426-0.234,2.517-1.397,2.658-2.835c0-1.241-2.126-7.089-3.013-7.089c-0.886,0-2.48,4.253-3.544,3.899
		c-1.063-0.355-1.595,3.367-1.418,4.785C446.506,163.747,449.873,163.924,451.646,163.57z"/>
	<path display="none" d="M445.975,120.329c0.814,1.548,2.525,2.403,4.253,2.126c1.771-0.177,5.493-2.126,6.911-2.481
		c1.417-0.354,2.658-6.557,1.772-7.975c-0.887-1.418-6.912-1.241-8.507-1.241c-2.503-0.455-4.903-1.355-7.089-2.658
		c-1.063-1.063-1.418,3.899-2.835,4.431c-1.418,0.532,0.531,1.417,1.24,1.063c0.708-0.354,0,2.481-0.887,3.367
		C439.948,117.848,445.62,119.089,445.975,120.329z"/>
	<path d="M307.924,120.506c-1.063,0.886,0,5.494,1.595,5.494s4.785-6.912,7.089-5.494c2.304,1.417,3.898,1.772,3.367,1.24
		s-6.911-3.367-7.62-4.076C311.645,116.962,308.987,119.62,307.924,120.506z"/>
	<path d="M331.494,274.329c0,0.886,4.076,0.532,4.608-0.532c0.531-1.063,0.177-2.126-0.886-2.126
		C333.689,272.066,332.363,273.014,331.494,274.329z"/>
	<path d="M313.595,267.595c1.772-0.354,1.063,2.658,1.418,3.899c0.354,1.24,4.962,1.949,6.025,2.835
		c1.063,0.886,3.19-1.418,4.962-1.241c1.772,0.177-0.532-6.379-3.544-6.203c-3.013,0.177-5.494-2.835-6.203-3.19
		c-1.867-0.896-3.647-1.964-5.316-3.19c-1.063-0.886-8.861-1.417-11.519-1.417c-2.431,0.241-4.634,1.537-6.025,3.544
		c-0.354,0.886,4.253,1.595,5.494,0.886s7.443,0.886,8.861,2.126C309.323,267.109,311.455,267.82,313.595,267.595z"/>
	<path d="M305.088,274.329c0,0.886,4.076,0.177,4.962,0.177s1.063-0.886,0-1.418S305.088,273.443,305.088,274.329z"/>
	<path d="M307.924,253.417c-1.063-0.354-1.772,1.241-1.772,1.95c-0.006,0.718,0.527,1.328,1.24,1.417
		C308.101,256.785,309.164,253.772,307.924,253.417z"/>
	<path d="M316.607,253.949c-0.614-0.865-1.599-1.39-2.658-1.417c-0.532,0-0.886,1.24-0.886,3.012
		C313.063,257.316,316.785,254.658,316.607,253.949z"/>
	<path d="M322.633,263.342c1.595-0.886,1.772-2.658,0.886-2.658c-0.886,0-2.836-2.835-3.899-3.19s-1.772,1.772-1.772,2.658
		c-0.104,0.677,0.361,1.311,1.038,1.414c0.008,0.001,0.017,0.002,0.025,0.004h0.177
		C319.797,261.392,321.038,264.228,322.633,263.342z"/>
	<path d="M332.734,69.114c-0.177-0.177-1.417,0.532-0.886,1.063c0.348,0.179,0.775,0.043,0.955-0.305
		C332.929,69.627,332.902,69.332,332.734,69.114z"/>
	<path display="none" d="M363.747,161.62c-0.177-0.177-1.418,0.532-1.063,1.063C363.038,163.215,364.278,162.152,363.747,161.62z"/>
	<rect x="198.582" y="214.962" display="none" width="171.899" height="88.396"/>
	<rect x="245.722" y="177.038" width="124.228" height="12.281"/>
	<path display="none" d="M230.835,183.24c0,8.907-7.22,16.127-16.127,16.127c-8.906,0-16.126-7.22-16.126-16.127
		c0-8.906,7.22-16.126,16.126-16.126S230.835,174.334,230.835,183.24L230.835,183.24z"/>
	<path d="M246.43,266.532v-22.329h4.076l3.367,8.861l2.481,6.379l0,0c-0.177-2.481-0.354-6.203-0.354-10.278v-4.962h3.899v22.329
		h-4.253l-3.367-8.506c-0.825-2.146-1.535-4.335-2.126-6.557l0,0c0,2.126,0.177,5.671,0.177,10.279v4.962h-3.898L246.43,266.532z"/>
	<path d="M273.013,256.785h-4.962v6.025h5.848v3.899h-10.101v-22.506h9.747v3.898h-5.494v5.316h4.962v3.544l0,0V256.785z"/>
	<path d="M279.038,248.278h-4.076v-4.076h12.228v4.076h-4.076v18.253h-4.43v-18.253h0.177H279.038z"/>
	<path display="none" d="M292.683,266.532l-3.898-22.329h4.43l1.063,8.861c0.177,2.658,0.354,4.962,0.886,7.797l0,0
		c0.177-2.835,0.886-5.316,1.24-7.797l1.595-8.861h3.367l1.417,8.861c0.354,2.658,0.886,4.962,1.063,7.797l0,0l0.886-7.797
		l1.063-8.861h4.253l-4.076,22.329h-3.898l-1.418-7.266c-0.354-1.949-0.532-4.607-1.063-7.266l0,0
		c-0.354,2.658-0.886,5.316-1.24,7.443l-1.418,7.266h-4.253V266.532z"/>
	<path display="none" d="M326,255.19c0,8.506-3.012,11.873-7.266,11.873s-7.089-5.494-7.089-11.519s2.481-11.519,7.443-11.519
		C324.05,244.025,326,249.874,326,255.19z M316.076,255.544c0,4.962,1.063,7.621,2.835,7.621s2.658-3.19,2.658-7.797
		c0-4.608-0.532-7.443-2.658-7.443s-2.658,2.835-2.658,7.621L316.076,255.544z"/>
	<path display="none" d="M328.658,244.734l4.785-0.354c2.136-0.232,4.283,0.336,6.025,1.595c1.263,1.185,1.916,2.881,1.772,4.607
		c0.104,2.391-1.218,4.617-3.367,5.671l0,0c1.595,0.532,2.126,1.949,2.835,4.43c0.299,2.045,0.773,4.062,1.418,6.025h-4.608
		c-0.52-1.795-0.876-3.634-1.063-5.494c-0.354-2.835-1.063-3.544-2.658-3.544h-0.532v8.861h-4.43v-21.975h-0.177L328.658,244.734z
		 M333.088,254.481h0.886c1.664,0,3.012-1.349,3.012-3.012v-0.354c0.215-1.51-0.803-2.919-2.304-3.19h-1.418v6.557H333.088z"/>
	<path display="none" d="M344.43,244.203h4.431v10.101l0,0l1.063-2.835l3.012-7.266h4.785l-4.962,9.747l4.962,12.76h-4.785
		l-3.189-9.215l-1.063,1.772v7.443h-4.431v-22.506H344.43z"/>
	<g id="Page-1" display="none">
		<g id="xamagon" display="inline">
			<path id="Logo" d="M216.304,241.013c-1.018-0.194-2.055,0.221-2.658,1.063l-7.975,13.646c-0.507,0.877-0.507,1.958,0,2.835
				l7.975,13.646c0.586,0.875,1.61,1.353,2.658,1.24h16.127c1.048,0.113,2.071-0.365,2.658-1.24l7.975-13.646
				c0.506-0.877,0.506-1.958,0-2.835l-7.975-13.291c-0.604-0.842-1.641-1.257-2.658-1.063h-16.127V241.013z M216.481,247.569v-0.532
				h2.836l0.354,0.886l4.608,8.684l0,0l4.608-8.861l0.354-0.532h2.836c0.311,0.258,0.448,0.67,0.354,1.063l-4.607,8.506l4.607,7.088
				c0.178,0.177,0-0.532-0.354-0.532h-2.836c-0.079,0.366-0.198,0.723-0.354,1.063l-4.608-7.621l0,0l-4.608,7.266
				c-0.058-0.372-0.178-0.731-0.354-1.063h-2.836c-0.137,0.164-0.256,0.342-0.354,0.532l4.607-7.62l-4.607-7.975
				c-0.109-0.163-0.065-0.383,0.097-0.492c0.024-0.017,0.052-0.03,0.08-0.04h0.177v0.886L216.481,247.569z"/>
		</g>
	</g>
</g>
</svg>
