<?xml version="1.0" encoding="utf-8"?>
<!-- Generator: Adobe Illustrator 16.0.0, SVG Export Plug-In . SVG Version: 6.00 Build 0)  -->
<!DOCTYPE svg PUBLIC "-//W3C//DTD SVG 1.1//EN" "http://www.w3.org/Graphics/SVG/1.1/DTD/svg11.dtd">
<svg version="1.1" id="Capa_1" xmlns="http://www.w3.org/2000/svg" xmlns:xlink="http://www.w3.org/1999/xlink" x="0px" y="0px"
	 width="784.053px" height="783.987px" viewBox="0 0 784.053 783.987" enable-background="new 0 0 784.053 783.987"
	 xml:space="preserve">
<g>
	<defs>
		<rect id="SVGID_1_" x="-28.935" y="-203.223" width="841.951" height="1190.46"/>
	</defs>
	<clipPath id="SVGID_2_">
		<use xlink:href="#SVGID_1_"  overflow="visible"/>
	</clipPath>
	<rect x="-28.935" y="-203.223" clip-path="url(#SVGID_2_)" fill="#FFFFFF" width="841.951" height="1190.46"/>
	<path clip-path="url(#SVGID_2_)" d="M-1.436-183.104c0,0.242,0.051,0.472,0.154,0.694c0.102,0.221,0.246,0.388,0.431,0.505
		c0.184,0.115,0.378,0.173,0.582,0.173c0.296,0,0.55-0.119,0.765-0.358c0.212-0.238,0.32-0.564,0.32-0.976
		c0-0.394-0.105-0.706-0.316-0.935c-0.211-0.226-0.476-0.341-0.796-0.341c-0.316,0-0.585,0.113-0.808,0.341
		C-1.325-183.773-1.436-183.475-1.436-183.104 M1.432-185.57l-0.699,0.055c-0.062-0.275-0.15-0.476-0.265-0.601
		c-0.189-0.199-0.423-0.3-0.702-0.3c-0.223,0-0.419,0.063-0.589,0.187c-0.22,0.16-0.394,0.396-0.523,0.706
		c-0.126,0.309-0.193,0.749-0.199,1.323c0.168-0.257,0.375-0.449,0.62-0.574c0.244-0.125,0.5-0.187,0.769-0.187
		c0.468,0,0.866,0.172,1.196,0.517c0.328,0.343,0.493,0.79,0.493,1.336c0,0.359-0.076,0.692-0.232,1.001
		c-0.154,0.308-0.367,0.544-0.638,0.708c-0.269,0.164-0.577,0.246-0.92,0.246c-0.585,0-1.062-0.214-1.432-0.646
		c-0.369-0.429-0.554-1.139-0.554-2.128c0-1.104,0.203-1.907,0.612-2.411c0.355-0.437,0.835-0.656,1.44-0.656
		c0.449,0,0.817,0.125,1.106,0.379C1.202-186.364,1.374-186.015,1.432-185.57"/>
	<polyline clip-path="url(#SVGID_2_)" points="1.899,-181.154 3.557,-187.068 4.119,-187.068 2.464,-181.154 1.899,-181.154 	"/>
	<path clip-path="url(#SVGID_2_)" d="M6.695-183.264v-2.579l-1.791,2.579H6.695 M6.695-181.251v-1.369H4.213v-0.644l2.61-3.707
		h0.574v3.707H8.17v0.644H7.397v1.369H6.695"/>
	<polyline clip-path="url(#SVGID_2_)" points="8.555,-181.154 10.213,-187.068 10.775,-187.068 9.121,-181.154 8.555,-181.154 	"/>
	<path clip-path="url(#SVGID_2_)" d="M14.791-181.926v0.675H11.01c-0.003-0.167,0.021-0.332,0.082-0.488
		c0.096-0.257,0.25-0.511,0.462-0.761c0.211-0.25,0.517-0.538,0.919-0.866c0.62-0.509,1.042-0.913,1.26-1.211
		c0.218-0.296,0.328-0.579,0.328-0.845c0-0.277-0.1-0.513-0.298-0.704c-0.199-0.191-0.458-0.287-0.778-0.287
		c-0.338,0-0.609,0.102-0.812,0.304c-0.203,0.203-0.305,0.484-0.309,0.843l-0.722-0.074c0.049-0.538,0.234-0.948,0.558-1.23
		c0.322-0.281,0.755-0.424,1.299-0.424c0.548,0,0.983,0.152,1.303,0.457s0.48,0.681,0.48,1.131c0,0.229-0.047,0.453-0.14,0.675
		c-0.094,0.221-0.248,0.453-0.466,0.699c-0.217,0.244-0.578,0.579-1.083,1.006c-0.421,0.353-0.69,0.593-0.812,0.72
		c-0.119,0.125-0.218,0.252-0.296,0.38H14.791"/>
	<path clip-path="url(#SVGID_2_)" d="M16.264-184.072c0,0.938,0.109,1.562,0.33,1.875c0.219,0.31,0.49,0.466,0.813,0.466
		c0.322,0,0.593-0.156,0.813-0.468c0.219-0.313,0.33-0.937,0.33-1.873c0-0.94-0.109-1.566-0.33-1.876
		c-0.218-0.309-0.494-0.464-0.821-0.464c-0.322,0-0.58,0.136-0.772,0.41C16.385-185.656,16.264-185.012,16.264-184.072
		 M15.542-184.072c0-0.675,0.068-1.219,0.208-1.633c0.139-0.412,0.345-0.729,0.621-0.954c0.273-0.223,0.618-0.336,1.036-0.336
		c0.306,0,0.576,0.061,0.808,0.186c0.23,0.123,0.421,0.3,0.574,0.535c0.15,0.232,0.269,0.515,0.355,0.85
		c0.086,0.334,0.128,0.784,0.128,1.352c0,0.671-0.068,1.211-0.207,1.625c-0.137,0.412-0.343,0.729-0.619,0.956
		c-0.273,0.224-0.62,0.337-1.04,0.337c-0.55,0-0.983-0.197-1.299-0.593C15.731-182.223,15.542-182.997,15.542-184.072"/>
	<path clip-path="url(#SVGID_2_)" d="M22.63-181.251h-0.703v-4.475c-0.167,0.16-0.39,0.322-0.665,0.484
		c-0.273,0.16-0.521,0.281-0.739,0.363v-0.679c0.392-0.184,0.735-0.408,1.03-0.671c0.293-0.261,0.501-0.517,0.625-0.765h0.453
		V-181.251"/>
	<path clip-path="url(#SVGID_2_)" d="M25.142-182.901c0,0.199,0.047,0.394,0.142,0.581c0.094,0.188,0.236,0.332,0.423,0.435
		c0.188,0.102,0.389,0.154,0.605,0.154c0.335,0,0.613-0.107,0.831-0.324c0.218-0.215,0.328-0.49,0.328-0.823
		c0-0.338-0.111-0.617-0.337-0.839c-0.225-0.221-0.505-0.332-0.845-0.332c-0.33,0-0.603,0.109-0.821,0.328
		C25.251-183.502,25.142-183.229,25.142-182.901 M25.368-185.542c0,0.269,0.086,0.492,0.262,0.663
		c0.173,0.171,0.4,0.257,0.679,0.257c0.269,0,0.492-0.084,0.665-0.255c0.172-0.169,0.26-0.378,0.26-0.626
		c0-0.258-0.088-0.474-0.268-0.65c-0.177-0.175-0.4-0.263-0.665-0.263c-0.267,0-0.49,0.086-0.667,0.257
		C25.458-185.987,25.368-185.783,25.368-185.542 M25.508-184.353c-0.291-0.105-0.507-0.258-0.647-0.457
		c-0.141-0.197-0.211-0.433-0.211-0.71c0-0.415,0.148-0.764,0.449-1.049c0.298-0.283,0.696-0.426,1.194-0.426
		c0.5,0,0.901,0.145,1.206,0.436c0.304,0.289,0.457,0.642,0.457,1.059c0,0.265-0.068,0.495-0.209,0.692
		c-0.138,0.195-0.349,0.347-0.634,0.455c0.351,0.113,0.619,0.298,0.802,0.554c0.183,0.253,0.275,0.558,0.275,0.913
		c0,0.487-0.171,0.899-0.519,1.232c-0.345,0.332-0.8,0.5-1.366,0.5c-0.564,0-1.018-0.166-1.366-0.501
		c-0.345-0.333-0.519-0.751-0.519-1.25c0-0.371,0.093-0.683,0.283-0.935C24.89-184.089,25.159-184.261,25.508-184.353"/>
	<path clip-path="url(#SVGID_2_)" d="M405.816-182.488l0.694-0.109c0.039,0.277,0.146,0.492,0.326,0.64
		c0.177,0.148,0.427,0.222,0.747,0.222c0.321,0,0.562-0.064,0.718-0.197c0.156-0.131,0.233-0.285,0.233-0.462
		c0-0.158-0.067-0.283-0.206-0.375c-0.096-0.063-0.336-0.14-0.718-0.238c-0.516-0.129-0.872-0.242-1.071-0.337
		c-0.199-0.094-0.35-0.227-0.452-0.394c-0.102-0.168-0.154-0.353-0.154-0.556c0-0.183,0.041-0.355,0.127-0.513
		c0.083-0.156,0.198-0.287,0.345-0.392c0.109-0.08,0.258-0.148,0.447-0.205c0.187-0.055,0.39-0.084,0.606-0.084
		c0.323,0,0.61,0.047,0.856,0.141c0.245,0.094,0.427,0.221,0.544,0.38c0.117,0.16,0.197,0.373,0.242,0.642l-0.687,0.094
		c-0.031-0.212-0.121-0.378-0.271-0.5c-0.148-0.119-0.361-0.179-0.634-0.179c-0.322,0-0.553,0.053-0.69,0.16
		c-0.137,0.105-0.207,0.23-0.207,0.375c0,0.089,0.027,0.171,0.086,0.246c0.057,0.074,0.146,0.136,0.269,0.187
		c0.07,0.025,0.277,0.086,0.621,0.18c0.495,0.133,0.843,0.24,1.039,0.326c0.195,0.084,0.35,0.207,0.463,0.369
		c0.111,0.16,0.168,0.361,0.168,0.601c0,0.234-0.068,0.455-0.205,0.662c-0.137,0.207-0.334,0.367-0.592,0.479
		c-0.257,0.113-0.548,0.17-0.873,0.17c-0.539,0-0.948-0.111-1.231-0.335C406.076-181.716,405.895-182.047,405.816-182.488"/>
	<path clip-path="url(#SVGID_2_)" d="M410.623-183.721h2.313c-0.031-0.347-0.119-0.608-0.266-0.784
		c-0.222-0.27-0.513-0.406-0.87-0.406c-0.321,0-0.593,0.107-0.813,0.324C410.77-184.372,410.646-184.083,410.623-183.721
		 M412.929-182.585l0.726,0.089c-0.113,0.424-0.326,0.753-0.636,0.987c-0.309,0.234-0.704,0.351-1.187,0.351
		c-0.604,0-1.086-0.185-1.441-0.56c-0.354-0.372-0.532-0.895-0.532-1.57c0-0.697,0.18-1.237,0.538-1.623
		c0.359-0.384,0.823-0.578,1.396-0.578c0.555,0,1.007,0.188,1.358,0.566c0.351,0.376,0.526,0.907,0.526,1.592
		c0,0.041,0,0.103-0.004,0.187h-3.09c0.025,0.455,0.154,0.804,0.386,1.046c0.23,0.242,0.52,0.362,0.866,0.362
		c0.258,0,0.477-0.066,0.66-0.203C412.677-182.072,412.821-182.289,412.929-182.585"/>
	<path clip-path="url(#SVGID_2_)" d="M414.527-181.251v-4.143h0.632v0.628c0.16-0.292,0.311-0.488,0.446-0.582
		c0.137-0.094,0.287-0.141,0.451-0.141c0.236,0,0.476,0.074,0.722,0.227l-0.242,0.651c-0.172-0.102-0.343-0.152-0.515-0.152
		c-0.152,0-0.291,0.044-0.414,0.138c-0.12,0.092-0.208,0.221-0.261,0.384c-0.078,0.25-0.117,0.523-0.117,0.819v2.169H414.527"/>
	<path clip-path="url(#SVGID_2_)" d="M418.347-181.251l-1.576-4.143h0.741l0.89,2.481c0.096,0.267,0.184,0.546,0.266,0.835
		c0.062-0.219,0.147-0.48,0.261-0.788l0.921-2.528h0.722l-1.568,4.143H418.347"/>
	<path clip-path="url(#SVGID_2_)" d="M421.194-181.251v-4.143h0.702v4.143H421.194 M421.194-186.163v-0.808h0.702v0.808H421.194"/>
	<path clip-path="url(#SVGID_2_)" d="M425.668-182.769l0.691,0.09c-0.074,0.476-0.268,0.849-0.58,1.118
		c-0.31,0.269-0.692,0.404-1.145,0.404c-0.566,0-1.022-0.185-1.368-0.556c-0.343-0.37-0.517-0.901-0.517-1.593
		c0-0.447,0.074-0.839,0.223-1.174s0.372-0.587,0.677-0.755c0.303-0.168,0.632-0.252,0.989-0.252c0.448,0,0.817,0.113,1.104,0.342
		c0.285,0.226,0.469,0.55,0.551,0.969l-0.683,0.105c-0.064-0.277-0.18-0.488-0.346-0.628c-0.164-0.14-0.365-0.21-0.599-0.21
		c-0.354,0-0.641,0.127-0.862,0.38c-0.221,0.253-0.332,0.653-0.332,1.204c0,0.556,0.105,0.959,0.32,1.213
		c0.213,0.251,0.491,0.378,0.835,0.378c0.274,0,0.505-0.083,0.69-0.253C425.501-182.156,425.617-182.418,425.668-182.769"/>
	<path clip-path="url(#SVGID_2_)" d="M426.964-181.251v-4.143h0.702v4.143H426.964 M426.964-186.163v-0.808h0.702v0.808H426.964"/>
	<path clip-path="url(#SVGID_2_)" d="M429.194-183.323c0,0.531,0.115,0.926,0.347,1.192c0.23,0.263,0.523,0.396,0.874,0.396
		c0.348,0,0.638-0.132,0.87-0.397c0.23-0.266,0.348-0.669,0.348-1.213c0-0.511-0.115-0.899-0.35-1.165
		c-0.232-0.264-0.521-0.396-0.868-0.396c-0.351,0-0.642,0.13-0.874,0.394C429.311-184.251,429.194-183.854,429.194-183.323
		 M428.473-183.323c0-0.767,0.212-1.334,0.64-1.705c0.354-0.306,0.79-0.46,1.303-0.46c0.569,0,1.034,0.186,1.396,0.56
		c0.361,0.373,0.543,0.888,0.543,1.547c0,0.533-0.08,0.952-0.24,1.258c-0.16,0.304-0.392,0.542-0.698,0.712
		c-0.305,0.167-0.638,0.253-1.001,0.253c-0.579,0-1.048-0.185-1.406-0.558C428.651-182.086,428.473-182.623,428.473-183.323"/>
	<rect x="432.903" y="-183.674" clip-path="url(#SVGID_2_)" width="2.157" height="0.706"/>
	<path clip-path="url(#SVGID_2_)" d="M438.287-181.251h-0.702v-4.475c-0.168,0.16-0.391,0.322-0.665,0.484
		c-0.273,0.16-0.521,0.281-0.739,0.363v-0.679c0.392-0.184,0.735-0.408,1.029-0.671c0.293-0.261,0.502-0.517,0.625-0.765h0.452
		V-181.251"/>
	<path clip-path="url(#SVGID_2_)" d="M-1.849,970.251v-3.598H-2.47v-0.546h0.621v-0.44c0-0.277,0.023-0.484,0.074-0.62
		c0.066-0.182,0.186-0.33,0.357-0.443c0.169-0.113,0.408-0.17,0.716-0.17c0.197,0,0.416,0.023,0.655,0.07l-0.105,0.612
		c-0.144-0.024-0.283-0.038-0.414-0.038c-0.212,0-0.363,0.044-0.453,0.136c-0.087,0.09-0.132,0.262-0.132,0.512v0.382h0.808v0.546
		h-0.808v3.598H-1.849"/>
	<path clip-path="url(#SVGID_2_)" d="M0.2,970.251v-4.144h0.702v4.144H0.2 M0.2,965.339v-0.808h0.702v0.808H0.2"/>
	<rect x="1.955" y="964.531" clip-path="url(#SVGID_2_)" width="0.702" height="5.72"/>
	<path clip-path="url(#SVGID_2_)" d="M4.274,967.781h2.314c-0.031-0.348-0.119-0.608-0.266-0.784
		c-0.222-0.27-0.513-0.405-0.87-0.405c-0.322,0-0.593,0.106-0.813,0.323C4.421,967.13,4.298,967.418,4.274,967.781 M6.581,968.916
		l0.726,0.09c-0.113,0.424-0.326,0.753-0.636,0.987c-0.308,0.234-0.704,0.352-1.186,0.352c-0.604,0-1.086-0.186-1.441-0.561
		c-0.355-0.372-0.533-0.896-0.533-1.57c0-0.696,0.18-1.236,0.539-1.622c0.359-0.385,0.823-0.578,1.396-0.578
		c0.554,0,1.007,0.188,1.358,0.566c0.351,0.376,0.527,0.906,0.527,1.591c0,0.041,0,0.104-0.004,0.188h-3.09
		c0.025,0.455,0.154,0.804,0.386,1.046c0.23,0.241,0.519,0.362,0.866,0.362c0.258,0,0.476-0.066,0.66-0.202
		C6.329,969.43,6.473,969.213,6.581,968.916"/>
	<path clip-path="url(#SVGID_2_)" d="M8.382,970.251v-0.8h0.8v0.8H8.382 M8.382,966.907v-0.8h0.8v0.8H8.382"/>
	<polyline clip-path="url(#SVGID_2_)" points="9.873,970.349 11.531,964.434 12.093,964.434 10.439,970.349 9.873,970.349 	"/>
	<polyline clip-path="url(#SVGID_2_)" points="12.086,970.349 13.745,964.434 14.307,964.434 12.652,970.349 12.086,970.349 	"/>
	<polyline clip-path="url(#SVGID_2_)" points="14.3,970.349 15.958,964.434 16.52,964.434 14.866,970.349 14.3,970.349 	"/>
	<path clip-path="url(#SVGID_2_)" d="M21.21,968.245l0.757,0.191c-0.158,0.62-0.443,1.095-0.856,1.422
		c-0.412,0.326-0.915,0.489-1.512,0.489c-0.616,0-1.118-0.124-1.504-0.376c-0.386-0.25-0.679-0.614-0.882-1.091
		c-0.201-0.476-0.302-0.986-0.302-1.532c0-0.596,0.113-1.114,0.341-1.559c0.226-0.443,0.55-0.78,0.972-1.011
		c0.419-0.23,0.881-0.346,1.387-0.346c0.572,0,1.053,0.145,1.444,0.438c0.39,0.29,0.661,0.7,0.815,1.229l-0.745,0.176
		c-0.132-0.415-0.324-0.718-0.577-0.909c-0.252-0.189-0.57-0.285-0.952-0.285c-0.439,0-0.806,0.105-1.102,0.316
		c-0.294,0.211-0.501,0.493-0.623,0.849c-0.119,0.354-0.179,0.72-0.179,1.099c0,0.485,0.07,0.91,0.212,1.273
		c0.141,0.362,0.361,0.634,0.662,0.813c0.298,0.179,0.622,0.269,0.971,0.269c0.423,0,0.782-0.121,1.077-0.366
		C20.906,969.09,21.105,968.728,21.21,968.245"/>
	<path clip-path="url(#SVGID_2_)" d="M23.004,970.251v-0.8h0.8v0.8H23.004 M23.004,966.907v-0.8h0.8v0.8H23.004"/>
	<polyline clip-path="url(#SVGID_2_)" points="24.496,970.349 26.153,964.434 26.715,964.434 25.061,970.349 24.496,970.349 	"/>
	<path clip-path="url(#SVGID_2_)" d="M26.767,970.251l1.514-2.153l-1.4-1.99h0.878l0.636,0.972c0.119,0.184,0.215,0.339,0.289,0.464
		c0.113-0.171,0.218-0.323,0.316-0.456l0.698-0.979h0.839l-1.432,1.951l1.542,2.192h-0.862l-0.851-1.288l-0.226-0.347l-1.089,1.635
		H26.767"/>
	<path clip-path="url(#SVGID_2_)" d="M33.876,968.171c-0.254,0.104-0.636,0.191-1.147,0.266c-0.289,0.041-0.492,0.088-0.613,0.141
		c-0.119,0.051-0.21,0.127-0.277,0.229c-0.064,0.099-0.098,0.21-0.098,0.333c0,0.188,0.07,0.344,0.212,0.469
		c0.141,0.124,0.35,0.187,0.623,0.187c0.269,0,0.511-0.059,0.722-0.178c0.211-0.116,0.365-0.278,0.464-0.485
		c0.074-0.158,0.113-0.392,0.113-0.702V968.171 M33.935,969.739c-0.26,0.221-0.509,0.377-0.751,0.469
		c-0.24,0.09-0.497,0.137-0.774,0.137c-0.455,0-0.804-0.111-1.049-0.334c-0.244-0.223-0.367-0.505-0.367-0.853
		c0-0.203,0.045-0.388,0.139-0.556c0.091-0.168,0.212-0.303,0.363-0.404c0.148-0.102,0.318-0.177,0.505-0.229
		c0.137-0.035,0.346-0.07,0.625-0.105c0.565-0.066,0.983-0.148,1.252-0.242c0.002-0.096,0.004-0.156,0.004-0.184
		c0-0.284-0.066-0.487-0.199-0.604c-0.179-0.158-0.445-0.238-0.8-0.238c-0.33,0-0.573,0.057-0.731,0.174
		c-0.156,0.115-0.273,0.32-0.349,0.614l-0.687-0.093c0.062-0.293,0.164-0.531,0.308-0.712c0.142-0.18,0.349-0.32,0.62-0.418
		c0.27-0.098,0.583-0.146,0.94-0.146c0.353,0,0.64,0.041,0.862,0.125c0.22,0.082,0.382,0.188,0.487,0.314
		c0.104,0.125,0.176,0.284,0.219,0.478c0.023,0.119,0.035,0.336,0.035,0.647v0.937c0,0.651,0.014,1.065,0.045,1.238
		c0.029,0.172,0.088,0.338,0.177,0.498h-0.733C34.002,970.106,33.956,969.935,33.935,969.739"/>
	<path clip-path="url(#SVGID_2_)" d="M35.673,970.251v-4.144h0.628v0.581c0.129-0.202,0.302-0.364,0.519-0.489
		c0.214-0.123,0.46-0.186,0.737-0.186c0.306,0,0.558,0.063,0.755,0.191c0.195,0.127,0.333,0.305,0.416,0.534
		c0.328-0.483,0.753-0.726,1.28-0.726c0.41,0,0.726,0.113,0.948,0.342c0.221,0.227,0.332,0.577,0.332,1.051v2.845h-0.699v-2.61
		c0-0.281-0.021-0.481-0.068-0.606c-0.045-0.123-0.127-0.223-0.248-0.299c-0.119-0.074-0.259-0.113-0.421-0.113
		c-0.291,0-0.532,0.096-0.726,0.291c-0.191,0.193-0.289,0.503-0.289,0.931v2.407h-0.703v-2.692c0-0.312-0.056-0.546-0.171-0.702
		c-0.113-0.156-0.3-0.234-0.562-0.234c-0.197,0-0.38,0.051-0.548,0.156c-0.168,0.104-0.289,0.256-0.365,0.457
		c-0.074,0.198-0.113,0.487-0.113,0.866v2.149H35.673"/>
	<path clip-path="url(#SVGID_2_)" d="M42.965,968.202c0,0.533,0.107,0.927,0.324,1.183c0.214,0.253,0.476,0.382,0.784,0.382
		c0.312,0,0.579-0.13,0.802-0.396c0.222-0.264,0.333-0.673,0.333-1.228c0-0.526-0.107-0.922-0.326-1.186
		c-0.217-0.262-0.476-0.394-0.778-0.394c-0.299,0-0.564,0.138-0.794,0.419C43.08,967.263,42.965,967.668,42.965,968.202
		 M42.329,971.839v-5.731h0.64v0.538c0.15-0.21,0.32-0.368,0.511-0.474c0.189-0.105,0.419-0.158,0.69-0.158
		c0.354,0,0.666,0.09,0.937,0.273c0.269,0.182,0.474,0.438,0.613,0.771c0.136,0.332,0.207,0.694,0.207,1.09
		c0,0.424-0.076,0.806-0.228,1.146c-0.152,0.339-0.373,0.599-0.664,0.78c-0.289,0.18-0.595,0.271-0.915,0.271
		c-0.234,0-0.443-0.049-0.63-0.148c-0.185-0.098-0.337-0.223-0.458-0.375v2.018H42.329"/>
	<path clip-path="url(#SVGID_2_)" d="M47.408,968.202c0,0.533,0.107,0.927,0.324,1.183c0.214,0.253,0.476,0.382,0.784,0.382
		c0.312,0,0.58-0.13,0.802-0.396c0.223-0.264,0.333-0.673,0.333-1.228c0-0.526-0.107-0.922-0.326-1.186
		c-0.216-0.262-0.476-0.394-0.778-0.394c-0.298,0-0.564,0.138-0.794,0.419C47.522,967.263,47.408,967.668,47.408,968.202
		 M46.771,971.839v-5.731h0.64v0.538c0.15-0.21,0.32-0.368,0.511-0.474c0.189-0.105,0.419-0.158,0.69-0.158
		c0.353,0,0.665,0.09,0.937,0.273c0.269,0.182,0.474,0.438,0.612,0.771c0.137,0.332,0.207,0.694,0.207,1.09
		c0,0.424-0.076,0.806-0.229,1.146c-0.152,0.339-0.373,0.599-0.663,0.78c-0.289,0.18-0.595,0.271-0.915,0.271
		c-0.234,0-0.443-0.049-0.63-0.148c-0.186-0.098-0.338-0.223-0.458-0.375v2.018H46.771"/>
	<polyline clip-path="url(#SVGID_2_)" points="50.688,970.349 52.346,964.434 52.908,964.434 51.253,970.349 50.688,970.349 	"/>
	<path clip-path="url(#SVGID_2_)" d="M53.428,970.251v-5.72h0.702v2.053c0.328-0.379,0.741-0.57,1.241-0.57
		c0.306,0,0.573,0.061,0.8,0.182c0.226,0.121,0.388,0.287,0.486,0.501c0.097,0.213,0.146,0.523,0.146,0.929v2.626H56.1v-2.626
		c0-0.351-0.076-0.606-0.228-0.767c-0.152-0.16-0.367-0.24-0.646-0.24c-0.207,0-0.404,0.053-0.587,0.162
		c-0.184,0.107-0.314,0.254-0.392,0.439c-0.078,0.183-0.117,0.438-0.117,0.765v2.267H53.428"/>
	<path clip-path="url(#SVGID_2_)" d="M59.403,969.622l0.102,0.621c-0.197,0.041-0.375,0.063-0.531,0.063
		c-0.253,0-0.452-0.039-0.593-0.121c-0.141-0.08-0.238-0.186-0.296-0.318c-0.057-0.131-0.086-0.407-0.086-0.829v-2.384h-0.515
		v-0.546h0.515v-1.025l0.698-0.422v1.447h0.706v0.546h-0.706v2.423c0,0.199,0.012,0.328,0.037,0.387
		c0.023,0.057,0.064,0.102,0.121,0.137c0.055,0.032,0.134,0.05,0.24,0.05C59.173,969.649,59.275,969.642,59.403,969.622"/>
	<path clip-path="url(#SVGID_2_)" d="M60.552,968.183c0,0.531,0.111,0.927,0.335,1.19c0.222,0.261,0.488,0.394,0.792,0.394
		c0.306,0,0.568-0.125,0.782-0.376c0.215-0.25,0.322-0.634,0.322-1.149c0-0.565-0.109-0.982-0.328-1.248
		c-0.218-0.266-0.488-0.397-0.808-0.397c-0.312,0-0.572,0.126-0.782,0.382C60.657,967.231,60.552,967.633,60.552,968.183
		 M62.771,970.251v-0.523c-0.261,0.41-0.647,0.617-1.159,0.617c-0.33,0-0.634-0.09-0.911-0.273
		c-0.277-0.182-0.492-0.436-0.644-0.763c-0.152-0.326-0.228-0.7-0.228-1.126c0-0.413,0.068-0.788,0.207-1.125
		c0.137-0.336,0.343-0.595,0.621-0.774c0.275-0.18,0.583-0.27,0.924-0.27c0.25,0,0.472,0.053,0.667,0.158
		c0.195,0.105,0.353,0.242,0.476,0.412v-2.053h0.699v5.72H62.771"/>
	<path clip-path="url(#SVGID_2_)" d="M64.986,968.179c0,0.531,0.115,0.927,0.348,1.192c0.23,0.263,0.522,0.396,0.874,0.396
		c0.347,0,0.638-0.133,0.87-0.397c0.23-0.266,0.347-0.669,0.347-1.214c0-0.511-0.115-0.898-0.349-1.164
		c-0.232-0.264-0.521-0.396-0.868-0.396c-0.351,0-0.642,0.13-0.874,0.394C65.104,967.251,64.986,967.648,64.986,968.179
		 M64.265,968.179c0-0.767,0.213-1.334,0.64-1.704c0.355-0.307,0.79-0.461,1.303-0.461c0.57,0,1.034,0.186,1.397,0.561
		c0.361,0.372,0.542,0.887,0.542,1.546c0,0.533-0.08,0.952-0.24,1.259c-0.16,0.304-0.392,0.542-0.698,0.712
		c-0.304,0.168-0.638,0.253-1.001,0.253c-0.579,0-1.047-0.185-1.406-0.558C64.444,969.416,64.265,968.879,64.265,968.179"/>
	<path clip-path="url(#SVGID_2_)" d="M71.672,968.733l0.691,0.09c-0.074,0.476-0.268,0.848-0.58,1.117
		c-0.31,0.27-0.692,0.404-1.145,0.404c-0.566,0-1.022-0.186-1.368-0.557c-0.343-0.37-0.517-0.9-0.517-1.594
		c0-0.446,0.074-0.838,0.222-1.174s0.373-0.587,0.677-0.755c0.303-0.168,0.632-0.252,0.989-0.252c0.449,0,0.817,0.113,1.104,0.342
		c0.285,0.227,0.468,0.55,0.55,0.97l-0.683,0.104c-0.064-0.276-0.18-0.487-0.346-0.628c-0.164-0.141-0.365-0.21-0.599-0.21
		c-0.353,0-0.64,0.126-0.862,0.38c-0.221,0.254-0.332,0.653-0.332,1.203c0,0.557,0.105,0.96,0.32,1.214
		c0.212,0.252,0.492,0.378,0.835,0.378c0.275,0,0.505-0.084,0.69-0.253C71.505,969.346,71.622,969.084,71.672,968.733"/>
	<path clip-path="url(#SVGID_2_)" d="M72.683,969.014l0.694-0.109c0.039,0.277,0.146,0.492,0.326,0.641
		c0.178,0.147,0.427,0.222,0.747,0.222c0.322,0,0.562-0.064,0.718-0.196c0.156-0.131,0.234-0.285,0.234-0.463
		c0-0.158-0.068-0.282-0.207-0.374c-0.095-0.063-0.335-0.141-0.718-0.238c-0.515-0.129-0.872-0.242-1.071-0.338
		c-0.199-0.094-0.349-0.226-0.453-0.394c-0.102-0.168-0.154-0.354-0.154-0.556c0-0.184,0.041-0.355,0.127-0.514
		c0.084-0.155,0.199-0.286,0.345-0.392c0.109-0.08,0.258-0.148,0.447-0.205c0.188-0.055,0.39-0.084,0.607-0.084
		c0.324,0,0.61,0.047,0.856,0.141c0.246,0.094,0.427,0.221,0.544,0.381c0.117,0.159,0.197,0.372,0.242,0.642l-0.687,0.094
		c-0.031-0.213-0.121-0.379-0.271-0.5c-0.148-0.119-0.361-0.179-0.634-0.179c-0.322,0-0.552,0.052-0.69,0.159
		c-0.136,0.105-0.207,0.23-0.207,0.375c0,0.09,0.027,0.172,0.086,0.245c0.056,0.074,0.146,0.137,0.269,0.188
		c0.07,0.025,0.277,0.086,0.62,0.18c0.496,0.133,0.843,0.24,1.04,0.325c0.195,0.084,0.349,0.207,0.462,0.369
		c0.111,0.16,0.167,0.361,0.167,0.601c0,0.234-0.068,0.455-0.205,0.661c-0.137,0.207-0.333,0.367-0.591,0.48
		c-0.257,0.113-0.548,0.169-0.874,0.169c-0.538,0-0.948-0.11-1.231-0.335C72.942,969.786,72.761,969.455,72.683,969.014"/>
	<polyline clip-path="url(#SVGID_2_)" points="76.432,970.349 78.09,964.434 78.652,964.434 76.998,970.349 76.432,970.349 	"/>
	<path clip-path="url(#SVGID_2_)" d="M81.876,968.733l0.691,0.09c-0.074,0.476-0.268,0.848-0.58,1.117
		c-0.31,0.27-0.692,0.404-1.145,0.404c-0.566,0-1.022-0.186-1.368-0.557c-0.343-0.37-0.517-0.9-0.517-1.594
		c0-0.446,0.074-0.838,0.222-1.174s0.373-0.587,0.677-0.755c0.303-0.168,0.632-0.252,0.989-0.252c0.449,0,0.817,0.113,1.104,0.342
		c0.285,0.227,0.468,0.55,0.55,0.97l-0.683,0.104c-0.064-0.276-0.179-0.487-0.345-0.628c-0.164-0.141-0.365-0.21-0.599-0.21
		c-0.353,0-0.64,0.126-0.862,0.38c-0.221,0.254-0.332,0.653-0.332,1.203c0,0.557,0.105,0.96,0.32,1.214
		c0.212,0.252,0.492,0.378,0.835,0.378c0.275,0,0.505-0.084,0.69-0.253C81.708,969.346,81.825,969.084,81.876,968.733"/>
	<path clip-path="url(#SVGID_2_)" d="M83.167,970.251v-4.144h0.628v0.581c0.129-0.202,0.303-0.364,0.519-0.489
		c0.215-0.123,0.46-0.186,0.737-0.186c0.307,0,0.558,0.063,0.755,0.191c0.195,0.127,0.334,0.305,0.416,0.534
		c0.328-0.483,0.753-0.726,1.28-0.726c0.41,0,0.726,0.113,0.948,0.342c0.22,0.227,0.332,0.577,0.332,1.051v2.845h-0.698v-2.61
		c0-0.281-0.021-0.481-0.068-0.606c-0.045-0.123-0.127-0.223-0.248-0.299c-0.119-0.074-0.26-0.113-0.421-0.113
		c-0.291,0-0.533,0.096-0.726,0.291c-0.191,0.193-0.289,0.503-0.289,0.931v2.407h-0.702v-2.692c0-0.312-0.057-0.546-0.172-0.702
		c-0.113-0.156-0.3-0.234-0.562-0.234c-0.197,0-0.38,0.051-0.548,0.156c-0.167,0.104-0.289,0.256-0.365,0.457
		c-0.074,0.198-0.113,0.487-0.113,0.866v2.149H83.167"/>
	<path clip-path="url(#SVGID_2_)" d="M89.542,969.014l0.694-0.109c0.039,0.277,0.146,0.492,0.326,0.641
		c0.177,0.147,0.427,0.222,0.747,0.222c0.322,0,0.562-0.064,0.718-0.196c0.156-0.131,0.234-0.285,0.234-0.463
		c0-0.158-0.068-0.282-0.207-0.374c-0.096-0.063-0.335-0.141-0.718-0.238c-0.515-0.129-0.872-0.242-1.071-0.338
		c-0.199-0.094-0.349-0.226-0.453-0.394c-0.101-0.168-0.154-0.354-0.154-0.556c0-0.184,0.041-0.355,0.126-0.514
		c0.084-0.155,0.199-0.286,0.346-0.392c0.109-0.08,0.257-0.148,0.446-0.205c0.188-0.055,0.391-0.084,0.607-0.084
		c0.324,0,0.61,0.047,0.856,0.141c0.246,0.094,0.427,0.221,0.544,0.381c0.117,0.159,0.197,0.372,0.242,0.642l-0.687,0.094
		c-0.031-0.213-0.121-0.379-0.271-0.5c-0.148-0.119-0.361-0.179-0.634-0.179c-0.322,0-0.552,0.052-0.69,0.159
		c-0.137,0.105-0.207,0.23-0.207,0.375c0,0.09,0.027,0.172,0.086,0.245c0.057,0.074,0.146,0.137,0.269,0.188
		c0.07,0.025,0.277,0.086,0.621,0.18c0.495,0.133,0.843,0.24,1.04,0.325c0.195,0.084,0.349,0.207,0.462,0.369
		c0.111,0.16,0.167,0.361,0.167,0.601c0,0.234-0.068,0.455-0.205,0.661c-0.137,0.207-0.333,0.367-0.591,0.48
		c-0.257,0.113-0.548,0.169-0.874,0.169c-0.539,0-0.948-0.11-1.231-0.335C89.802,969.786,89.621,969.455,89.542,969.014"/>
	<rect x="93.171" y="971.331" clip-path="url(#SVGID_2_)" width="4.654" height="0.508"/>
	<path clip-path="url(#SVGID_2_)" d="M98.261,970.251v-4.144h0.628v0.581c0.129-0.202,0.303-0.364,0.519-0.489
		c0.214-0.123,0.46-0.186,0.737-0.186c0.306,0,0.558,0.063,0.755,0.191c0.195,0.127,0.333,0.305,0.416,0.534
		c0.328-0.483,0.753-0.726,1.28-0.726c0.41,0,0.726,0.113,0.948,0.342c0.22,0.227,0.332,0.577,0.332,1.051v2.845h-0.698v-2.61
		c0-0.281-0.021-0.481-0.068-0.606c-0.045-0.123-0.127-0.223-0.248-0.299c-0.119-0.074-0.259-0.113-0.421-0.113
		c-0.291,0-0.532,0.096-0.726,0.291c-0.191,0.193-0.289,0.503-0.289,0.931v2.407h-0.702v-2.692c0-0.312-0.057-0.546-0.172-0.702
		c-0.113-0.156-0.3-0.234-0.562-0.234c-0.197,0-0.38,0.051-0.548,0.156c-0.168,0.104-0.289,0.256-0.365,0.457
		c-0.074,0.198-0.113,0.487-0.113,0.866v2.149H98.261"/>
	<path clip-path="url(#SVGID_2_)" d="M106.068,970.251l-1.576-4.144h0.741l0.89,2.481c0.096,0.268,0.184,0.546,0.266,0.835
		c0.062-0.219,0.148-0.48,0.261-0.788l0.921-2.528h0.722l-1.568,4.144H106.068"/>
	<path clip-path="url(#SVGID_2_)" d="M111.616,968.733l0.69,0.09c-0.074,0.476-0.267,0.848-0.58,1.117
		c-0.31,0.27-0.692,0.404-1.145,0.404c-0.565,0-1.022-0.186-1.367-0.557c-0.344-0.37-0.517-0.9-0.517-1.594
		c0-0.446,0.074-0.838,0.222-1.174c0.148-0.336,0.373-0.587,0.677-0.755c0.302-0.168,0.632-0.252,0.989-0.252
		c0.449,0,0.817,0.113,1.104,0.342c0.285,0.227,0.468,0.55,0.55,0.97l-0.683,0.104c-0.064-0.276-0.18-0.487-0.345-0.628
		c-0.164-0.141-0.365-0.21-0.599-0.21c-0.353,0-0.64,0.126-0.862,0.38c-0.22,0.254-0.332,0.653-0.332,1.203
		c0,0.557,0.105,0.96,0.32,1.214c0.213,0.252,0.492,0.378,0.835,0.378c0.275,0,0.505-0.084,0.69-0.253
		C111.448,969.346,111.565,969.084,111.616,968.733"/>
	<rect x="112.26" y="971.331" clip-path="url(#SVGID_2_)" width="4.654" height="0.508"/>
	<path clip-path="url(#SVGID_2_)" d="M117.35,970.251v-4.144h0.628v0.581c0.129-0.202,0.303-0.364,0.519-0.489
		c0.214-0.123,0.46-0.186,0.737-0.186c0.306,0,0.558,0.063,0.755,0.191c0.195,0.127,0.333,0.305,0.416,0.534
		c0.328-0.483,0.753-0.726,1.28-0.726c0.41,0,0.726,0.113,0.948,0.342c0.22,0.227,0.332,0.577,0.332,1.051v2.845h-0.699v-2.61
		c0-0.281-0.021-0.481-0.068-0.606c-0.045-0.123-0.127-0.223-0.248-0.299c-0.119-0.074-0.259-0.113-0.421-0.113
		c-0.291,0-0.532,0.096-0.726,0.291c-0.191,0.193-0.289,0.503-0.289,0.931v2.407h-0.702v-2.692c0-0.312-0.057-0.546-0.172-0.702
		c-0.113-0.156-0.3-0.234-0.562-0.234c-0.197,0-0.38,0.051-0.548,0.156c-0.168,0.104-0.289,0.256-0.365,0.457
		c-0.074,0.198-0.113,0.487-0.113,0.866v2.149H117.35"/>
	<path clip-path="url(#SVGID_2_)" d="M124.01,970.251v-4.144h0.702v4.144H124.01 M124.01,965.339v-0.808h0.702v0.808H124.01"/>
	<path clip-path="url(#SVGID_2_)" d="M126.311,967.781h2.313c-0.031-0.348-0.119-0.608-0.266-0.784
		c-0.222-0.27-0.513-0.405-0.87-0.405c-0.322,0-0.593,0.106-0.813,0.323C126.457,967.13,126.334,967.418,126.311,967.781
		 M128.616,968.916l0.726,0.09c-0.113,0.424-0.326,0.753-0.636,0.987c-0.308,0.234-0.704,0.352-1.186,0.352
		c-0.605,0-1.087-0.186-1.442-0.561c-0.355-0.372-0.532-0.896-0.532-1.57c0-0.696,0.179-1.236,0.538-1.622
		c0.359-0.385,0.823-0.578,1.397-0.578c0.554,0,1.006,0.188,1.357,0.566c0.352,0.376,0.527,0.906,0.527,1.591
		c0,0.041,0,0.104-0.004,0.188h-3.09c0.025,0.455,0.154,0.804,0.386,1.046c0.23,0.241,0.519,0.362,0.866,0.362
		c0.257,0,0.476-0.066,0.659-0.202C128.365,969.43,128.509,969.213,128.616,968.916"/>
	<path clip-path="url(#SVGID_2_)" d="M130.214,970.251v-4.144h0.632v0.628c0.16-0.292,0.31-0.487,0.447-0.581
		c0.136-0.094,0.287-0.141,0.451-0.141c0.236,0,0.476,0.074,0.722,0.227l-0.242,0.651c-0.171-0.102-0.343-0.152-0.515-0.152
		c-0.152,0-0.291,0.045-0.414,0.139c-0.121,0.092-0.209,0.221-0.262,0.385c-0.078,0.249-0.117,0.522-0.117,0.819v2.169H130.214"/>
	<path clip-path="url(#SVGID_2_)" d="M132.852,971.847l-0.078-0.66c0.152,0.041,0.287,0.063,0.402,0.063
		c0.156,0,0.281-0.025,0.375-0.078c0.094-0.05,0.17-0.124,0.23-0.218c0.043-0.07,0.115-0.244,0.215-0.523
		c0.012-0.039,0.033-0.095,0.063-0.171l-1.572-4.151h0.757l0.862,2.399c0.111,0.305,0.21,0.624,0.3,0.96
		c0.08-0.322,0.175-0.636,0.289-0.944l0.886-2.415h0.702l-1.576,4.214c-0.167,0.454-0.3,0.769-0.394,0.939
		c-0.125,0.23-0.267,0.4-0.429,0.51c-0.16,0.107-0.353,0.161-0.577,0.161C133.17,971.932,133.02,971.904,132.852,971.847"/>
	<path clip-path="url(#SVGID_2_)" d="M138.412,969.622l0.102,0.621c-0.197,0.041-0.375,0.063-0.531,0.063
		c-0.253,0-0.453-0.039-0.593-0.121c-0.14-0.08-0.238-0.186-0.296-0.318c-0.057-0.131-0.086-0.407-0.086-0.829v-2.384h-0.515v-0.546
		h0.515v-1.025l0.699-0.422v1.447h0.706v0.546h-0.706v2.423c0,0.199,0.011,0.328,0.037,0.387c0.023,0.057,0.064,0.102,0.121,0.137
		c0.055,0.032,0.135,0.05,0.24,0.05C138.181,969.649,138.283,969.642,138.412,969.622"/>
	<path clip-path="url(#SVGID_2_)" d="M139.622,967.781h2.314c-0.031-0.348-0.119-0.608-0.266-0.784
		c-0.222-0.27-0.513-0.405-0.87-0.405c-0.322,0-0.593,0.106-0.813,0.323C139.769,967.13,139.646,967.418,139.622,967.781
		 M141.928,968.916l0.726,0.09c-0.113,0.424-0.326,0.753-0.636,0.987c-0.308,0.234-0.704,0.352-1.186,0.352
		c-0.604,0-1.086-0.186-1.441-0.561c-0.355-0.372-0.533-0.896-0.533-1.57c0-0.696,0.18-1.236,0.539-1.622
		c0.359-0.385,0.823-0.578,1.396-0.578c0.554,0,1.007,0.188,1.358,0.566c0.351,0.376,0.527,0.906,0.527,1.591
		c0,0.041,0,0.104-0.004,0.188h-3.09c0.025,0.455,0.154,0.804,0.386,1.046c0.23,0.241,0.519,0.362,0.866,0.362
		c0.258,0,0.476-0.066,0.66-0.202C141.676,969.43,141.821,969.213,141.928,968.916"/>
	<path clip-path="url(#SVGID_2_)" d="M143.526,970.251v-4.144h0.632v0.628c0.16-0.292,0.311-0.487,0.447-0.581
		c0.137-0.094,0.287-0.141,0.451-0.141c0.236,0,0.476,0.074,0.722,0.227l-0.242,0.651c-0.171-0.102-0.343-0.152-0.515-0.152
		c-0.152,0-0.291,0.045-0.414,0.139c-0.121,0.092-0.208,0.221-0.261,0.385c-0.078,0.249-0.117,0.522-0.117,0.819v2.169H143.526"/>
	<path clip-path="url(#SVGID_2_)" d="M148.84,968.171c-0.254,0.104-0.636,0.191-1.147,0.266c-0.289,0.041-0.492,0.088-0.613,0.141
		c-0.119,0.051-0.21,0.127-0.277,0.229c-0.064,0.099-0.098,0.21-0.098,0.333c0,0.188,0.07,0.344,0.213,0.469
		c0.14,0.124,0.349,0.187,0.622,0.187c0.269,0,0.511-0.059,0.722-0.178c0.211-0.116,0.365-0.278,0.464-0.485
		c0.074-0.158,0.113-0.392,0.113-0.702V968.171 M148.899,969.739c-0.26,0.221-0.509,0.377-0.751,0.469
		c-0.24,0.09-0.498,0.137-0.775,0.137c-0.454,0-0.804-0.111-1.049-0.334c-0.244-0.223-0.367-0.505-0.367-0.853
		c0-0.203,0.045-0.388,0.139-0.556c0.091-0.168,0.212-0.303,0.363-0.404c0.148-0.102,0.318-0.177,0.505-0.229
		c0.137-0.035,0.346-0.07,0.625-0.105c0.566-0.066,0.983-0.148,1.252-0.242c0.002-0.096,0.004-0.156,0.004-0.184
		c0-0.284-0.066-0.487-0.199-0.604c-0.179-0.158-0.445-0.238-0.8-0.238c-0.33,0-0.573,0.057-0.731,0.174
		c-0.156,0.115-0.273,0.32-0.349,0.614l-0.687-0.093c0.063-0.293,0.164-0.531,0.308-0.712c0.143-0.18,0.349-0.32,0.62-0.418
		c0.27-0.098,0.583-0.146,0.94-0.146c0.353,0,0.64,0.041,0.862,0.125c0.22,0.082,0.382,0.188,0.488,0.314
		c0.103,0.125,0.175,0.284,0.218,0.478c0.023,0.119,0.035,0.336,0.035,0.647v0.937c0,0.651,0.014,1.065,0.045,1.238
		c0.029,0.172,0.088,0.338,0.178,0.498h-0.734C148.967,970.106,148.92,969.935,148.899,969.739"/>
	<path clip-path="url(#SVGID_2_)" d="M150.638,970.251v-4.144h0.632v0.589c0.305-0.454,0.743-0.683,1.319-0.683
		c0.25,0,0.478,0.045,0.688,0.135c0.209,0.09,0.365,0.207,0.47,0.354c0.104,0.144,0.176,0.317,0.218,0.519
		c0.026,0.129,0.039,0.356,0.039,0.683v2.548h-0.702v-2.521c0-0.285-0.027-0.499-0.082-0.642c-0.054-0.141-0.15-0.254-0.291-0.34
		c-0.139-0.084-0.302-0.127-0.49-0.127c-0.298,0-0.556,0.094-0.774,0.285c-0.216,0.189-0.326,0.55-0.326,1.081v2.263H150.638"/>
	<polyline clip-path="url(#SVGID_2_)" points="154.554,970.349 156.211,964.434 156.773,964.434 155.119,970.349 154.554,970.349 	
		"/>
	<path clip-path="url(#SVGID_2_)" d="M158.444,970.251l-1.576-4.144h0.741l0.89,2.481c0.096,0.268,0.184,0.546,0.265,0.835
		c0.063-0.219,0.148-0.48,0.262-0.788l0.921-2.528h0.722l-1.568,4.144H158.444"/>
	<path clip-path="url(#SVGID_2_)" d="M161.292,970.251v-4.144h0.702v4.144H161.292 M161.292,965.339v-0.808h0.702v0.808H161.292"/>
	<path clip-path="url(#SVGID_2_)" d="M163.593,967.781h2.313c-0.031-0.348-0.119-0.608-0.265-0.784
		c-0.223-0.27-0.513-0.405-0.87-0.405c-0.322,0-0.593,0.106-0.813,0.323C163.739,967.13,163.617,967.418,163.593,967.781
		 M165.899,968.916l0.726,0.09c-0.113,0.424-0.326,0.753-0.636,0.987c-0.308,0.234-0.704,0.352-1.186,0.352
		c-0.605,0-1.087-0.186-1.442-0.561c-0.355-0.372-0.532-0.896-0.532-1.57c0-0.696,0.179-1.236,0.538-1.622
		c0.359-0.385,0.823-0.578,1.397-0.578c0.554,0,1.006,0.188,1.357,0.566c0.352,0.376,0.527,0.906,0.527,1.591
		c0,0.041,0,0.104-0.004,0.188h-3.09c0.025,0.455,0.154,0.804,0.386,1.046c0.23,0.241,0.519,0.362,0.866,0.362
		c0.257,0,0.476-0.066,0.659-0.202C165.647,969.43,165.792,969.213,165.899,968.916"/>
	<path clip-path="url(#SVGID_2_)" d="M168.27,970.251l-1.268-4.144h0.726l0.659,2.392l0.246,0.89
		c0.01-0.043,0.082-0.328,0.214-0.854l0.66-2.427h0.722l0.62,2.403l0.207,0.792l0.238-0.8l0.71-2.396h0.683l-1.295,4.144h-0.729
		l-0.66-2.481l-0.16-0.706l-0.839,3.188H168.27"/>
	<path clip-path="url(#SVGID_2_)" d="M172.993,969.014l0.694-0.109c0.039,0.277,0.146,0.492,0.326,0.641
		c0.177,0.147,0.427,0.222,0.747,0.222c0.322,0,0.562-0.064,0.718-0.196c0.156-0.131,0.234-0.285,0.234-0.463
		c0-0.158-0.068-0.282-0.207-0.374c-0.096-0.063-0.335-0.141-0.718-0.238c-0.515-0.129-0.872-0.242-1.071-0.338
		c-0.199-0.094-0.349-0.226-0.453-0.394c-0.101-0.168-0.154-0.354-0.154-0.556c0-0.184,0.041-0.355,0.127-0.514
		c0.083-0.155,0.199-0.286,0.345-0.392c0.109-0.08,0.257-0.148,0.447-0.205c0.187-0.055,0.39-0.084,0.606-0.084
		c0.324,0,0.61,0.047,0.856,0.141c0.246,0.094,0.427,0.221,0.544,0.381c0.117,0.159,0.197,0.372,0.242,0.642l-0.687,0.094
		c-0.031-0.213-0.121-0.379-0.271-0.5c-0.148-0.119-0.361-0.179-0.634-0.179c-0.322,0-0.552,0.052-0.69,0.159
		c-0.137,0.105-0.207,0.23-0.207,0.375c0,0.09,0.027,0.172,0.086,0.245c0.057,0.074,0.146,0.137,0.269,0.188
		c0.07,0.025,0.277,0.086,0.621,0.18c0.495,0.133,0.843,0.24,1.04,0.325c0.195,0.084,0.349,0.207,0.462,0.369
		c0.111,0.16,0.168,0.361,0.168,0.601c0,0.234-0.068,0.455-0.205,0.661c-0.137,0.207-0.333,0.367-0.591,0.48
		c-0.257,0.113-0.548,0.169-0.874,0.169c-0.539,0-0.948-0.11-1.231-0.335C173.252,969.786,173.071,969.455,172.993,969.014"/>
	<polyline clip-path="url(#SVGID_2_)" points="176.743,970.349 178.401,964.434 178.962,964.434 177.308,970.349 176.743,970.349 	
		"/>
	<path clip-path="url(#SVGID_2_)" d="M179.486,970.251v-4.144h0.703v4.144H179.486 M179.486,965.339v-0.808h0.703v0.808H179.486"/>
	<path clip-path="url(#SVGID_2_)" d="M181.256,970.251v-4.144h0.628v0.581c0.128-0.202,0.302-0.364,0.519-0.489
		c0.215-0.123,0.46-0.186,0.737-0.186c0.307,0,0.558,0.063,0.755,0.191c0.195,0.127,0.333,0.305,0.416,0.534
		c0.328-0.483,0.753-0.726,1.279-0.726c0.41,0,0.726,0.113,0.948,0.342c0.221,0.227,0.332,0.577,0.332,1.051v2.845h-0.698v-2.61
		c0-0.281-0.021-0.481-0.068-0.606c-0.045-0.123-0.127-0.223-0.248-0.299c-0.119-0.074-0.26-0.113-0.421-0.113
		c-0.291,0-0.533,0.096-0.726,0.291c-0.191,0.193-0.289,0.503-0.289,0.931v2.407h-0.702v-2.692c0-0.312-0.057-0.546-0.172-0.702
		c-0.113-0.156-0.3-0.234-0.562-0.234c-0.197,0-0.38,0.051-0.548,0.156c-0.167,0.104-0.289,0.256-0.365,0.457
		c-0.074,0.198-0.113,0.487-0.113,0.866v2.149H181.256"/>
	<path clip-path="url(#SVGID_2_)" d="M190.558,968.171c-0.253,0.104-0.636,0.191-1.147,0.266c-0.289,0.041-0.492,0.088-0.613,0.141
		c-0.119,0.051-0.21,0.127-0.277,0.229c-0.064,0.099-0.098,0.21-0.098,0.333c0,0.188,0.07,0.344,0.213,0.469
		c0.14,0.124,0.349,0.187,0.622,0.187c0.27,0,0.511-0.059,0.722-0.178c0.211-0.116,0.365-0.278,0.464-0.485
		c0.074-0.158,0.113-0.392,0.113-0.702V968.171 M190.616,969.739c-0.26,0.221-0.509,0.377-0.751,0.469
		c-0.24,0.09-0.498,0.137-0.774,0.137c-0.455,0-0.804-0.111-1.05-0.334c-0.244-0.223-0.367-0.505-0.367-0.853
		c0-0.203,0.045-0.388,0.139-0.556c0.092-0.168,0.212-0.303,0.363-0.404c0.148-0.102,0.318-0.177,0.505-0.229
		c0.136-0.035,0.345-0.07,0.624-0.105c0.566-0.066,0.983-0.148,1.252-0.242c0.002-0.096,0.004-0.156,0.004-0.184
		c0-0.284-0.066-0.487-0.199-0.604c-0.179-0.158-0.444-0.238-0.8-0.238c-0.33,0-0.573,0.057-0.731,0.174
		c-0.156,0.115-0.273,0.32-0.349,0.614l-0.687-0.093c0.063-0.293,0.164-0.531,0.308-0.712c0.143-0.18,0.349-0.32,0.62-0.418
		c0.27-0.098,0.583-0.146,0.94-0.146c0.353,0,0.64,0.041,0.862,0.125c0.221,0.082,0.382,0.188,0.488,0.314
		c0.104,0.125,0.175,0.284,0.218,0.478c0.023,0.119,0.035,0.336,0.035,0.647v0.937c0,0.651,0.014,1.065,0.045,1.238
		c0.029,0.172,0.088,0.338,0.178,0.498h-0.733C190.685,970.106,190.638,969.935,190.616,969.739"/>
	<path clip-path="url(#SVGID_2_)" d="M192.808,968.105c0,0.542,0.107,0.939,0.324,1.189c0.215,0.25,0.486,0.374,0.812,0.374
		c0.322,0,0.593-0.122,0.812-0.372c0.218-0.248,0.328-0.638,0.328-1.168c0-0.508-0.111-0.89-0.337-1.147
		c-0.224-0.258-0.496-0.386-0.813-0.386c-0.312,0-0.578,0.126-0.796,0.38S192.808,967.605,192.808,968.105 M192.226,970.594
		l0.683,0.102c0.027,0.211,0.107,0.363,0.238,0.46c0.174,0.129,0.412,0.195,0.714,0.195c0.324,0,0.576-0.064,0.753-0.195
		c0.176-0.128,0.297-0.312,0.359-0.546c0.035-0.143,0.055-0.442,0.051-0.901c-0.306,0.361-0.688,0.543-1.147,0.543
		c-0.569,0-1.01-0.205-1.323-0.617c-0.312-0.409-0.468-0.902-0.468-1.479c0-0.394,0.07-0.759,0.214-1.094
		c0.143-0.334,0.349-0.591,0.623-0.774c0.271-0.182,0.591-0.273,0.958-0.273c0.488,0,0.892,0.197,1.209,0.594v-0.5h0.647v3.581
		c0,0.645-0.064,1.103-0.197,1.372c-0.131,0.269-0.339,0.481-0.624,0.638c-0.285,0.155-0.634,0.233-1.052,0.233
		c-0.494,0-0.894-0.11-1.198-0.333S192.214,971.043,192.226,970.594"/>
	<path clip-path="url(#SVGID_2_)" d="M197.328,967.781h2.313c-0.031-0.348-0.119-0.608-0.265-0.784
		c-0.222-0.27-0.513-0.405-0.87-0.405c-0.322,0-0.593,0.106-0.813,0.323C197.475,967.13,197.352,967.418,197.328,967.781
		 M199.634,968.916l0.726,0.09c-0.113,0.424-0.326,0.753-0.636,0.987c-0.308,0.234-0.704,0.352-1.186,0.352
		c-0.604,0-1.086-0.186-1.441-0.561c-0.355-0.372-0.533-0.896-0.533-1.57c0-0.696,0.18-1.236,0.539-1.622
		c0.359-0.385,0.823-0.578,1.396-0.578c0.554,0,1.007,0.188,1.358,0.566c0.351,0.376,0.527,0.906,0.527,1.591
		c0,0.041,0,0.104-0.004,0.188h-3.09c0.025,0.455,0.154,0.804,0.386,1.046c0.23,0.241,0.519,0.362,0.866,0.362
		c0.258,0,0.476-0.066,0.659-0.202C199.382,969.43,199.527,969.213,199.634,968.916"/>
	<path clip-path="url(#SVGID_2_)" d="M200.959,969.014l0.694-0.109c0.039,0.277,0.146,0.492,0.326,0.641
		c0.178,0.147,0.427,0.222,0.747,0.222c0.322,0,0.562-0.064,0.718-0.196c0.156-0.131,0.234-0.285,0.234-0.463
		c0-0.158-0.068-0.282-0.207-0.374c-0.095-0.063-0.335-0.141-0.718-0.238c-0.515-0.129-0.872-0.242-1.071-0.338
		c-0.199-0.094-0.349-0.226-0.453-0.394c-0.102-0.168-0.154-0.354-0.154-0.556c0-0.184,0.041-0.355,0.127-0.514
		c0.084-0.155,0.199-0.286,0.345-0.392c0.109-0.08,0.258-0.148,0.447-0.205c0.188-0.055,0.39-0.084,0.607-0.084
		c0.324,0,0.61,0.047,0.856,0.141c0.246,0.094,0.427,0.221,0.544,0.381c0.117,0.159,0.197,0.372,0.242,0.642l-0.687,0.094
		c-0.031-0.213-0.121-0.379-0.271-0.5c-0.148-0.119-0.361-0.179-0.634-0.179c-0.322,0-0.552,0.052-0.69,0.159
		c-0.137,0.105-0.207,0.23-0.207,0.375c0,0.09,0.027,0.172,0.085,0.245c0.057,0.074,0.146,0.137,0.27,0.188
		c0.07,0.025,0.277,0.086,0.62,0.18c0.496,0.133,0.843,0.24,1.04,0.325c0.195,0.084,0.349,0.207,0.462,0.369
		c0.111,0.16,0.168,0.361,0.168,0.601c0,0.234-0.068,0.455-0.205,0.661c-0.137,0.207-0.334,0.367-0.591,0.48
		s-0.548,0.169-0.874,0.169c-0.538,0-0.948-0.11-1.231-0.335C201.219,969.786,201.037,969.455,200.959,969.014"/>
	<polyline clip-path="url(#SVGID_2_)" points="204.708,970.349 206.367,964.434 206.929,964.434 205.274,970.349 204.708,970.349 	
		"/>
	<path clip-path="url(#SVGID_2_)" d="M207.168,969.014l0.694-0.109c0.039,0.277,0.146,0.492,0.326,0.641
		c0.178,0.147,0.427,0.222,0.747,0.222c0.322,0,0.562-0.064,0.718-0.196c0.156-0.131,0.234-0.285,0.234-0.463
		c0-0.158-0.068-0.282-0.207-0.374c-0.095-0.063-0.335-0.141-0.718-0.238c-0.515-0.129-0.872-0.242-1.071-0.338
		c-0.199-0.094-0.349-0.226-0.453-0.394c-0.102-0.168-0.154-0.354-0.154-0.556c0-0.184,0.041-0.355,0.127-0.514
		c0.084-0.155,0.199-0.286,0.345-0.392c0.109-0.08,0.258-0.148,0.447-0.205c0.188-0.055,0.39-0.084,0.607-0.084
		c0.324,0,0.61,0.047,0.856,0.141c0.246,0.094,0.427,0.221,0.544,0.381c0.117,0.159,0.197,0.372,0.242,0.642l-0.687,0.094
		c-0.031-0.213-0.121-0.379-0.271-0.5c-0.148-0.119-0.361-0.179-0.634-0.179c-0.322,0-0.552,0.052-0.69,0.159
		c-0.137,0.105-0.207,0.23-0.207,0.375c0,0.09,0.027,0.172,0.085,0.245c0.057,0.074,0.146,0.137,0.27,0.188
		c0.07,0.025,0.277,0.086,0.62,0.18c0.496,0.133,0.843,0.24,1.04,0.325c0.195,0.084,0.349,0.207,0.462,0.369
		c0.111,0.16,0.168,0.361,0.168,0.601c0,0.234-0.068,0.455-0.205,0.661c-0.137,0.207-0.334,0.367-0.591,0.48
		s-0.548,0.169-0.874,0.169c-0.538,0-0.948-0.11-1.231-0.335C207.427,969.786,207.246,969.455,207.168,969.014"/>
	<path clip-path="url(#SVGID_2_)" d="M211.975,967.781h2.313c-0.031-0.348-0.119-0.608-0.266-0.784
		c-0.222-0.27-0.513-0.405-0.87-0.405c-0.322,0-0.593,0.106-0.813,0.323C212.121,967.13,211.998,967.418,211.975,967.781
		 M214.28,968.916l0.726,0.09c-0.113,0.424-0.326,0.753-0.636,0.987c-0.309,0.234-0.705,0.352-1.186,0.352
		c-0.605,0-1.087-0.186-1.442-0.561c-0.355-0.372-0.533-0.896-0.533-1.57c0-0.696,0.18-1.236,0.539-1.622
		c0.359-0.385,0.823-0.578,1.397-0.578c0.554,0,1.006,0.188,1.357,0.566c0.351,0.376,0.527,0.906,0.527,1.591
		c0,0.041,0,0.104-0.004,0.188h-3.09c0.025,0.455,0.154,0.804,0.386,1.046c0.23,0.241,0.519,0.362,0.866,0.362
		c0.257,0,0.476-0.066,0.659-0.202C214.029,969.43,214.173,969.213,214.28,968.916"/>
	<path clip-path="url(#SVGID_2_)" d="M215.878,970.251v-4.144h0.632v0.628c0.16-0.292,0.31-0.487,0.447-0.581
		c0.136-0.094,0.287-0.141,0.451-0.141c0.236,0,0.476,0.074,0.722,0.227l-0.242,0.651c-0.171-0.102-0.343-0.152-0.515-0.152
		c-0.152,0-0.291,0.045-0.414,0.139c-0.121,0.092-0.209,0.221-0.262,0.385c-0.078,0.249-0.117,0.522-0.117,0.819v2.169H215.878"/>
	<path clip-path="url(#SVGID_2_)" d="M219.698,970.251l-1.576-4.144h0.741l0.89,2.481c0.095,0.268,0.183,0.546,0.265,0.835
		c0.063-0.219,0.148-0.48,0.261-0.788l0.921-2.528h0.722l-1.568,4.144H219.698"/>
	<path clip-path="url(#SVGID_2_)" d="M222.546,970.251v-4.144h0.702v4.144H222.546 M222.546,965.339v-0.808h0.702v0.808H222.546"/>
	<path clip-path="url(#SVGID_2_)" d="M227.02,968.733l0.69,0.09c-0.074,0.476-0.267,0.848-0.579,1.117
		c-0.311,0.27-0.693,0.404-1.145,0.404c-0.566,0-1.022-0.186-1.368-0.557c-0.343-0.37-0.517-0.9-0.517-1.594
		c0-0.446,0.074-0.838,0.223-1.174c0.148-0.336,0.373-0.587,0.677-0.755c0.302-0.168,0.632-0.252,0.989-0.252
		c0.449,0,0.817,0.113,1.104,0.342c0.285,0.227,0.468,0.55,0.55,0.97l-0.683,0.104c-0.064-0.276-0.18-0.487-0.345-0.628
		c-0.164-0.141-0.365-0.21-0.599-0.21c-0.353,0-0.64,0.126-0.862,0.38c-0.22,0.254-0.332,0.653-0.332,1.203
		c0,0.557,0.105,0.96,0.32,1.214c0.212,0.252,0.491,0.378,0.834,0.378c0.275,0,0.505-0.084,0.691-0.253
		C226.852,969.346,226.969,969.084,227.02,968.733"/>
	<path clip-path="url(#SVGID_2_)" d="M228.315,970.251v-4.144h0.702v4.144H228.315 M228.315,965.339v-0.808h0.702v0.808H228.315"/>
	<path clip-path="url(#SVGID_2_)" d="M230.545,968.179c0,0.531,0.115,0.927,0.347,1.192c0.23,0.263,0.523,0.396,0.874,0.396
		c0.347,0,0.638-0.133,0.87-0.397c0.23-0.266,0.347-0.669,0.347-1.214c0-0.511-0.115-0.898-0.349-1.164
		c-0.232-0.264-0.521-0.396-0.868-0.396c-0.351,0-0.642,0.13-0.874,0.394C230.663,967.251,230.545,967.648,230.545,968.179
		 M229.824,968.179c0-0.767,0.213-1.334,0.64-1.704c0.355-0.307,0.79-0.461,1.303-0.461c0.57,0,1.034,0.186,1.397,0.561
		c0.361,0.372,0.542,0.887,0.542,1.546c0,0.533-0.08,0.952-0.24,1.259c-0.16,0.304-0.392,0.542-0.698,0.712
		c-0.305,0.168-0.638,0.253-1.001,0.253c-0.579,0-1.047-0.185-1.406-0.558C230.003,969.416,229.824,968.879,229.824,968.179"/>
	<rect x="234.255" y="967.828" clip-path="url(#SVGID_2_)" width="2.157" height="0.706"/>
	<path clip-path="url(#SVGID_2_)" d="M239.639,970.251h-0.702v-4.475c-0.168,0.159-0.39,0.321-0.665,0.483
		c-0.273,0.16-0.521,0.281-0.74,0.362v-0.679c0.392-0.183,0.736-0.407,1.03-0.671c0.292-0.261,0.501-0.517,0.624-0.765h0.453
		V970.251"/>
	<rect x="241.83" y="969.451" clip-path="url(#SVGID_2_)" width="0.8" height="0.8"/>
	<path clip-path="url(#SVGID_2_)" d="M243.563,969.014l0.694-0.109c0.039,0.277,0.146,0.492,0.326,0.641
		c0.177,0.147,0.427,0.222,0.747,0.222c0.322,0,0.562-0.064,0.718-0.196c0.156-0.131,0.234-0.285,0.234-0.463
		c0-0.158-0.068-0.282-0.207-0.374c-0.096-0.063-0.335-0.141-0.718-0.238c-0.515-0.129-0.872-0.242-1.071-0.338
		c-0.199-0.094-0.349-0.226-0.452-0.394c-0.102-0.168-0.154-0.354-0.154-0.556c0-0.184,0.041-0.355,0.127-0.514
		c0.083-0.155,0.199-0.286,0.345-0.392c0.109-0.08,0.257-0.148,0.447-0.205c0.187-0.055,0.39-0.084,0.606-0.084
		c0.324,0,0.61,0.047,0.856,0.141c0.246,0.094,0.427,0.221,0.544,0.381c0.117,0.159,0.197,0.372,0.242,0.642l-0.687,0.094
		c-0.031-0.213-0.121-0.379-0.271-0.5c-0.148-0.119-0.361-0.179-0.634-0.179c-0.322,0-0.552,0.052-0.69,0.159
		c-0.137,0.105-0.207,0.23-0.207,0.375c0,0.09,0.027,0.172,0.086,0.245c0.057,0.074,0.146,0.137,0.269,0.188
		c0.07,0.025,0.277,0.086,0.621,0.18c0.495,0.133,0.843,0.24,1.04,0.325c0.195,0.084,0.349,0.207,0.462,0.369
		c0.111,0.16,0.168,0.361,0.168,0.601c0,0.234-0.068,0.455-0.205,0.661c-0.137,0.207-0.333,0.367-0.591,0.48
		c-0.258,0.113-0.548,0.169-0.874,0.169c-0.539,0-0.948-0.11-1.231-0.335C243.823,969.786,243.642,969.455,243.563,969.014"/>
	<path clip-path="url(#SVGID_2_)" d="M248.991,970.251l-1.577-4.144h0.742l0.89,2.481c0.095,0.268,0.183,0.546,0.265,0.835
		c0.063-0.219,0.148-0.48,0.261-0.788l0.921-2.528h0.722l-1.568,4.144H248.991"/>
	<path clip-path="url(#SVGID_2_)" d="M252.287,968.105c0,0.542,0.107,0.939,0.324,1.189c0.214,0.25,0.485,0.374,0.812,0.374
		c0.322,0,0.593-0.122,0.812-0.372c0.218-0.248,0.328-0.638,0.328-1.168c0-0.508-0.111-0.89-0.337-1.147
		c-0.225-0.258-0.496-0.386-0.813-0.386c-0.313,0-0.578,0.126-0.796,0.38C252.396,967.229,252.287,967.605,252.287,968.105
		 M251.706,970.594l0.683,0.102c0.027,0.211,0.107,0.363,0.238,0.46c0.173,0.129,0.412,0.195,0.714,0.195
		c0.324,0,0.575-0.064,0.753-0.195c0.176-0.128,0.296-0.312,0.359-0.546c0.035-0.143,0.055-0.442,0.051-0.901
		c-0.306,0.361-0.688,0.543-1.147,0.543c-0.57,0-1.011-0.205-1.323-0.617c-0.312-0.409-0.468-0.902-0.468-1.479
		c0-0.394,0.07-0.759,0.215-1.094c0.142-0.334,0.349-0.591,0.622-0.774c0.271-0.182,0.591-0.273,0.958-0.273
		c0.488,0,0.892,0.197,1.209,0.594v-0.5h0.647v3.581c0,0.645-0.064,1.103-0.197,1.372c-0.131,0.269-0.34,0.481-0.625,0.638
		c-0.285,0.155-0.634,0.233-1.051,0.233c-0.494,0-0.894-0.11-1.198-0.333S251.694,971.043,251.706,970.594"/>
	<path clip-path="url(#SVGID_2_)" d="M778.442,970.251h-0.702v-4.475c-0.168,0.159-0.391,0.321-0.665,0.483
		c-0.273,0.16-0.521,0.281-0.74,0.362v-0.679c0.393-0.183,0.735-0.407,1.03-0.671c0.293-0.261,0.502-0.517,0.624-0.765h0.453
		V970.251"/>
	<polyline clip-path="url(#SVGID_2_)" points="779.899,970.349 781.558,964.434 782.119,964.434 780.465,970.349 779.899,970.349 	
		"/>
	<path clip-path="url(#SVGID_2_)" d="M785.09,970.251h-0.702v-4.475c-0.168,0.159-0.39,0.321-0.665,0.483
		c-0.273,0.16-0.521,0.281-0.739,0.362v-0.679c0.392-0.183,0.735-0.407,1.03-0.671c0.292-0.261,0.501-0.517,0.624-0.765h0.452
		V970.251"/>
</g>
<rect y="-174.26" fill="#FFFFFF" width="784.053" height="1132.505"/>
<g>
	<defs>
		<rect id="SVGID_3_" y="-174.245" width="784.053" height="1132.505"/>
	</defs>
	<clipPath id="SVGID_4_">
		<use xlink:href="#SVGID_3_"  overflow="visible"/>
	</clipPath>
	<g clip-path="url(#SVGID_4_)">
		<defs>
			<rect id="SVGID_5_" x="-28.935" y="-203.207" width="841.951" height="1190.46"/>
		</defs>
		<clipPath id="SVGID_6_">
			<use xlink:href="#SVGID_5_"  overflow="visible"/>
		</clipPath>
		<path clip-path="url(#SVGID_6_)" fill="#12AFAF" d="M784.053,392.009c0,6.416-0.162,12.824-0.474,19.232
			c-0.318,6.407-0.786,12.804-1.416,19.188s-1.416,12.75-2.358,19.098c-0.941,6.349-2.033,12.666-3.287,18.954
			c-1.255,6.294-2.658,12.553-4.219,18.774c-1.554,6.222-3.264,12.402-5.13,18.546c-1.859,6.138-3.876,12.228-6.036,18.264
			c-2.16,6.042-4.47,12.024-6.924,17.952s-5.052,11.79-7.8,17.592c-2.742,5.796-5.622,11.526-8.646,17.185
			c-3.029,5.658-6.186,11.237-9.485,16.74c-3.3,5.502-6.732,10.92-10.296,16.254c-3.564,5.334-7.254,10.577-11.076,15.731
			s-7.771,10.206-11.838,15.168c-4.074,4.956-8.263,9.816-12.57,14.568s-8.729,9.396-13.266,13.938
			c-4.542,4.536-9.187,8.958-13.938,13.267c-4.752,4.308-9.611,8.496-14.567,12.563c-4.963,4.068-10.021,8.017-15.169,11.838
			c-5.153,3.822-10.397,7.513-15.731,11.076c-5.334,3.564-10.758,6.996-16.26,10.296s-11.082,6.456-16.74,9.486
			c-5.658,3.024-11.388,5.904-17.188,8.646c-5.799,2.742-11.662,5.347-17.59,7.801s-11.912,4.764-17.953,6.924
			s-12.131,4.17-18.27,6.036c-6.14,1.859-12.321,3.569-18.545,5.13c-6.223,1.56-12.481,2.964-18.774,4.218
			c-6.292,1.248-12.611,2.346-18.958,3.288c-6.346,0.942-12.712,1.722-19.097,2.352c-6.384,0.631-12.781,1.104-19.189,1.416
			c-6.408,0.318-12.819,0.475-19.235,0.475s-12.827-0.156-19.236-0.475c-6.408-0.312-12.804-0.785-19.189-1.416
			c-6.385-0.63-12.751-1.409-19.097-2.352c-6.346-0.942-12.666-2.04-18.958-3.288c-6.293-1.254-12.551-2.658-18.774-4.218
			c-6.224-1.561-12.405-3.271-18.545-5.13c-6.139-1.866-12.23-3.876-18.27-6.036c-6.041-2.16-12.025-4.47-17.953-6.924
			c-5.927-2.454-11.791-5.059-17.59-7.801c-5.8-2.741-11.529-5.621-17.187-8.646c-5.658-3.03-11.239-6.187-16.742-9.486
			c-5.503-3.3-10.922-6.731-16.257-10.296c-5.334-3.563-10.578-7.254-15.731-11.076c-5.153-3.821-10.21-7.77-15.169-11.838
			c-4.96-4.067-9.816-8.256-14.57-12.563c-4.754-4.309-9.399-8.73-13.936-13.267c-4.536-4.542-8.959-9.186-13.267-13.938
			c-4.309-4.752-8.498-9.612-12.569-14.568c-4.069-4.962-8.016-10.014-11.838-15.168c-3.822-5.154-7.515-10.397-11.079-15.731
			c-3.564-5.334-6.996-10.752-10.294-16.254c-3.299-5.503-6.46-11.082-9.484-16.74c-3.025-5.658-5.908-11.389-8.651-17.185
			c-2.744-5.802-5.343-11.664-7.798-17.592c-2.455-5.928-4.763-11.91-6.925-17.952c-2.161-6.036-4.173-12.126-6.036-18.264
			c-1.862-6.144-3.573-12.324-5.132-18.546c-1.558-6.222-2.964-12.48-4.215-18.774c-1.252-6.288-2.349-12.605-3.29-18.954
			c-0.941-6.348-1.726-12.714-2.355-19.098s-1.101-12.78-1.416-19.188C0.157,404.833,0,398.425,0,392.009
			c0-6.415,0.157-12.827,0.472-19.234c0.315-6.408,0.787-12.804,1.416-19.188c0.629-6.384,1.414-12.75,2.355-19.095
			c0.941-6.346,2.038-12.665,3.29-18.957c1.251-6.292,2.657-12.55,4.215-18.772c1.559-6.224,3.27-12.405,5.132-18.543
			c1.863-6.14,3.875-12.229,6.036-18.269c2.162-6.04,4.47-12.024,6.925-17.951c2.455-5.927,5.054-11.79,7.798-17.59
			c2.743-5.799,5.626-11.527,8.651-17.185c3.024-5.658,6.185-11.238,9.484-16.74c3.298-5.503,6.729-10.922,10.294-16.256
			c3.564-5.334,7.257-10.577,11.079-15.729c3.822-5.153,7.769-10.209,11.838-15.168c4.071-4.959,8.26-9.815,12.569-14.568
			c4.308-4.754,8.731-9.399,13.267-13.935c4.537-4.536,9.182-8.958,13.936-13.266c4.754-4.309,9.61-8.498,14.57-12.567
			c4.959-4.07,10.016-8.016,15.169-11.838c5.153-3.821,10.397-7.514,15.731-11.078c5.335-3.564,10.754-6.996,16.257-10.294
			c5.503-3.297,11.084-6.459,16.742-9.483c5.658-3.024,11.387-5.907,17.187-8.651c5.799-2.742,11.663-5.341,17.59-7.796
			c5.928-2.455,11.912-4.763,17.953-6.925c6.04-2.161,12.131-4.173,18.27-6.035c6.14-1.862,12.321-3.572,18.545-5.131
			c6.223-1.559,12.481-2.964,18.774-4.216c6.292-1.251,12.612-2.348,18.958-3.289c6.346-0.941,12.712-1.727,19.097-2.356
			c6.385-0.628,12.781-1.1,19.189-1.415c6.409-0.314,12.82-0.472,19.236-0.472s12.827,0.158,19.235,0.472
			c6.408,0.315,12.806,0.787,19.189,1.415c6.385,0.629,12.751,1.415,19.097,2.356c6.347,0.941,12.666,2.038,18.958,3.289
			c6.293,1.252,12.552,2.657,18.774,4.216c6.224,1.559,12.405,3.269,18.545,5.131c6.139,1.862,12.229,3.874,18.27,6.035
			c6.041,2.162,12.025,4.47,17.953,6.925c5.928,2.455,11.791,5.054,17.59,7.796c5.801,2.744,11.53,5.627,17.188,8.651
			s11.238,6.186,16.74,9.483c5.502,3.298,10.926,6.73,16.26,10.294s10.578,7.257,15.731,11.078
			c5.148,3.822,10.206,7.768,15.169,11.838c4.956,4.069,9.815,8.258,14.567,12.567c4.752,4.308,9.396,8.73,13.938,13.266
			c4.536,4.536,8.958,9.181,13.266,13.935c4.308,4.753,8.496,9.609,12.57,14.568c4.067,4.959,8.016,10.015,11.838,15.168
			c3.822,5.153,7.512,10.396,11.076,15.729c3.563,5.334,6.996,10.753,10.296,16.256c3.3,5.502,6.456,11.082,9.485,16.74
			c3.024,5.658,5.904,11.386,8.646,17.185c2.748,5.8,5.346,11.663,7.8,17.59c2.454,5.927,4.764,11.911,6.924,17.951
			s4.177,12.129,6.036,18.269c1.866,6.138,3.576,12.319,5.13,18.543c1.561,6.222,2.964,12.48,4.219,18.772
			c1.254,6.292,2.346,12.611,3.287,18.957c0.942,6.345,1.729,12.711,2.358,19.095c0.63,6.384,1.098,12.78,1.416,19.188
			C783.891,379.182,784.053,385.594,784.053,392.009"/>
	</g>
	<path clip-path="url(#SVGID_4_)" fill-rule="evenodd" clip-rule="evenodd" fill="#FFFFFF" d="M220.043,662.367
		c-24.097-70.071-47.367-137.743-71.349-207.481c79.942-38.068,157.604-75.285,235.623-111.728
		c5.274-2.465,14.074-1.021,19.795,1.667c76.188,35.772,152.119,72.101,231.246,109.776c-9.563,28.759-18.662,56.677-28.13,84.462
		c-14.249,41.802-29.64,83.247-42.757,125.399c-5.953,19.152-14.835,24.427-33.633,17.708
		c-27.066-9.666-54.557-18.233-82.115-26.414C381.831,635.887,341.231,617.683,220.043,662.367z"/>
	<path clip-path="url(#SVGID_4_)" fill-rule="evenodd" clip-rule="evenodd" fill="#FFFFFF" d="M227.663,398.444
		c0-39.645-1.462-73.435,1.105-106.906c0.586-7.625,15.014-20.191,23.224-20.312c92.745-1.462,185.517-0.688,278.277-1.148
		c18.568-0.084,26.507,8.168,26.52,25.81c0.027,31.863,0.009,63.727,0.009,102.714c-30.16-14.295-58.609-23.551-82.238-39.809
		c-56.525-38.908-109.846-37.531-165.967,0.574C285.952,374.744,258.919,383.649,227.663,398.444z"/>
	<path clip-path="url(#SVGID_4_)" fill-rule="evenodd" clip-rule="evenodd" fill="#FFFFFF" d="M297.525,250.359
		c5.924-38.395,37.827-14.618,56.401-28.525c2.707-17.331,5.976-38.268,9.438-60.461c18.988,0,37.14,0,57.132,0
		c3.332,21.27,6.609,42.213,9.559,61.035c17.553,13.745,49.707-11.149,56.473,27.952
		C423.865,250.359,362.919,250.359,297.525,250.359z"/>
	<path clip-path="url(#SVGID_4_)" fill-rule="evenodd" clip-rule="evenodd" fill="#FFFFFF" d="M281.493,89.866
		c1.224-33.938,24.801-56.326,43.639-46.164c23.375,12.605,45.118,32.374,60.271,54.126c6.279,9.018,33.386,26.272,9.464,41.826
		c-7.585,4.936-26.438-8.023-40.34-12.095c-13.345-3.906-28.356-4.414-40.095-10.957C300.294,108.713,288.833,96.035,281.493,89.866
		z"/>
</g>
</svg>
