<?xml version="1.0" encoding="utf-8"?>
<!-- Generator: Adobe Illustrator 16.0.0, SVG Export Plug-In . SVG Version: 6.00 Build 0)  -->
<!DOCTYPE svg PUBLIC "-//W3C//DTD SVG 1.1//EN" "http://www.w3.org/Graphics/SVG/1.1/DTD/svg11.dtd">
<svg version="1.1" id="Capa_1" xmlns="http://www.w3.org/2000/svg" xmlns:xlink="http://www.w3.org/1999/xlink" x="0px" y="0px"
	 width="842px" height="1191px" viewBox="0 0 842 1191" enable-background="new 0 0 842 1191" xml:space="preserve">
<g display="none">
	<defs>
		<rect id="SVGID_1_" x="0.03" y="0.241" width="841.951" height="1190.46"/>
	</defs>
	<clipPath id="SVGID_2_" display="inline">
		<use xlink:href="#SVGID_1_"  overflow="visible"/>
	</clipPath>
	<rect x="0.03" y="0.241" display="inline" clip-path="url(#SVGID_2_)" fill="#FFFFFF" width="841.951" height="1190.46"/>
	<path display="inline" clip-path="url(#SVGID_2_)" d="M27.529,20.359c0,0.242,0.051,0.472,0.154,0.694
		c0.102,0.221,0.246,0.388,0.431,0.505c0.184,0.115,0.378,0.173,0.582,0.173c0.296,0,0.55-0.119,0.765-0.358
		c0.212-0.238,0.32-0.564,0.32-0.976c0-0.394-0.105-0.706-0.316-0.935c-0.211-0.226-0.476-0.341-0.796-0.341
		c-0.316,0-0.585,0.113-0.808,0.341C27.64,19.69,27.529,19.989,27.529,20.359 M30.397,17.894l-0.699,0.055
		c-0.062-0.275-0.15-0.476-0.265-0.601c-0.189-0.199-0.423-0.3-0.702-0.3c-0.223,0-0.419,0.063-0.589,0.187
		c-0.22,0.16-0.394,0.396-0.523,0.706c-0.126,0.309-0.193,0.749-0.199,1.323c0.168-0.257,0.375-0.449,0.62-0.574
		c0.244-0.125,0.5-0.187,0.769-0.187c0.468,0,0.866,0.172,1.196,0.517c0.328,0.343,0.493,0.79,0.493,1.336
		c0,0.359-0.076,0.692-0.232,1.001c-0.154,0.308-0.367,0.544-0.638,0.708c-0.269,0.164-0.577,0.246-0.92,0.246
		c-0.585,0-1.062-0.214-1.432-0.646c-0.369-0.429-0.554-1.139-0.554-2.128c0-1.104,0.203-1.907,0.612-2.411
		c0.355-0.437,0.835-0.656,1.44-0.656c0.449,0,0.817,0.125,1.106,0.379C30.167,17.1,30.338,17.449,30.397,17.894"/>
	<polyline display="inline" clip-path="url(#SVGID_2_)" points="30.864,22.31 32.522,16.396 33.083,16.396 31.429,22.31 
		30.864,22.31 	"/>
	<path display="inline" clip-path="url(#SVGID_2_)" d="M35.66,20.2v-2.579L33.869,20.2H35.66 M35.66,22.212v-1.369h-2.481V20.2
		l2.61-3.707h0.574V20.2h0.772v0.644h-0.772v1.369H35.66"/>
	<polyline display="inline" clip-path="url(#SVGID_2_)" points="37.52,22.31 39.178,16.396 39.74,16.396 38.085,22.31 37.52,22.31 	
		"/>
	<path display="inline" clip-path="url(#SVGID_2_)" d="M43.755,21.538v0.675h-3.781c-0.003-0.167,0.021-0.332,0.082-0.488
		c0.096-0.257,0.25-0.511,0.462-0.761c0.211-0.25,0.517-0.538,0.919-0.866c0.62-0.509,1.042-0.913,1.26-1.211
		c0.218-0.296,0.328-0.579,0.328-0.845c0-0.277-0.1-0.513-0.298-0.704c-0.199-0.191-0.458-0.287-0.778-0.287
		c-0.338,0-0.609,0.102-0.812,0.304c-0.203,0.203-0.305,0.484-0.309,0.843l-0.722-0.074c0.049-0.538,0.234-0.948,0.558-1.23
		c0.322-0.281,0.755-0.424,1.299-0.424c0.548,0,0.983,0.152,1.303,0.457s0.48,0.681,0.48,1.131c0,0.229-0.047,0.453-0.14,0.675
		c-0.094,0.221-0.248,0.453-0.466,0.699c-0.217,0.244-0.578,0.579-1.083,1.006c-0.421,0.353-0.69,0.593-0.812,0.72
		c-0.119,0.125-0.218,0.252-0.296,0.38H43.755"/>
	<path display="inline" clip-path="url(#SVGID_2_)" d="M45.229,19.392c0,0.938,0.109,1.562,0.33,1.875
		c0.219,0.31,0.49,0.466,0.813,0.466c0.322,0,0.593-0.156,0.813-0.468c0.219-0.313,0.33-0.937,0.33-1.873
		c0-0.94-0.109-1.566-0.33-1.876c-0.218-0.309-0.494-0.464-0.821-0.464c-0.322,0-0.58,0.136-0.772,0.41
		C45.35,17.808,45.229,18.452,45.229,19.392 M44.507,19.392c0-0.675,0.068-1.219,0.208-1.633c0.139-0.412,0.345-0.729,0.621-0.954
		c0.273-0.223,0.618-0.336,1.036-0.336c0.306,0,0.576,0.061,0.808,0.186c0.23,0.123,0.421,0.3,0.574,0.535
		c0.15,0.232,0.269,0.515,0.355,0.85c0.086,0.334,0.128,0.784,0.128,1.352c0,0.671-0.068,1.211-0.207,1.625
		c-0.137,0.412-0.343,0.729-0.619,0.956c-0.273,0.224-0.62,0.337-1.04,0.337c-0.55,0-0.983-0.197-1.299-0.593
		C44.696,21.241,44.507,20.467,44.507,19.392"/>
	<path display="inline" clip-path="url(#SVGID_2_)" d="M51.595,22.212h-0.703v-4.475c-0.167,0.16-0.39,0.322-0.665,0.484
		c-0.273,0.16-0.521,0.281-0.739,0.363v-0.679c0.392-0.184,0.735-0.408,1.03-0.671c0.293-0.261,0.501-0.517,0.625-0.765h0.453
		V22.212"/>
	<path display="inline" clip-path="url(#SVGID_2_)" d="M54.106,20.563c0,0.199,0.047,0.394,0.142,0.581
		c0.094,0.188,0.236,0.332,0.423,0.435c0.188,0.102,0.389,0.154,0.605,0.154c0.335,0,0.613-0.107,0.831-0.324
		c0.218-0.215,0.328-0.49,0.328-0.823c0-0.338-0.111-0.617-0.337-0.839c-0.225-0.221-0.505-0.332-0.845-0.332
		c-0.33,0-0.603,0.109-0.821,0.328C54.216,19.962,54.106,20.234,54.106,20.563 M54.333,17.921c0,0.269,0.086,0.492,0.262,0.663
		c0.173,0.171,0.4,0.257,0.679,0.257c0.269,0,0.492-0.084,0.665-0.255c0.172-0.169,0.26-0.378,0.26-0.626
		c0-0.258-0.088-0.474-0.268-0.65c-0.177-0.175-0.4-0.263-0.665-0.263c-0.267,0-0.49,0.086-0.667,0.257
		C54.422,17.477,54.333,17.681,54.333,17.921 M54.473,19.111c-0.291-0.105-0.507-0.258-0.647-0.457
		c-0.141-0.197-0.211-0.433-0.211-0.71c0-0.415,0.148-0.764,0.449-1.049c0.298-0.283,0.696-0.426,1.194-0.426
		c0.5,0,0.901,0.145,1.206,0.436c0.304,0.289,0.457,0.642,0.457,1.059c0,0.265-0.068,0.495-0.209,0.692
		c-0.138,0.195-0.349,0.347-0.634,0.455c0.351,0.113,0.619,0.298,0.802,0.554c0.183,0.253,0.275,0.558,0.275,0.913
		c0,0.487-0.171,0.899-0.519,1.232c-0.345,0.332-0.8,0.5-1.366,0.5c-0.564,0-1.018-0.166-1.366-0.501
		c-0.345-0.333-0.519-0.751-0.519-1.25c0-0.371,0.093-0.683,0.283-0.935C53.854,19.375,54.124,19.203,54.473,19.111"/>
	<path display="inline" clip-path="url(#SVGID_2_)" d="M434.781,20.976l0.694-0.109c0.039,0.277,0.146,0.492,0.326,0.64
		c0.177,0.148,0.427,0.222,0.747,0.222c0.321,0,0.562-0.064,0.718-0.197c0.156-0.131,0.233-0.285,0.233-0.462
		c0-0.158-0.067-0.283-0.206-0.375c-0.096-0.063-0.336-0.14-0.718-0.238c-0.516-0.129-0.872-0.242-1.071-0.337
		c-0.199-0.094-0.35-0.227-0.452-0.394c-0.102-0.168-0.154-0.353-0.154-0.556c0-0.183,0.041-0.355,0.127-0.513
		c0.083-0.156,0.198-0.287,0.345-0.392c0.109-0.08,0.258-0.148,0.447-0.205c0.187-0.055,0.39-0.084,0.606-0.084
		c0.323,0,0.61,0.047,0.856,0.141c0.245,0.094,0.427,0.221,0.544,0.38c0.117,0.16,0.197,0.373,0.242,0.642l-0.687,0.094
		c-0.031-0.212-0.121-0.378-0.271-0.5c-0.148-0.119-0.361-0.179-0.634-0.179c-0.322,0-0.553,0.053-0.69,0.16
		c-0.137,0.105-0.207,0.23-0.207,0.375c0,0.089,0.027,0.171,0.086,0.246c0.057,0.074,0.146,0.136,0.269,0.187
		c0.07,0.025,0.277,0.086,0.621,0.18c0.495,0.133,0.843,0.24,1.039,0.326c0.195,0.084,0.35,0.207,0.463,0.369
		c0.111,0.16,0.168,0.361,0.168,0.601c0,0.234-0.068,0.455-0.205,0.662c-0.137,0.207-0.334,0.367-0.592,0.479
		c-0.257,0.113-0.548,0.17-0.873,0.17c-0.539,0-0.948-0.111-1.231-0.335C435.041,21.748,434.859,21.417,434.781,20.976"/>
	<path display="inline" clip-path="url(#SVGID_2_)" d="M439.588,19.743h2.313c-0.031-0.347-0.119-0.608-0.266-0.784
		c-0.222-0.27-0.513-0.406-0.87-0.406c-0.321,0-0.593,0.107-0.813,0.324C439.734,19.092,439.611,19.38,439.588,19.743
		 M441.894,20.878l0.726,0.089c-0.113,0.424-0.326,0.753-0.636,0.987c-0.309,0.234-0.704,0.351-1.187,0.351
		c-0.604,0-1.086-0.185-1.441-0.56c-0.354-0.372-0.532-0.895-0.532-1.57c0-0.697,0.18-1.237,0.538-1.623
		c0.359-0.384,0.823-0.578,1.396-0.578c0.555,0,1.007,0.188,1.358,0.566c0.351,0.376,0.526,0.907,0.526,1.592
		c0,0.041,0,0.103-0.004,0.187h-3.09c0.025,0.455,0.154,0.804,0.386,1.046c0.23,0.242,0.52,0.362,0.866,0.362
		c0.258,0,0.477-0.066,0.66-0.203C441.642,21.392,441.786,21.175,441.894,20.878"/>
	<path display="inline" clip-path="url(#SVGID_2_)" d="M443.492,22.212v-4.143h0.632v0.628c0.16-0.292,0.311-0.488,0.446-0.582
		c0.137-0.094,0.287-0.141,0.451-0.141c0.236,0,0.476,0.074,0.722,0.227l-0.242,0.651c-0.172-0.102-0.343-0.152-0.515-0.152
		c-0.152,0-0.291,0.044-0.414,0.138c-0.12,0.092-0.208,0.221-0.261,0.384c-0.078,0.25-0.117,0.523-0.117,0.819v2.169H443.492"/>
	<path display="inline" clip-path="url(#SVGID_2_)" d="M447.312,22.212l-1.576-4.143h0.741l0.89,2.481
		c0.096,0.267,0.184,0.546,0.266,0.835c0.062-0.219,0.147-0.48,0.261-0.788l0.921-2.528h0.722l-1.568,4.143H447.312"/>
	<path display="inline" clip-path="url(#SVGID_2_)" d="M450.159,22.212v-4.143h0.702v4.143H450.159 M450.159,17.301v-0.808h0.702
		v0.808H450.159"/>
	<path display="inline" clip-path="url(#SVGID_2_)" d="M454.633,20.695l0.691,0.09c-0.074,0.476-0.268,0.849-0.58,1.118
		c-0.31,0.269-0.692,0.404-1.145,0.404c-0.566,0-1.022-0.185-1.368-0.556c-0.343-0.37-0.517-0.901-0.517-1.593
		c0-0.447,0.074-0.839,0.223-1.174s0.372-0.587,0.677-0.755c0.303-0.168,0.632-0.252,0.989-0.252c0.448,0,0.817,0.113,1.104,0.342
		c0.285,0.226,0.469,0.55,0.551,0.969l-0.683,0.105c-0.064-0.277-0.18-0.488-0.346-0.628c-0.164-0.14-0.365-0.21-0.599-0.21
		c-0.354,0-0.641,0.127-0.862,0.38c-0.221,0.253-0.332,0.653-0.332,1.204c0,0.556,0.105,0.959,0.32,1.213
		c0.213,0.251,0.491,0.378,0.835,0.378c0.274,0,0.505-0.083,0.69-0.253C454.466,21.308,454.582,21.046,454.633,20.695"/>
	<path display="inline" clip-path="url(#SVGID_2_)" d="M455.929,22.212v-4.143h0.702v4.143H455.929 M455.929,17.301v-0.808h0.702
		v0.808H455.929"/>
	<path display="inline" clip-path="url(#SVGID_2_)" d="M458.159,20.141c0,0.531,0.115,0.926,0.347,1.192
		c0.23,0.263,0.523,0.396,0.874,0.396c0.348,0,0.638-0.132,0.87-0.397c0.23-0.266,0.348-0.669,0.348-1.213
		c0-0.511-0.115-0.899-0.35-1.165c-0.232-0.264-0.521-0.396-0.868-0.396c-0.351,0-0.642,0.13-0.874,0.394
		C458.275,19.212,458.159,19.61,458.159,20.141 M457.438,20.141c0-0.767,0.212-1.334,0.64-1.705c0.354-0.306,0.79-0.46,1.303-0.46
		c0.569,0,1.034,0.186,1.396,0.56c0.361,0.373,0.543,0.888,0.543,1.547c0,0.533-0.08,0.952-0.24,1.258
		c-0.16,0.304-0.392,0.542-0.698,0.712c-0.305,0.167-0.638,0.253-1.001,0.253c-0.579,0-1.048-0.185-1.406-0.558
		C457.616,21.378,457.438,20.841,457.438,20.141"/>
	<rect x="461.868" y="19.79" display="inline" clip-path="url(#SVGID_2_)" width="2.157" height="0.706"/>
	<path display="inline" clip-path="url(#SVGID_2_)" d="M467.252,22.212h-0.702v-4.475c-0.168,0.16-0.391,0.322-0.665,0.484
		c-0.273,0.16-0.521,0.281-0.739,0.363v-0.679c0.392-0.184,0.735-0.408,1.029-0.671c0.293-0.261,0.502-0.517,0.625-0.765h0.452
		V22.212"/>
	<path display="inline" clip-path="url(#SVGID_2_)" d="M27.116,1173.715v-3.598h-0.621v-0.546h0.621v-0.44
		c0-0.277,0.023-0.484,0.074-0.62c0.066-0.182,0.186-0.33,0.357-0.443c0.169-0.113,0.408-0.17,0.716-0.17
		c0.197,0,0.416,0.023,0.655,0.07l-0.105,0.612c-0.144-0.024-0.283-0.038-0.414-0.038c-0.212,0-0.363,0.044-0.453,0.136
		c-0.087,0.09-0.132,0.262-0.132,0.512v0.382h0.808v0.546h-0.808v3.598H27.116"/>
	<path display="inline" clip-path="url(#SVGID_2_)" d="M29.165,1173.715v-4.144h0.702v4.144H29.165 M29.165,1168.803v-0.808h0.702
		v0.808H29.165"/>
	<rect x="30.919" y="1167.995" display="inline" clip-path="url(#SVGID_2_)" width="0.702" height="5.72"/>
	<path display="inline" clip-path="url(#SVGID_2_)" d="M33.239,1171.245h2.314c-0.031-0.348-0.119-0.608-0.266-0.784
		c-0.222-0.27-0.513-0.405-0.87-0.405c-0.322,0-0.593,0.106-0.813,0.323C33.386,1170.594,33.263,1170.882,33.239,1171.245
		 M35.545,1172.38l0.726,0.09c-0.113,0.424-0.326,0.753-0.636,0.987c-0.308,0.234-0.704,0.352-1.186,0.352
		c-0.604,0-1.086-0.186-1.441-0.561c-0.355-0.372-0.533-0.896-0.533-1.57c0-0.696,0.18-1.236,0.539-1.622
		c0.359-0.385,0.823-0.578,1.396-0.578c0.554,0,1.007,0.188,1.358,0.566c0.351,0.376,0.527,0.906,0.527,1.591
		c0,0.041,0,0.104-0.004,0.188H33.2c0.025,0.455,0.154,0.804,0.386,1.046c0.23,0.241,0.519,0.362,0.866,0.362
		c0.258,0,0.476-0.066,0.66-0.202C35.293,1172.894,35.438,1172.677,35.545,1172.38"/>
	<path display="inline" clip-path="url(#SVGID_2_)" d="M37.347,1173.715v-0.8h0.8v0.8H37.347 M37.347,1170.371v-0.8h0.8v0.8H37.347"
		/>
	<polyline display="inline" clip-path="url(#SVGID_2_)" points="38.838,1173.813 40.496,1167.897 41.058,1167.897 39.404,1173.813 
		38.838,1173.813 	"/>
	<polyline display="inline" clip-path="url(#SVGID_2_)" points="41.051,1173.813 42.709,1167.897 43.271,1167.897 41.617,1173.813 
		41.051,1173.813 	"/>
	<polyline display="inline" clip-path="url(#SVGID_2_)" points="43.265,1173.813 44.923,1167.897 45.484,1167.897 43.831,1173.813 
		43.265,1173.813 	"/>
	<path display="inline" clip-path="url(#SVGID_2_)" d="M50.175,1171.709l0.757,0.191c-0.158,0.62-0.443,1.095-0.856,1.422
		c-0.412,0.326-0.915,0.489-1.512,0.489c-0.616,0-1.118-0.124-1.504-0.376c-0.386-0.25-0.679-0.614-0.882-1.091
		c-0.201-0.476-0.302-0.986-0.302-1.532c0-0.596,0.113-1.114,0.341-1.559c0.226-0.443,0.55-0.78,0.972-1.011
		c0.419-0.23,0.881-0.346,1.387-0.346c0.572,0,1.053,0.145,1.444,0.438c0.39,0.29,0.661,0.7,0.815,1.229l-0.745,0.176
		c-0.132-0.415-0.324-0.718-0.577-0.909c-0.252-0.189-0.57-0.285-0.952-0.285c-0.439,0-0.806,0.105-1.102,0.316
		c-0.294,0.211-0.501,0.493-0.623,0.849c-0.119,0.354-0.179,0.72-0.179,1.099c0,0.485,0.07,0.91,0.212,1.273
		c0.141,0.362,0.361,0.634,0.662,0.813c0.298,0.179,0.622,0.269,0.971,0.269c0.423,0,0.782-0.121,1.077-0.366
		C49.871,1172.554,50.07,1172.191,50.175,1171.709"/>
	<path display="inline" clip-path="url(#SVGID_2_)" d="M51.969,1173.715v-0.8h0.8v0.8H51.969 M51.969,1170.371v-0.8h0.8v0.8H51.969"
		/>
	<polyline display="inline" clip-path="url(#SVGID_2_)" points="53.46,1173.813 55.118,1167.897 55.68,1167.897 54.026,1173.813 
		53.46,1173.813 	"/>
	<path display="inline" clip-path="url(#SVGID_2_)" d="M55.732,1173.715l1.514-2.153l-1.4-1.99h0.878l0.636,0.972
		c0.119,0.184,0.215,0.339,0.289,0.464c0.113-0.171,0.218-0.323,0.316-0.456l0.698-0.979h0.839l-1.432,1.951l1.542,2.192h-0.862
		l-0.851-1.288l-0.226-0.347l-1.089,1.635H55.732"/>
	<path display="inline" clip-path="url(#SVGID_2_)" d="M62.841,1171.635c-0.254,0.104-0.636,0.191-1.147,0.266
		c-0.289,0.041-0.492,0.088-0.613,0.141c-0.119,0.051-0.21,0.127-0.277,0.229c-0.064,0.099-0.098,0.21-0.098,0.333
		c0,0.188,0.07,0.344,0.212,0.469c0.141,0.124,0.35,0.187,0.623,0.187c0.269,0,0.511-0.059,0.722-0.178
		c0.211-0.116,0.365-0.278,0.464-0.485c0.074-0.158,0.113-0.392,0.113-0.702V1171.635 M62.899,1173.203
		c-0.26,0.221-0.509,0.377-0.751,0.469c-0.24,0.09-0.497,0.137-0.774,0.137c-0.455,0-0.804-0.111-1.049-0.334
		c-0.244-0.223-0.367-0.505-0.367-0.853c0-0.203,0.045-0.388,0.139-0.556c0.091-0.168,0.212-0.303,0.363-0.404
		c0.148-0.102,0.318-0.177,0.505-0.229c0.137-0.035,0.346-0.07,0.625-0.105c0.565-0.066,0.983-0.148,1.252-0.242
		c0.002-0.096,0.004-0.156,0.004-0.184c0-0.284-0.066-0.487-0.199-0.604c-0.179-0.158-0.445-0.238-0.8-0.238
		c-0.33,0-0.573,0.057-0.731,0.174c-0.156,0.115-0.273,0.32-0.349,0.614l-0.687-0.093c0.062-0.293,0.164-0.531,0.308-0.712
		c0.142-0.18,0.349-0.32,0.62-0.418c0.27-0.098,0.583-0.146,0.94-0.146c0.353,0,0.64,0.041,0.862,0.125
		c0.22,0.082,0.382,0.188,0.487,0.314c0.104,0.125,0.176,0.284,0.219,0.478c0.023,0.119,0.035,0.336,0.035,0.647v0.937
		c0,0.651,0.014,1.065,0.045,1.238c0.029,0.172,0.088,0.338,0.177,0.498H63.04C62.967,1173.57,62.921,1173.398,62.899,1173.203"/>
	<path display="inline" clip-path="url(#SVGID_2_)" d="M64.638,1173.715v-4.144h0.628v0.581c0.129-0.202,0.302-0.364,0.519-0.489
		c0.214-0.123,0.46-0.186,0.737-0.186c0.306,0,0.558,0.063,0.755,0.191c0.195,0.127,0.333,0.305,0.416,0.534
		c0.328-0.483,0.753-0.726,1.28-0.726c0.41,0,0.726,0.113,0.948,0.342c0.221,0.227,0.332,0.577,0.332,1.051v2.845h-0.699v-2.61
		c0-0.281-0.021-0.481-0.068-0.606c-0.045-0.123-0.127-0.223-0.248-0.299c-0.119-0.074-0.259-0.113-0.421-0.113
		c-0.291,0-0.532,0.096-0.726,0.291c-0.191,0.193-0.289,0.503-0.289,0.931v2.407H67.1v-2.692c0-0.312-0.056-0.546-0.171-0.702
		c-0.113-0.156-0.3-0.234-0.562-0.234c-0.197,0-0.38,0.051-0.548,0.156c-0.168,0.104-0.289,0.256-0.365,0.457
		c-0.074,0.198-0.113,0.487-0.113,0.866v2.149H64.638"/>
	<path display="inline" clip-path="url(#SVGID_2_)" d="M71.93,1171.666c0,0.533,0.107,0.927,0.324,1.183
		c0.214,0.253,0.476,0.382,0.784,0.382c0.312,0,0.579-0.13,0.802-0.396c0.222-0.264,0.333-0.673,0.333-1.228
		c0-0.526-0.107-0.922-0.326-1.186c-0.217-0.262-0.476-0.394-0.778-0.394c-0.299,0-0.564,0.138-0.794,0.419
		C72.045,1170.727,71.93,1171.132,71.93,1171.666 M71.294,1175.303v-5.731h0.64v0.538c0.15-0.21,0.32-0.368,0.511-0.474
		c0.189-0.105,0.419-0.158,0.69-0.158c0.354,0,0.666,0.09,0.937,0.273c0.269,0.182,0.474,0.438,0.613,0.771
		c0.136,0.332,0.207,0.694,0.207,1.09c0,0.424-0.076,0.806-0.228,1.146c-0.152,0.339-0.373,0.599-0.664,0.78
		c-0.289,0.18-0.595,0.271-0.915,0.271c-0.234,0-0.443-0.049-0.63-0.148c-0.185-0.098-0.337-0.223-0.458-0.375v2.018H71.294"/>
	<path display="inline" clip-path="url(#SVGID_2_)" d="M76.373,1171.666c0,0.533,0.107,0.927,0.324,1.183
		c0.214,0.253,0.476,0.382,0.784,0.382c0.312,0,0.58-0.13,0.802-0.396c0.223-0.264,0.333-0.673,0.333-1.228
		c0-0.526-0.107-0.922-0.326-1.186c-0.216-0.262-0.476-0.394-0.778-0.394c-0.298,0-0.564,0.138-0.794,0.419
		C76.487,1170.727,76.373,1171.132,76.373,1171.666 M75.736,1175.303v-5.731h0.64v0.538c0.15-0.21,0.32-0.368,0.511-0.474
		c0.189-0.105,0.419-0.158,0.69-0.158c0.353,0,0.665,0.09,0.937,0.273c0.269,0.182,0.474,0.438,0.612,0.771
		c0.137,0.332,0.207,0.694,0.207,1.09c0,0.424-0.076,0.806-0.229,1.146c-0.152,0.339-0.373,0.599-0.663,0.78
		c-0.289,0.18-0.595,0.271-0.915,0.271c-0.234,0-0.443-0.049-0.63-0.148c-0.186-0.098-0.338-0.223-0.458-0.375v2.018H75.736"/>
	<polyline display="inline" clip-path="url(#SVGID_2_)" points="79.652,1173.813 81.311,1167.897 81.873,1167.897 80.218,1173.813 
		79.652,1173.813 	"/>
	<path display="inline" clip-path="url(#SVGID_2_)" d="M82.393,1173.715v-5.72h0.702v2.053c0.328-0.379,0.741-0.57,1.241-0.57
		c0.306,0,0.573,0.061,0.8,0.182c0.226,0.121,0.388,0.287,0.486,0.501c0.097,0.213,0.146,0.523,0.146,0.929v2.626h-0.702v-2.626
		c0-0.351-0.076-0.606-0.228-0.767c-0.152-0.16-0.367-0.24-0.646-0.24c-0.207,0-0.404,0.053-0.587,0.162
		c-0.184,0.107-0.314,0.254-0.392,0.439c-0.078,0.183-0.117,0.438-0.117,0.765v2.267H82.393"/>
	<path display="inline" clip-path="url(#SVGID_2_)" d="M88.368,1173.086l0.102,0.621c-0.197,0.041-0.375,0.063-0.531,0.063
		c-0.253,0-0.452-0.039-0.593-0.121c-0.141-0.08-0.238-0.186-0.296-0.318c-0.057-0.131-0.086-0.407-0.086-0.829v-2.384h-0.515
		v-0.546h0.515v-1.025l0.698-0.422v1.447h0.706v0.546h-0.706v2.423c0,0.199,0.012,0.328,0.037,0.387
		c0.023,0.057,0.064,0.102,0.121,0.137c0.055,0.032,0.134,0.05,0.24,0.05C88.138,1173.113,88.24,1173.105,88.368,1173.086"/>
	<path display="inline" clip-path="url(#SVGID_2_)" d="M89.517,1171.646c0,0.531,0.111,0.927,0.335,1.19
		c0.222,0.261,0.488,0.394,0.792,0.394c0.306,0,0.568-0.125,0.782-0.376c0.215-0.25,0.322-0.634,0.322-1.149
		c0-0.565-0.109-0.982-0.328-1.248c-0.218-0.266-0.488-0.397-0.808-0.397c-0.312,0-0.572,0.126-0.782,0.382
		C89.622,1170.695,89.517,1171.097,89.517,1171.646 M91.736,1173.715v-0.523c-0.261,0.41-0.647,0.617-1.159,0.617
		c-0.33,0-0.634-0.09-0.911-0.273c-0.277-0.182-0.492-0.436-0.644-0.763c-0.152-0.326-0.228-0.7-0.228-1.126
		c0-0.413,0.068-0.788,0.207-1.125c0.137-0.336,0.343-0.595,0.621-0.774c0.275-0.18,0.583-0.27,0.924-0.27
		c0.25,0,0.472,0.053,0.667,0.158c0.195,0.105,0.353,0.242,0.476,0.412v-2.053h0.699v5.72H91.736"/>
	<path display="inline" clip-path="url(#SVGID_2_)" d="M93.951,1171.643c0,0.531,0.115,0.927,0.348,1.192
		c0.23,0.263,0.522,0.396,0.874,0.396c0.347,0,0.638-0.133,0.87-0.397c0.23-0.266,0.347-0.669,0.347-1.214
		c0-0.511-0.115-0.898-0.349-1.164c-0.232-0.264-0.521-0.396-0.868-0.396c-0.351,0-0.642,0.13-0.874,0.394
		C94.068,1170.715,93.951,1171.112,93.951,1171.643 M93.229,1171.643c0-0.767,0.213-1.334,0.64-1.704
		c0.355-0.307,0.79-0.461,1.303-0.461c0.57,0,1.034,0.186,1.397,0.561c0.361,0.372,0.542,0.887,0.542,1.546
		c0,0.533-0.08,0.952-0.24,1.259c-0.16,0.304-0.392,0.542-0.698,0.712c-0.304,0.168-0.638,0.253-1.001,0.253
		c-0.579,0-1.047-0.185-1.406-0.558C93.409,1172.88,93.229,1172.343,93.229,1171.643"/>
	<path display="inline" clip-path="url(#SVGID_2_)" d="M100.637,1172.197l0.691,0.09c-0.074,0.476-0.268,0.848-0.58,1.117
		c-0.31,0.27-0.692,0.404-1.145,0.404c-0.566,0-1.022-0.186-1.368-0.557c-0.343-0.37-0.517-0.9-0.517-1.594
		c0-0.446,0.074-0.838,0.222-1.174s0.373-0.587,0.677-0.755c0.303-0.168,0.632-0.252,0.989-0.252c0.449,0,0.817,0.113,1.104,0.342
		c0.285,0.227,0.468,0.55,0.55,0.97l-0.683,0.104c-0.064-0.276-0.18-0.487-0.346-0.628c-0.164-0.141-0.365-0.21-0.599-0.21
		c-0.353,0-0.64,0.126-0.862,0.38c-0.221,0.254-0.332,0.653-0.332,1.203c0,0.557,0.105,0.96,0.32,1.214
		c0.212,0.252,0.492,0.378,0.835,0.378c0.275,0,0.505-0.084,0.69-0.253C100.47,1172.81,100.586,1172.548,100.637,1172.197"/>
	<path display="inline" clip-path="url(#SVGID_2_)" d="M101.648,1172.478l0.694-0.109c0.039,0.277,0.146,0.492,0.326,0.641
		c0.178,0.147,0.427,0.222,0.747,0.222c0.322,0,0.562-0.064,0.718-0.196c0.156-0.131,0.234-0.285,0.234-0.463
		c0-0.158-0.068-0.282-0.207-0.374c-0.095-0.063-0.335-0.141-0.718-0.238c-0.515-0.129-0.872-0.242-1.071-0.338
		c-0.199-0.094-0.349-0.226-0.453-0.394c-0.102-0.168-0.154-0.354-0.154-0.556c0-0.184,0.041-0.355,0.127-0.514
		c0.084-0.155,0.199-0.286,0.345-0.392c0.109-0.08,0.258-0.148,0.447-0.205c0.188-0.055,0.39-0.084,0.607-0.084
		c0.324,0,0.61,0.047,0.856,0.141c0.246,0.094,0.427,0.221,0.544,0.381c0.117,0.159,0.197,0.372,0.242,0.642l-0.687,0.094
		c-0.031-0.213-0.121-0.379-0.271-0.5c-0.148-0.119-0.361-0.179-0.634-0.179c-0.322,0-0.552,0.052-0.69,0.159
		c-0.136,0.105-0.207,0.23-0.207,0.375c0,0.09,0.027,0.172,0.086,0.245c0.056,0.074,0.146,0.137,0.269,0.188
		c0.07,0.025,0.277,0.086,0.62,0.18c0.496,0.133,0.843,0.24,1.04,0.325c0.195,0.084,0.349,0.207,0.462,0.369
		c0.111,0.16,0.167,0.361,0.167,0.601c0,0.234-0.068,0.455-0.205,0.661c-0.137,0.207-0.333,0.367-0.591,0.48
		c-0.257,0.113-0.548,0.169-0.874,0.169c-0.538,0-0.948-0.11-1.231-0.335C101.907,1173.25,101.726,1172.919,101.648,1172.478"/>
	<polyline display="inline" clip-path="url(#SVGID_2_)" points="105.397,1173.813 107.055,1167.897 107.617,1167.897 
		105.963,1173.813 105.397,1173.813 	"/>
	<path display="inline" clip-path="url(#SVGID_2_)" d="M110.841,1172.197l0.691,0.09c-0.074,0.476-0.268,0.848-0.58,1.117
		c-0.31,0.27-0.692,0.404-1.145,0.404c-0.566,0-1.022-0.186-1.368-0.557c-0.343-0.37-0.517-0.9-0.517-1.594
		c0-0.446,0.074-0.838,0.222-1.174s0.373-0.587,0.677-0.755c0.303-0.168,0.632-0.252,0.989-0.252c0.449,0,0.817,0.113,1.104,0.342
		c0.285,0.227,0.468,0.55,0.55,0.97l-0.683,0.104c-0.064-0.276-0.179-0.487-0.345-0.628c-0.164-0.141-0.365-0.21-0.599-0.21
		c-0.353,0-0.64,0.126-0.862,0.38c-0.221,0.254-0.332,0.653-0.332,1.203c0,0.557,0.105,0.96,0.32,1.214
		c0.212,0.252,0.492,0.378,0.835,0.378c0.275,0,0.505-0.084,0.69-0.253C110.673,1172.81,110.79,1172.548,110.841,1172.197"/>
	<path display="inline" clip-path="url(#SVGID_2_)" d="M112.132,1173.715v-4.144h0.628v0.581c0.129-0.202,0.303-0.364,0.519-0.489
		c0.215-0.123,0.46-0.186,0.737-0.186c0.307,0,0.558,0.063,0.755,0.191c0.195,0.127,0.334,0.305,0.416,0.534
		c0.328-0.483,0.753-0.726,1.28-0.726c0.41,0,0.726,0.113,0.948,0.342c0.22,0.227,0.332,0.577,0.332,1.051v2.845h-0.698v-2.61
		c0-0.281-0.021-0.481-0.068-0.606c-0.045-0.123-0.127-0.223-0.248-0.299c-0.119-0.074-0.26-0.113-0.421-0.113
		c-0.291,0-0.533,0.096-0.726,0.291c-0.191,0.193-0.289,0.503-0.289,0.931v2.407h-0.702v-2.692c0-0.312-0.057-0.546-0.172-0.702
		c-0.113-0.156-0.3-0.234-0.562-0.234c-0.197,0-0.38,0.051-0.548,0.156c-0.167,0.104-0.289,0.256-0.365,0.457
		c-0.074,0.198-0.113,0.487-0.113,0.866v2.149H112.132"/>
	<path display="inline" clip-path="url(#SVGID_2_)" d="M118.507,1172.478l0.694-0.109c0.039,0.277,0.146,0.492,0.326,0.641
		c0.177,0.147,0.427,0.222,0.747,0.222c0.322,0,0.562-0.064,0.718-0.196c0.156-0.131,0.234-0.285,0.234-0.463
		c0-0.158-0.068-0.282-0.207-0.374c-0.096-0.063-0.335-0.141-0.718-0.238c-0.515-0.129-0.872-0.242-1.071-0.338
		c-0.199-0.094-0.349-0.226-0.453-0.394c-0.101-0.168-0.154-0.354-0.154-0.556c0-0.184,0.041-0.355,0.126-0.514
		c0.084-0.155,0.199-0.286,0.346-0.392c0.109-0.08,0.257-0.148,0.446-0.205c0.188-0.055,0.391-0.084,0.607-0.084
		c0.324,0,0.61,0.047,0.856,0.141c0.246,0.094,0.427,0.221,0.544,0.381c0.117,0.159,0.197,0.372,0.242,0.642l-0.687,0.094
		c-0.031-0.213-0.121-0.379-0.271-0.5c-0.148-0.119-0.361-0.179-0.634-0.179c-0.322,0-0.552,0.052-0.69,0.159
		c-0.137,0.105-0.207,0.23-0.207,0.375c0,0.09,0.027,0.172,0.086,0.245c0.057,0.074,0.146,0.137,0.269,0.188
		c0.07,0.025,0.277,0.086,0.621,0.18c0.495,0.133,0.843,0.24,1.04,0.325c0.195,0.084,0.349,0.207,0.462,0.369
		c0.111,0.16,0.167,0.361,0.167,0.601c0,0.234-0.068,0.455-0.205,0.661c-0.137,0.207-0.333,0.367-0.591,0.48
		c-0.257,0.113-0.548,0.169-0.874,0.169c-0.539,0-0.948-0.11-1.231-0.335C118.767,1173.25,118.585,1172.919,118.507,1172.478"/>
	<rect x="122.136" y="1174.795" display="inline" clip-path="url(#SVGID_2_)" width="4.654" height="0.508"/>
	<path display="inline" clip-path="url(#SVGID_2_)" d="M127.226,1173.715v-4.144h0.628v0.581c0.129-0.202,0.303-0.364,0.519-0.489
		c0.214-0.123,0.46-0.186,0.737-0.186c0.306,0,0.558,0.063,0.755,0.191c0.195,0.127,0.333,0.305,0.416,0.534
		c0.328-0.483,0.753-0.726,1.28-0.726c0.41,0,0.726,0.113,0.948,0.342c0.22,0.227,0.332,0.577,0.332,1.051v2.845h-0.698v-2.61
		c0-0.281-0.021-0.481-0.068-0.606c-0.045-0.123-0.127-0.223-0.248-0.299c-0.119-0.074-0.259-0.113-0.421-0.113
		c-0.291,0-0.532,0.096-0.726,0.291c-0.191,0.193-0.289,0.503-0.289,0.931v2.407h-0.702v-2.692c0-0.312-0.057-0.546-0.172-0.702
		c-0.113-0.156-0.3-0.234-0.562-0.234c-0.197,0-0.38,0.051-0.548,0.156c-0.168,0.104-0.289,0.256-0.365,0.457
		c-0.074,0.198-0.113,0.487-0.113,0.866v2.149H127.226"/>
	<path display="inline" clip-path="url(#SVGID_2_)" d="M135.033,1173.715l-1.576-4.144h0.741l0.89,2.481
		c0.096,0.268,0.184,0.546,0.266,0.835c0.062-0.219,0.148-0.48,0.261-0.788l0.921-2.528h0.722l-1.568,4.144H135.033"/>
	<path display="inline" clip-path="url(#SVGID_2_)" d="M140.581,1172.197l0.69,0.09c-0.074,0.476-0.267,0.848-0.58,1.117
		c-0.31,0.27-0.692,0.404-1.145,0.404c-0.565,0-1.022-0.186-1.367-0.557c-0.344-0.37-0.517-0.9-0.517-1.594
		c0-0.446,0.074-0.838,0.222-1.174c0.148-0.336,0.373-0.587,0.677-0.755c0.302-0.168,0.632-0.252,0.989-0.252
		c0.449,0,0.817,0.113,1.104,0.342c0.285,0.227,0.468,0.55,0.55,0.97l-0.683,0.104c-0.064-0.276-0.18-0.487-0.345-0.628
		c-0.164-0.141-0.365-0.21-0.599-0.21c-0.353,0-0.64,0.126-0.862,0.38c-0.22,0.254-0.332,0.653-0.332,1.203
		c0,0.557,0.105,0.96,0.32,1.214c0.213,0.252,0.492,0.378,0.835,0.378c0.275,0,0.505-0.084,0.69-0.253
		C140.413,1172.81,140.53,1172.548,140.581,1172.197"/>
	<rect x="141.225" y="1174.795" display="inline" clip-path="url(#SVGID_2_)" width="4.654" height="0.508"/>
	<path display="inline" clip-path="url(#SVGID_2_)" d="M146.315,1173.715v-4.144h0.628v0.581c0.129-0.202,0.303-0.364,0.519-0.489
		c0.214-0.123,0.46-0.186,0.737-0.186c0.306,0,0.558,0.063,0.755,0.191c0.195,0.127,0.333,0.305,0.416,0.534
		c0.328-0.483,0.753-0.726,1.28-0.726c0.41,0,0.726,0.113,0.948,0.342c0.22,0.227,0.332,0.577,0.332,1.051v2.845h-0.699v-2.61
		c0-0.281-0.021-0.481-0.068-0.606c-0.045-0.123-0.127-0.223-0.248-0.299c-0.119-0.074-0.259-0.113-0.421-0.113
		c-0.291,0-0.532,0.096-0.726,0.291c-0.191,0.193-0.289,0.503-0.289,0.931v2.407h-0.702v-2.692c0-0.312-0.057-0.546-0.172-0.702
		c-0.113-0.156-0.3-0.234-0.562-0.234c-0.197,0-0.38,0.051-0.548,0.156c-0.168,0.104-0.289,0.256-0.365,0.457
		c-0.074,0.198-0.113,0.487-0.113,0.866v2.149H146.315"/>
	<path display="inline" clip-path="url(#SVGID_2_)" d="M152.975,1173.715v-4.144h0.702v4.144H152.975 M152.975,1168.803v-0.808
		h0.702v0.808H152.975"/>
	<path display="inline" clip-path="url(#SVGID_2_)" d="M155.275,1171.245h2.313c-0.031-0.348-0.119-0.608-0.266-0.784
		c-0.222-0.27-0.513-0.405-0.87-0.405c-0.322,0-0.593,0.106-0.813,0.323C155.421,1170.594,155.299,1170.882,155.275,1171.245
		 M157.581,1172.38l0.726,0.09c-0.113,0.424-0.326,0.753-0.636,0.987c-0.308,0.234-0.704,0.352-1.186,0.352
		c-0.605,0-1.087-0.186-1.442-0.561c-0.355-0.372-0.532-0.896-0.532-1.57c0-0.696,0.179-1.236,0.538-1.622
		c0.359-0.385,0.823-0.578,1.397-0.578c0.554,0,1.006,0.188,1.357,0.566c0.352,0.376,0.527,0.906,0.527,1.591
		c0,0.041,0,0.104-0.004,0.188h-3.09c0.025,0.455,0.154,0.804,0.386,1.046c0.23,0.241,0.519,0.362,0.866,0.362
		c0.257,0,0.476-0.066,0.659-0.202C157.33,1172.894,157.474,1172.677,157.581,1172.38"/>
	<path display="inline" clip-path="url(#SVGID_2_)" d="M159.179,1173.715v-4.144h0.632v0.628c0.16-0.292,0.31-0.487,0.447-0.581
		c0.136-0.094,0.287-0.141,0.451-0.141c0.236,0,0.476,0.074,0.722,0.227l-0.242,0.651c-0.171-0.102-0.343-0.152-0.515-0.152
		c-0.152,0-0.291,0.045-0.414,0.139c-0.121,0.092-0.209,0.221-0.262,0.385c-0.078,0.249-0.117,0.522-0.117,0.819v2.169H159.179"/>
	<path display="inline" clip-path="url(#SVGID_2_)" d="M161.817,1175.311l-0.078-0.66c0.152,0.041,0.287,0.063,0.402,0.063
		c0.156,0,0.281-0.025,0.375-0.078c0.094-0.05,0.17-0.124,0.23-0.218c0.043-0.07,0.115-0.244,0.215-0.523
		c0.012-0.039,0.033-0.095,0.063-0.171l-1.572-4.151h0.757l0.862,2.399c0.111,0.305,0.21,0.624,0.3,0.96
		c0.08-0.322,0.175-0.636,0.289-0.944l0.886-2.415h0.702l-1.576,4.214c-0.167,0.454-0.3,0.769-0.394,0.939
		c-0.125,0.23-0.267,0.4-0.429,0.51c-0.16,0.107-0.353,0.161-0.577,0.161C162.135,1175.396,161.984,1175.368,161.817,1175.311"/>
	<path display="inline" clip-path="url(#SVGID_2_)" d="M167.376,1173.086l0.102,0.621c-0.197,0.041-0.375,0.063-0.531,0.063
		c-0.253,0-0.453-0.039-0.593-0.121c-0.14-0.08-0.238-0.186-0.296-0.318c-0.057-0.131-0.086-0.407-0.086-0.829v-2.384h-0.515v-0.546
		h0.515v-1.025l0.699-0.422v1.447h0.706v0.546h-0.706v2.423c0,0.199,0.011,0.328,0.037,0.387c0.023,0.057,0.064,0.102,0.121,0.137
		c0.055,0.032,0.135,0.05,0.24,0.05C167.146,1173.113,167.248,1173.105,167.376,1173.086"/>
	<path display="inline" clip-path="url(#SVGID_2_)" d="M168.587,1171.245h2.314c-0.031-0.348-0.119-0.608-0.266-0.784
		c-0.222-0.27-0.513-0.405-0.87-0.405c-0.322,0-0.593,0.106-0.813,0.323C168.733,1170.594,168.61,1170.882,168.587,1171.245
		 M170.893,1172.38l0.726,0.09c-0.113,0.424-0.326,0.753-0.636,0.987c-0.308,0.234-0.704,0.352-1.186,0.352
		c-0.604,0-1.086-0.186-1.441-0.561c-0.355-0.372-0.533-0.896-0.533-1.57c0-0.696,0.18-1.236,0.539-1.622
		c0.359-0.385,0.823-0.578,1.396-0.578c0.554,0,1.007,0.188,1.358,0.566c0.351,0.376,0.527,0.906,0.527,1.591
		c0,0.041,0,0.104-0.004,0.188h-3.09c0.025,0.455,0.154,0.804,0.386,1.046c0.23,0.241,0.519,0.362,0.866,0.362
		c0.258,0,0.476-0.066,0.66-0.202C170.641,1172.894,170.786,1172.677,170.893,1172.38"/>
	<path display="inline" clip-path="url(#SVGID_2_)" d="M172.491,1173.715v-4.144h0.632v0.628c0.16-0.292,0.311-0.487,0.447-0.581
		c0.137-0.094,0.287-0.141,0.451-0.141c0.236,0,0.476,0.074,0.722,0.227l-0.242,0.651c-0.171-0.102-0.343-0.152-0.515-0.152
		c-0.152,0-0.291,0.045-0.414,0.139c-0.121,0.092-0.208,0.221-0.261,0.385c-0.078,0.249-0.117,0.522-0.117,0.819v2.169H172.491"/>
	<path display="inline" clip-path="url(#SVGID_2_)" d="M177.805,1171.635c-0.254,0.104-0.636,0.191-1.147,0.266
		c-0.289,0.041-0.492,0.088-0.613,0.141c-0.119,0.051-0.21,0.127-0.277,0.229c-0.064,0.099-0.098,0.21-0.098,0.333
		c0,0.188,0.07,0.344,0.213,0.469c0.14,0.124,0.349,0.187,0.622,0.187c0.269,0,0.511-0.059,0.722-0.178
		c0.211-0.116,0.365-0.278,0.464-0.485c0.074-0.158,0.113-0.392,0.113-0.702V1171.635 M177.864,1173.203
		c-0.26,0.221-0.509,0.377-0.751,0.469c-0.24,0.09-0.498,0.137-0.775,0.137c-0.454,0-0.804-0.111-1.049-0.334
		c-0.244-0.223-0.367-0.505-0.367-0.853c0-0.203,0.045-0.388,0.139-0.556c0.091-0.168,0.212-0.303,0.363-0.404
		c0.148-0.102,0.318-0.177,0.505-0.229c0.137-0.035,0.346-0.07,0.625-0.105c0.566-0.066,0.983-0.148,1.252-0.242
		c0.002-0.096,0.004-0.156,0.004-0.184c0-0.284-0.066-0.487-0.199-0.604c-0.179-0.158-0.445-0.238-0.8-0.238
		c-0.33,0-0.573,0.057-0.731,0.174c-0.156,0.115-0.273,0.32-0.349,0.614l-0.687-0.093c0.063-0.293,0.164-0.531,0.308-0.712
		c0.143-0.18,0.349-0.32,0.62-0.418c0.27-0.098,0.583-0.146,0.94-0.146c0.353,0,0.64,0.041,0.862,0.125
		c0.22,0.082,0.382,0.188,0.488,0.314c0.103,0.125,0.175,0.284,0.218,0.478c0.023,0.119,0.035,0.336,0.035,0.647v0.937
		c0,0.651,0.014,1.065,0.045,1.238c0.029,0.172,0.088,0.338,0.178,0.498h-0.734C177.932,1173.57,177.885,1173.398,177.864,1173.203"
		/>
	<path display="inline" clip-path="url(#SVGID_2_)" d="M179.603,1173.715v-4.144h0.632v0.589c0.305-0.454,0.743-0.683,1.319-0.683
		c0.25,0,0.478,0.045,0.688,0.135c0.209,0.09,0.365,0.207,0.47,0.354c0.104,0.144,0.176,0.317,0.218,0.519
		c0.026,0.129,0.039,0.356,0.039,0.683v2.548h-0.702v-2.521c0-0.285-0.027-0.499-0.082-0.642c-0.054-0.141-0.15-0.254-0.291-0.34
		c-0.139-0.084-0.302-0.127-0.49-0.127c-0.298,0-0.556,0.094-0.774,0.285c-0.216,0.189-0.326,0.55-0.326,1.081v2.263H179.603"/>
	<polyline display="inline" clip-path="url(#SVGID_2_)" points="183.519,1173.813 185.176,1167.897 185.738,1167.897 
		184.084,1173.813 183.519,1173.813 	"/>
	<path display="inline" clip-path="url(#SVGID_2_)" d="M187.409,1173.715l-1.576-4.144h0.741l0.89,2.481
		c0.096,0.268,0.184,0.546,0.265,0.835c0.063-0.219,0.148-0.48,0.262-0.788l0.921-2.528h0.722l-1.568,4.144H187.409"/>
	<path display="inline" clip-path="url(#SVGID_2_)" d="M190.257,1173.715v-4.144h0.702v4.144H190.257 M190.257,1168.803v-0.808
		h0.702v0.808H190.257"/>
	<path display="inline" clip-path="url(#SVGID_2_)" d="M192.558,1171.245h2.313c-0.031-0.348-0.119-0.608-0.265-0.784
		c-0.223-0.27-0.513-0.405-0.87-0.405c-0.322,0-0.593,0.106-0.813,0.323C192.704,1170.594,192.582,1170.882,192.558,1171.245
		 M194.864,1172.38l0.726,0.09c-0.113,0.424-0.326,0.753-0.636,0.987c-0.308,0.234-0.704,0.352-1.186,0.352
		c-0.605,0-1.087-0.186-1.442-0.561c-0.355-0.372-0.532-0.896-0.532-1.57c0-0.696,0.179-1.236,0.538-1.622
		c0.359-0.385,0.823-0.578,1.397-0.578c0.554,0,1.006,0.188,1.357,0.566c0.352,0.376,0.527,0.906,0.527,1.591
		c0,0.041,0,0.104-0.004,0.188h-3.09c0.025,0.455,0.154,0.804,0.386,1.046c0.23,0.241,0.519,0.362,0.866,0.362
		c0.257,0,0.476-0.066,0.659-0.202C194.612,1172.894,194.756,1172.677,194.864,1172.38"/>
	<path display="inline" clip-path="url(#SVGID_2_)" d="M197.235,1173.715l-1.268-4.144h0.726l0.659,2.392l0.246,0.89
		c0.01-0.043,0.082-0.328,0.214-0.854l0.66-2.427h0.722l0.62,2.403l0.207,0.792l0.238-0.8l0.71-2.396h0.683l-1.295,4.144h-0.729
		l-0.66-2.481l-0.16-0.706l-0.839,3.188H197.235"/>
	<path display="inline" clip-path="url(#SVGID_2_)" d="M201.958,1172.478l0.694-0.109c0.039,0.277,0.146,0.492,0.326,0.641
		c0.177,0.147,0.427,0.222,0.747,0.222c0.322,0,0.562-0.064,0.718-0.196c0.156-0.131,0.234-0.285,0.234-0.463
		c0-0.158-0.068-0.282-0.207-0.374c-0.096-0.063-0.335-0.141-0.718-0.238c-0.515-0.129-0.872-0.242-1.071-0.338
		c-0.199-0.094-0.349-0.226-0.453-0.394c-0.101-0.168-0.154-0.354-0.154-0.556c0-0.184,0.041-0.355,0.127-0.514
		c0.083-0.155,0.199-0.286,0.345-0.392c0.109-0.08,0.257-0.148,0.447-0.205c0.187-0.055,0.39-0.084,0.606-0.084
		c0.324,0,0.61,0.047,0.856,0.141c0.246,0.094,0.427,0.221,0.544,0.381c0.117,0.159,0.197,0.372,0.242,0.642l-0.687,0.094
		c-0.031-0.213-0.121-0.379-0.271-0.5c-0.148-0.119-0.361-0.179-0.634-0.179c-0.322,0-0.552,0.052-0.69,0.159
		c-0.137,0.105-0.207,0.23-0.207,0.375c0,0.09,0.027,0.172,0.086,0.245c0.057,0.074,0.146,0.137,0.269,0.188
		c0.07,0.025,0.277,0.086,0.621,0.18c0.495,0.133,0.843,0.24,1.04,0.325c0.195,0.084,0.349,0.207,0.462,0.369
		c0.111,0.16,0.168,0.361,0.168,0.601c0,0.234-0.068,0.455-0.205,0.661c-0.137,0.207-0.333,0.367-0.591,0.48
		c-0.257,0.113-0.548,0.169-0.874,0.169c-0.539,0-0.948-0.11-1.231-0.335C202.217,1173.25,202.036,1172.919,201.958,1172.478"/>
	<polyline display="inline" clip-path="url(#SVGID_2_)" points="205.708,1173.813 207.366,1167.897 207.927,1167.897 
		206.273,1173.813 205.708,1173.813 	"/>
	<path display="inline" clip-path="url(#SVGID_2_)" d="M208.451,1173.715v-4.144h0.703v4.144H208.451 M208.451,1168.803v-0.808
		h0.703v0.808H208.451"/>
	<path display="inline" clip-path="url(#SVGID_2_)" d="M210.221,1173.715v-4.144h0.628v0.581c0.128-0.202,0.302-0.364,0.519-0.489
		c0.215-0.123,0.46-0.186,0.737-0.186c0.307,0,0.558,0.063,0.755,0.191c0.195,0.127,0.333,0.305,0.416,0.534
		c0.328-0.483,0.753-0.726,1.279-0.726c0.41,0,0.726,0.113,0.948,0.342c0.221,0.227,0.332,0.577,0.332,1.051v2.845h-0.698v-2.61
		c0-0.281-0.021-0.481-0.068-0.606c-0.045-0.123-0.127-0.223-0.248-0.299c-0.119-0.074-0.26-0.113-0.421-0.113
		c-0.291,0-0.533,0.096-0.726,0.291c-0.191,0.193-0.289,0.503-0.289,0.931v2.407h-0.702v-2.692c0-0.312-0.057-0.546-0.172-0.702
		c-0.113-0.156-0.3-0.234-0.562-0.234c-0.197,0-0.38,0.051-0.548,0.156c-0.167,0.104-0.289,0.256-0.365,0.457
		c-0.074,0.198-0.113,0.487-0.113,0.866v2.149H210.221"/>
	<path display="inline" clip-path="url(#SVGID_2_)" d="M219.522,1171.635c-0.253,0.104-0.636,0.191-1.147,0.266
		c-0.289,0.041-0.492,0.088-0.613,0.141c-0.119,0.051-0.21,0.127-0.277,0.229c-0.064,0.099-0.098,0.21-0.098,0.333
		c0,0.188,0.07,0.344,0.213,0.469c0.14,0.124,0.349,0.187,0.622,0.187c0.27,0,0.511-0.059,0.722-0.178
		c0.211-0.116,0.365-0.278,0.464-0.485c0.074-0.158,0.113-0.392,0.113-0.702V1171.635 M219.581,1173.203
		c-0.26,0.221-0.509,0.377-0.751,0.469c-0.24,0.09-0.498,0.137-0.774,0.137c-0.455,0-0.804-0.111-1.05-0.334
		c-0.244-0.223-0.367-0.505-0.367-0.853c0-0.203,0.045-0.388,0.139-0.556c0.092-0.168,0.212-0.303,0.363-0.404
		c0.148-0.102,0.318-0.177,0.505-0.229c0.136-0.035,0.345-0.07,0.624-0.105c0.566-0.066,0.983-0.148,1.252-0.242
		c0.002-0.096,0.004-0.156,0.004-0.184c0-0.284-0.066-0.487-0.199-0.604c-0.179-0.158-0.444-0.238-0.8-0.238
		c-0.33,0-0.573,0.057-0.731,0.174c-0.156,0.115-0.273,0.32-0.349,0.614l-0.687-0.093c0.063-0.293,0.164-0.531,0.308-0.712
		c0.143-0.18,0.349-0.32,0.62-0.418c0.27-0.098,0.583-0.146,0.94-0.146c0.353,0,0.64,0.041,0.862,0.125
		c0.221,0.082,0.382,0.188,0.488,0.314c0.104,0.125,0.175,0.284,0.218,0.478c0.023,0.119,0.035,0.336,0.035,0.647v0.937
		c0,0.651,0.014,1.065,0.045,1.238c0.029,0.172,0.088,0.338,0.178,0.498h-0.733C219.649,1173.57,219.603,1173.398,219.581,1173.203"
		/>
	<path display="inline" clip-path="url(#SVGID_2_)" d="M221.772,1171.569c0,0.542,0.107,0.939,0.324,1.189
		c0.215,0.25,0.486,0.374,0.812,0.374c0.322,0,0.593-0.122,0.812-0.372c0.218-0.248,0.328-0.638,0.328-1.168
		c0-0.508-0.111-0.89-0.337-1.147c-0.224-0.258-0.496-0.386-0.813-0.386c-0.312,0-0.578,0.126-0.796,0.38
		S221.772,1171.069,221.772,1171.569 M221.191,1174.058l0.683,0.102c0.027,0.211,0.107,0.363,0.238,0.46
		c0.174,0.129,0.412,0.195,0.714,0.195c0.324,0,0.576-0.064,0.753-0.195c0.176-0.128,0.297-0.312,0.359-0.546
		c0.035-0.143,0.055-0.442,0.051-0.901c-0.306,0.361-0.688,0.543-1.147,0.543c-0.569,0-1.01-0.205-1.323-0.617
		c-0.312-0.409-0.468-0.902-0.468-1.479c0-0.394,0.07-0.759,0.214-1.094c0.143-0.334,0.349-0.591,0.623-0.774
		c0.271-0.182,0.591-0.273,0.958-0.273c0.488,0,0.892,0.197,1.209,0.594v-0.5h0.647v3.581c0,0.645-0.064,1.103-0.197,1.372
		c-0.131,0.269-0.339,0.481-0.624,0.638c-0.285,0.155-0.634,0.233-1.052,0.233c-0.494,0-0.894-0.11-1.198-0.333
		S221.179,1174.507,221.191,1174.058"/>
	<path display="inline" clip-path="url(#SVGID_2_)" d="M226.293,1171.245h2.313c-0.031-0.348-0.119-0.608-0.265-0.784
		c-0.222-0.27-0.513-0.405-0.87-0.405c-0.322,0-0.593,0.106-0.813,0.323C226.439,1170.594,226.316,1170.882,226.293,1171.245
		 M228.599,1172.38l0.726,0.09c-0.113,0.424-0.326,0.753-0.636,0.987c-0.308,0.234-0.704,0.352-1.186,0.352
		c-0.604,0-1.086-0.186-1.441-0.561c-0.355-0.372-0.533-0.896-0.533-1.57c0-0.696,0.18-1.236,0.539-1.622
		c0.359-0.385,0.823-0.578,1.396-0.578c0.554,0,1.007,0.188,1.358,0.566c0.351,0.376,0.527,0.906,0.527,1.591
		c0,0.041,0,0.104-0.004,0.188h-3.09c0.025,0.455,0.154,0.804,0.386,1.046c0.23,0.241,0.519,0.362,0.866,0.362
		c0.258,0,0.476-0.066,0.659-0.202C228.347,1172.894,228.492,1172.677,228.599,1172.38"/>
	<path display="inline" clip-path="url(#SVGID_2_)" d="M229.924,1172.478l0.694-0.109c0.039,0.277,0.146,0.492,0.326,0.641
		c0.178,0.147,0.427,0.222,0.747,0.222c0.322,0,0.562-0.064,0.718-0.196c0.156-0.131,0.234-0.285,0.234-0.463
		c0-0.158-0.068-0.282-0.207-0.374c-0.095-0.063-0.335-0.141-0.718-0.238c-0.515-0.129-0.872-0.242-1.071-0.338
		c-0.199-0.094-0.349-0.226-0.453-0.394c-0.102-0.168-0.154-0.354-0.154-0.556c0-0.184,0.041-0.355,0.127-0.514
		c0.084-0.155,0.199-0.286,0.345-0.392c0.109-0.08,0.258-0.148,0.447-0.205c0.188-0.055,0.39-0.084,0.607-0.084
		c0.324,0,0.61,0.047,0.856,0.141c0.246,0.094,0.427,0.221,0.544,0.381c0.117,0.159,0.197,0.372,0.242,0.642l-0.687,0.094
		c-0.031-0.213-0.121-0.379-0.271-0.5c-0.148-0.119-0.361-0.179-0.634-0.179c-0.322,0-0.552,0.052-0.69,0.159
		c-0.137,0.105-0.207,0.23-0.207,0.375c0,0.09,0.027,0.172,0.085,0.245c0.057,0.074,0.146,0.137,0.27,0.188
		c0.07,0.025,0.277,0.086,0.62,0.18c0.496,0.133,0.843,0.24,1.04,0.325c0.195,0.084,0.349,0.207,0.462,0.369
		c0.111,0.16,0.168,0.361,0.168,0.601c0,0.234-0.068,0.455-0.205,0.661c-0.137,0.207-0.334,0.367-0.591,0.48
		s-0.548,0.169-0.874,0.169c-0.538,0-0.948-0.11-1.231-0.335C230.184,1173.25,230.002,1172.919,229.924,1172.478"/>
	<polyline display="inline" clip-path="url(#SVGID_2_)" points="233.673,1173.813 235.332,1167.897 235.894,1167.897 
		234.239,1173.813 233.673,1173.813 	"/>
	<path display="inline" clip-path="url(#SVGID_2_)" d="M236.133,1172.478l0.694-0.109c0.039,0.277,0.146,0.492,0.326,0.641
		c0.178,0.147,0.427,0.222,0.747,0.222c0.322,0,0.562-0.064,0.718-0.196c0.156-0.131,0.234-0.285,0.234-0.463
		c0-0.158-0.068-0.282-0.207-0.374c-0.095-0.063-0.335-0.141-0.718-0.238c-0.515-0.129-0.872-0.242-1.071-0.338
		c-0.199-0.094-0.349-0.226-0.453-0.394c-0.102-0.168-0.154-0.354-0.154-0.556c0-0.184,0.041-0.355,0.127-0.514
		c0.084-0.155,0.199-0.286,0.345-0.392c0.109-0.08,0.258-0.148,0.447-0.205c0.188-0.055,0.39-0.084,0.607-0.084
		c0.324,0,0.61,0.047,0.856,0.141c0.246,0.094,0.427,0.221,0.544,0.381c0.117,0.159,0.197,0.372,0.242,0.642l-0.687,0.094
		c-0.031-0.213-0.121-0.379-0.271-0.5c-0.148-0.119-0.361-0.179-0.634-0.179c-0.322,0-0.552,0.052-0.69,0.159
		c-0.137,0.105-0.207,0.23-0.207,0.375c0,0.09,0.027,0.172,0.085,0.245c0.057,0.074,0.146,0.137,0.27,0.188
		c0.07,0.025,0.277,0.086,0.62,0.18c0.496,0.133,0.843,0.24,1.04,0.325c0.195,0.084,0.349,0.207,0.462,0.369
		c0.111,0.16,0.168,0.361,0.168,0.601c0,0.234-0.068,0.455-0.205,0.661c-0.137,0.207-0.334,0.367-0.591,0.48
		s-0.548,0.169-0.874,0.169c-0.538,0-0.948-0.11-1.231-0.335C236.392,1173.25,236.21,1172.919,236.133,1172.478"/>
	<path display="inline" clip-path="url(#SVGID_2_)" d="M240.939,1171.245h2.313c-0.031-0.348-0.119-0.608-0.266-0.784
		c-0.222-0.27-0.513-0.405-0.87-0.405c-0.322,0-0.593,0.106-0.813,0.323C241.085,1170.594,240.963,1170.882,240.939,1171.245
		 M243.245,1172.38l0.726,0.09c-0.113,0.424-0.326,0.753-0.636,0.987c-0.309,0.234-0.705,0.352-1.186,0.352
		c-0.605,0-1.087-0.186-1.442-0.561c-0.355-0.372-0.533-0.896-0.533-1.57c0-0.696,0.18-1.236,0.539-1.622
		c0.359-0.385,0.823-0.578,1.397-0.578c0.554,0,1.006,0.188,1.357,0.566c0.351,0.376,0.527,0.906,0.527,1.591
		c0,0.041,0,0.104-0.004,0.188h-3.09c0.025,0.455,0.154,0.804,0.386,1.046c0.23,0.241,0.519,0.362,0.866,0.362
		c0.257,0,0.476-0.066,0.659-0.202C242.994,1172.894,243.138,1172.677,243.245,1172.38"/>
	<path display="inline" clip-path="url(#SVGID_2_)" d="M244.843,1173.715v-4.144h0.632v0.628c0.16-0.292,0.31-0.487,0.447-0.581
		c0.136-0.094,0.287-0.141,0.451-0.141c0.236,0,0.476,0.074,0.722,0.227l-0.242,0.651c-0.171-0.102-0.343-0.152-0.515-0.152
		c-0.152,0-0.291,0.045-0.414,0.139c-0.121,0.092-0.209,0.221-0.262,0.385c-0.078,0.249-0.117,0.522-0.117,0.819v2.169H244.843"/>
	<path display="inline" clip-path="url(#SVGID_2_)" d="M248.663,1173.715l-1.576-4.144h0.741l0.89,2.481
		c0.095,0.268,0.183,0.546,0.265,0.835c0.063-0.219,0.148-0.48,0.261-0.788l0.921-2.528h0.722l-1.568,4.144H248.663"/>
	<path display="inline" clip-path="url(#SVGID_2_)" d="M251.511,1173.715v-4.144h0.702v4.144H251.511 M251.511,1168.803v-0.808
		h0.702v0.808H251.511"/>
	<path display="inline" clip-path="url(#SVGID_2_)" d="M255.985,1172.197l0.69,0.09c-0.074,0.476-0.267,0.848-0.579,1.117
		c-0.311,0.27-0.693,0.404-1.145,0.404c-0.566,0-1.022-0.186-1.368-0.557c-0.343-0.37-0.517-0.9-0.517-1.594
		c0-0.446,0.074-0.838,0.223-1.174c0.148-0.336,0.373-0.587,0.677-0.755c0.302-0.168,0.632-0.252,0.989-0.252
		c0.449,0,0.817,0.113,1.104,0.342c0.285,0.227,0.468,0.55,0.55,0.97l-0.683,0.104c-0.064-0.276-0.18-0.487-0.345-0.628
		c-0.164-0.141-0.365-0.21-0.599-0.21c-0.353,0-0.64,0.126-0.862,0.38c-0.22,0.254-0.332,0.653-0.332,1.203
		c0,0.557,0.105,0.96,0.32,1.214c0.212,0.252,0.491,0.378,0.834,0.378c0.275,0,0.505-0.084,0.691-0.253
		C255.817,1172.81,255.934,1172.548,255.985,1172.197"/>
	<path display="inline" clip-path="url(#SVGID_2_)" d="M257.28,1173.715v-4.144h0.702v4.144H257.28 M257.28,1168.803v-0.808h0.702
		v0.808H257.28"/>
	<path display="inline" clip-path="url(#SVGID_2_)" d="M259.51,1171.643c0,0.531,0.115,0.927,0.347,1.192
		c0.23,0.263,0.523,0.396,0.874,0.396c0.347,0,0.638-0.133,0.87-0.397c0.23-0.266,0.347-0.669,0.347-1.214
		c0-0.511-0.115-0.898-0.349-1.164c-0.232-0.264-0.521-0.396-0.868-0.396c-0.351,0-0.642,0.13-0.874,0.394
		C259.627,1170.715,259.51,1171.112,259.51,1171.643 M258.789,1171.643c0-0.767,0.213-1.334,0.64-1.704
		c0.355-0.307,0.79-0.461,1.303-0.461c0.57,0,1.034,0.186,1.397,0.561c0.361,0.372,0.542,0.887,0.542,1.546
		c0,0.533-0.08,0.952-0.24,1.259c-0.16,0.304-0.392,0.542-0.698,0.712c-0.305,0.168-0.638,0.253-1.001,0.253
		c-0.579,0-1.047-0.185-1.406-0.558C258.968,1172.88,258.789,1172.343,258.789,1171.643"/>
	<rect x="263.22" y="1171.292" display="inline" clip-path="url(#SVGID_2_)" width="2.157" height="0.706"/>
	<path display="inline" clip-path="url(#SVGID_2_)" d="M268.604,1173.715h-0.702v-4.475c-0.168,0.159-0.39,0.321-0.665,0.483
		c-0.273,0.16-0.521,0.281-0.74,0.362v-0.679c0.392-0.183,0.736-0.407,1.03-0.671c0.292-0.261,0.501-0.517,0.624-0.765h0.453
		V1173.715"/>
	<rect x="270.795" y="1172.915" display="inline" clip-path="url(#SVGID_2_)" width="0.8" height="0.8"/>
	<path display="inline" clip-path="url(#SVGID_2_)" d="M272.528,1172.478l0.694-0.109c0.039,0.277,0.146,0.492,0.326,0.641
		c0.177,0.147,0.427,0.222,0.747,0.222c0.322,0,0.562-0.064,0.718-0.196c0.156-0.131,0.234-0.285,0.234-0.463
		c0-0.158-0.068-0.282-0.207-0.374c-0.096-0.063-0.335-0.141-0.718-0.238c-0.515-0.129-0.872-0.242-1.071-0.338
		c-0.199-0.094-0.349-0.226-0.452-0.394c-0.102-0.168-0.154-0.354-0.154-0.556c0-0.184,0.041-0.355,0.127-0.514
		c0.083-0.155,0.199-0.286,0.345-0.392c0.109-0.08,0.257-0.148,0.447-0.205c0.187-0.055,0.39-0.084,0.606-0.084
		c0.324,0,0.61,0.047,0.856,0.141c0.246,0.094,0.427,0.221,0.544,0.381c0.117,0.159,0.197,0.372,0.242,0.642l-0.687,0.094
		c-0.031-0.213-0.121-0.379-0.271-0.5c-0.148-0.119-0.361-0.179-0.634-0.179c-0.322,0-0.552,0.052-0.69,0.159
		c-0.137,0.105-0.207,0.23-0.207,0.375c0,0.09,0.027,0.172,0.086,0.245c0.057,0.074,0.146,0.137,0.269,0.188
		c0.07,0.025,0.277,0.086,0.621,0.18c0.495,0.133,0.843,0.24,1.04,0.325c0.195,0.084,0.349,0.207,0.462,0.369
		c0.111,0.16,0.168,0.361,0.168,0.601c0,0.234-0.068,0.455-0.205,0.661c-0.137,0.207-0.333,0.367-0.591,0.48
		c-0.258,0.113-0.548,0.169-0.874,0.169c-0.539,0-0.948-0.11-1.231-0.335C272.788,1173.25,272.606,1172.919,272.528,1172.478"/>
	<path display="inline" clip-path="url(#SVGID_2_)" d="M277.956,1173.715l-1.577-4.144h0.742l0.89,2.481
		c0.095,0.268,0.183,0.546,0.265,0.835c0.063-0.219,0.148-0.48,0.261-0.788l0.921-2.528h0.722l-1.568,4.144H277.956"/>
	<path display="inline" clip-path="url(#SVGID_2_)" d="M281.252,1171.569c0,0.542,0.107,0.939,0.324,1.189
		c0.214,0.25,0.485,0.374,0.812,0.374c0.322,0,0.593-0.122,0.812-0.372c0.218-0.248,0.328-0.638,0.328-1.168
		c0-0.508-0.111-0.89-0.337-1.147c-0.225-0.258-0.496-0.386-0.813-0.386c-0.313,0-0.578,0.126-0.796,0.38
		C281.361,1170.693,281.252,1171.069,281.252,1171.569 M280.671,1174.058l0.683,0.102c0.027,0.211,0.107,0.363,0.238,0.46
		c0.173,0.129,0.412,0.195,0.714,0.195c0.324,0,0.575-0.064,0.753-0.195c0.176-0.128,0.296-0.312,0.359-0.546
		c0.035-0.143,0.055-0.442,0.051-0.901c-0.306,0.361-0.688,0.543-1.147,0.543c-0.57,0-1.011-0.205-1.323-0.617
		c-0.312-0.409-0.468-0.902-0.468-1.479c0-0.394,0.07-0.759,0.215-1.094c0.142-0.334,0.349-0.591,0.622-0.774
		c0.271-0.182,0.591-0.273,0.958-0.273c0.488,0,0.892,0.197,1.209,0.594v-0.5h0.647v3.581c0,0.645-0.064,1.103-0.197,1.372
		c-0.131,0.269-0.34,0.481-0.625,0.638c-0.285,0.155-0.634,0.233-1.051,0.233c-0.494,0-0.894-0.11-1.198-0.333
		S280.659,1174.507,280.671,1174.058"/>
	<path display="inline" clip-path="url(#SVGID_2_)" d="M807.407,1173.715h-0.702v-4.475c-0.168,0.159-0.391,0.321-0.665,0.483
		c-0.273,0.16-0.521,0.281-0.74,0.362v-0.679c0.393-0.183,0.735-0.407,1.03-0.671c0.293-0.261,0.502-0.517,0.624-0.765h0.453
		V1173.715"/>
	<polyline display="inline" clip-path="url(#SVGID_2_)" points="808.864,1173.813 810.522,1167.897 811.084,1167.897 
		809.43,1173.813 808.864,1173.813 	"/>
	<path display="inline" clip-path="url(#SVGID_2_)" d="M814.055,1173.715h-0.702v-4.475c-0.168,0.159-0.39,0.321-0.665,0.483
		c-0.273,0.16-0.521,0.281-0.739,0.362v-0.679c0.392-0.183,0.735-0.407,1.03-0.671c0.292-0.261,0.501-0.517,0.624-0.765h0.452
		V1173.715"/>
</g>
<rect x="28.965" y="29.204" display="none" fill="#FFFFFF" width="784.053" height="1132.505"/>
<g>
	<defs>
		<rect id="SVGID_3_" x="28.965" y="29.203" width="784.053" height="1132.505"/>
	</defs>
	<clipPath id="SVGID_4_">
		<use xlink:href="#SVGID_3_"  overflow="visible"/>
	</clipPath>
	<g clip-path="url(#SVGID_4_)">
		<defs>
			<rect id="SVGID_5_" x="0.03" y="0.241" width="841.951" height="1190.46"/>
		</defs>
		<clipPath id="SVGID_6_">
			<use xlink:href="#SVGID_5_"  overflow="visible"/>
		</clipPath>
		<path clip-path="url(#SVGID_6_)" fill="#0088C4" d="M813.018,595.457c0,6.416-0.162,12.824-0.474,19.232
			c-0.318,6.407-0.786,12.804-1.416,19.188s-1.416,12.75-2.358,19.098c-0.941,6.349-2.033,12.666-3.287,18.954
			c-1.255,6.294-2.658,12.553-4.219,18.774c-1.554,6.222-3.264,12.402-5.13,18.546c-1.859,6.138-3.876,12.228-6.036,18.264
			c-2.16,6.042-4.47,12.024-6.924,17.952s-5.052,11.79-7.8,17.592c-2.742,5.796-5.622,11.526-8.646,17.185
			c-3.029,5.658-6.186,11.237-9.485,16.74c-3.3,5.502-6.732,10.92-10.296,16.254c-3.564,5.334-7.254,10.577-11.076,15.731
			s-7.771,10.206-11.838,15.168c-4.074,4.956-8.263,9.816-12.57,14.568s-8.729,9.396-13.266,13.938
			c-4.542,4.536-9.187,8.958-13.938,13.267c-4.752,4.308-9.611,8.496-14.567,12.563c-4.963,4.068-10.021,8.017-15.169,11.838
			c-5.153,3.822-10.397,7.513-15.731,11.076c-5.334,3.564-10.758,6.996-16.26,10.296s-11.082,6.456-16.74,9.486
			c-5.658,3.024-11.388,5.904-17.188,8.646c-5.799,2.742-11.662,5.347-17.59,7.801s-11.912,4.764-17.953,6.924
			s-12.131,4.17-18.27,6.036c-6.14,1.859-12.321,3.569-18.545,5.13c-6.223,1.56-12.481,2.964-18.774,4.218
			c-6.292,1.248-12.611,2.346-18.958,3.288c-6.346,0.942-12.712,1.722-19.097,2.352c-6.384,0.631-12.781,1.104-19.189,1.416
			c-6.408,0.318-12.819,0.475-19.235,0.475s-12.827-0.156-19.236-0.475c-6.408-0.312-12.804-0.785-19.189-1.416
			c-6.385-0.63-12.751-1.409-19.097-2.352c-6.346-0.942-12.666-2.04-18.958-3.288c-6.293-1.254-12.551-2.658-18.774-4.218
			c-6.224-1.561-12.405-3.271-18.545-5.13c-6.139-1.866-12.23-3.876-18.27-6.036c-6.041-2.16-12.025-4.47-17.953-6.924
			c-5.927-2.454-11.791-5.059-17.59-7.801c-5.8-2.741-11.529-5.621-17.187-8.646c-5.658-3.03-11.239-6.187-16.742-9.486
			c-5.503-3.3-10.922-6.731-16.257-10.296c-5.334-3.563-10.578-7.254-15.731-11.076c-5.153-3.821-10.21-7.77-15.169-11.838
			c-4.96-4.067-9.816-8.256-14.57-12.563c-4.754-4.309-9.399-8.73-13.936-13.267c-4.536-4.542-8.959-9.186-13.267-13.938
			c-4.309-4.752-8.498-9.612-12.569-14.568c-4.069-4.962-8.016-10.014-11.838-15.168c-3.822-5.154-7.515-10.397-11.079-15.731
			c-3.564-5.334-6.996-10.752-10.294-16.254c-3.299-5.503-6.46-11.082-9.484-16.74c-3.025-5.658-5.908-11.389-8.651-17.185
			c-2.744-5.802-5.343-11.664-7.798-17.592c-2.455-5.928-4.763-11.91-6.925-17.952c-2.161-6.036-4.173-12.126-6.036-18.264
			c-1.862-6.144-3.573-12.324-5.132-18.546c-1.558-6.222-2.964-12.48-4.215-18.774c-1.252-6.288-2.349-12.605-3.29-18.954
			c-0.941-6.348-1.726-12.714-2.355-19.098s-1.101-12.78-1.416-19.188c-0.315-6.408-0.472-12.816-0.472-19.232
			c0-6.415,0.157-12.827,0.472-19.234c0.315-6.408,0.787-12.804,1.416-19.188c0.629-6.384,1.414-12.75,2.355-19.095
			c0.941-6.346,2.038-12.665,3.29-18.957c1.251-6.292,2.657-12.55,4.215-18.772c1.559-6.224,3.27-12.405,5.132-18.543
			c1.863-6.14,3.875-12.229,6.036-18.269c2.162-6.04,4.47-12.024,6.925-17.951c2.455-5.927,5.054-11.79,7.798-17.59
			c2.743-5.799,5.626-11.527,8.651-17.185c3.024-5.658,6.185-11.238,9.484-16.74c3.298-5.503,6.729-10.922,10.294-16.256
			c3.564-5.334,7.257-10.577,11.079-15.729c3.822-5.153,7.769-10.209,11.838-15.168c4.071-4.959,8.26-9.815,12.569-14.568
			c4.308-4.754,8.731-9.399,13.267-13.935c4.537-4.536,9.182-8.958,13.936-13.266c4.754-4.309,9.61-8.498,14.57-12.567
			c4.959-4.07,10.016-8.016,15.169-11.838c5.153-3.821,10.397-7.514,15.731-11.078c5.335-3.564,10.754-6.996,16.257-10.294
			c5.503-3.297,11.084-6.459,16.742-9.483c5.658-3.024,11.387-5.907,17.187-8.651c5.799-2.742,11.663-5.341,17.59-7.796
			c5.928-2.455,11.912-4.763,17.953-6.925c6.04-2.161,12.131-4.173,18.27-6.035c6.14-1.862,12.321-3.572,18.545-5.131
			c6.223-1.559,12.481-2.964,18.774-4.216c6.292-1.251,12.612-2.348,18.958-3.289c6.346-0.941,12.712-1.727,19.097-2.356
			c6.385-0.628,12.781-1.1,19.189-1.415c6.409-0.314,12.82-0.472,19.236-0.472s12.827,0.158,19.235,0.472
			c6.408,0.315,12.806,0.787,19.189,1.415c6.385,0.629,12.751,1.415,19.097,2.356c6.347,0.941,12.666,2.038,18.958,3.289
			c6.293,1.252,12.552,2.657,18.774,4.216c6.224,1.559,12.405,3.269,18.545,5.131c6.139,1.862,12.229,3.874,18.27,6.035
			c6.041,2.162,12.025,4.47,17.953,6.925c5.928,2.455,11.791,5.054,17.59,7.796c5.801,2.744,11.53,5.627,17.188,8.651
			s11.238,6.186,16.74,9.483c5.502,3.298,10.926,6.73,16.26,10.294s10.578,7.257,15.731,11.078
			c5.148,3.822,10.206,7.768,15.169,11.838c4.956,4.069,9.815,8.258,14.567,12.567c4.752,4.308,9.396,8.73,13.938,13.266
			c4.536,4.536,8.958,9.181,13.266,13.935c4.308,4.753,8.496,9.609,12.57,14.568c4.067,4.959,8.016,10.015,11.838,15.168
			c3.822,5.153,7.512,10.396,11.076,15.729c3.563,5.334,6.996,10.753,10.296,16.256c3.3,5.502,6.456,11.082,9.485,16.74
			c3.024,5.658,5.904,11.386,8.646,17.185c2.748,5.8,5.346,11.663,7.8,17.59c2.454,5.927,4.764,11.911,6.924,17.951
			s4.177,12.129,6.036,18.269c1.866,6.138,3.576,12.319,5.13,18.543c1.561,6.222,2.964,12.48,4.219,18.772
			c1.254,6.292,2.346,12.611,3.287,18.957c0.942,6.345,1.729,12.711,2.358,19.095c0.63,6.384,1.098,12.78,1.416,19.188
			C812.855,582.63,813.018,589.042,813.018,595.457"/>
	</g>
</g>
<path fill-rule="evenodd" clip-rule="evenodd" fill="#FFFFFF" d="M262.185,834.362c-22.112-64.3-43.464-126.396-65.471-190.389
	c73.357-34.934,144.62-69.084,216.211-102.524c4.842-2.262,12.918-0.937,18.164,1.53c69.913,32.825,139.588,66.161,212.197,100.733
	c-8.776,26.389-17.126,52.006-25.813,77.503c-13.073,38.358-27.199,76.389-39.234,115.069c-5.462,17.572-13.61,22.413-30.861,16.247
	c-24.838-8.869-50.063-16.73-75.354-24.237C410.643,810.061,373.39,793.358,262.185,834.362z"/>
<path fill-rule="evenodd" clip-rule="evenodd" fill="#FFFFFF" d="M269.177,592.182c0-36.379-1.342-67.384,1.016-98.099
	c0.537-6.999,13.776-18.524,21.309-18.642c85.106-1.335,170.231-0.625,255.353-1.047c17.041-0.084,24.326,7.495,24.338,23.681
	c0.021,29.242,0.005,58.478,0.005,94.252c-27.673-13.117-53.779-21.61-75.462-36.529c-51.87-35.705-100.795-34.441-152.295,0.526
	C322.666,570.434,297.858,578.605,269.177,592.182z"/>
<path fill-rule="evenodd" clip-rule="evenodd" fill="#FFFFFF" d="M333.286,456.295c5.436-35.231,34.71-13.414,51.754-26.175
	c2.484-15.903,5.483-35.115,8.657-55.48c17.43,0,34.084,0,52.43,0c3.053,19.517,6.063,38.735,8.768,56.007
	c16.105,12.611,45.611-10.231,51.82,25.648C449.213,456.295,393.292,456.295,333.286,456.295z"/>
<path fill-rule="evenodd" clip-rule="evenodd" fill="#FFFFFF" d="M324.536,309.025c1.123-31.143,22.756-51.686,40.044-42.36
	c21.449,11.566,41.401,29.707,55.306,49.667c5.767,8.275,30.636,24.108,8.681,38.381c-6.956,4.529-24.261-7.362-37.015-11.099
	c-12.245-3.584-26.02-4.05-36.791-10.054C341.789,326.319,331.272,314.685,324.536,309.025z"/>
</svg>
