<?xml version="1.0" encoding="utf-8"?>
<!-- Generator: Adobe Illustrator 16.0.0, SVG Export Plug-In . SVG Version: 6.00 Build 0)  -->
<!DOCTYPE svg PUBLIC "-//W3C//DTD SVG 1.1//EN" "http://www.w3.org/Graphics/SVG/1.1/DTD/svg11.dtd">
<svg version="1.1" id="Pagina_inicia_Movil" xmlns="http://www.w3.org/2000/svg" xmlns:xlink="http://www.w3.org/1999/xlink"
	 x="0px" y="0px" width="560px" height="560px" viewBox="200 0 560 560" enable-background="new 200 0 560 560"
	 xml:space="preserve">
<title>servicio-1</title>
<circle fill="#0088C4" cx="480" cy="280" r="280"/>
<g>
	<path fill-rule="evenodd" clip-rule="evenodd" fill="#FFFFFF" d="M371.382,469.01c-15.219-44.255-29.915-86.994-45.062-131.038
		c50.489-24.043,99.538-47.547,148.812-70.563c3.331-1.557,8.89-0.645,12.499,1.053c48.121,22.594,96.074,45.537,146.049,69.331
		c-6.039,18.163-11.785,35.796-17.766,53.344c-8.996,26.4-18.721,52.576-27.004,79.198c-3.758,12.096-9.367,15.427-21.242,11.184
		c-17.094-6.105-34.455-11.516-51.861-16.682C473.563,452.286,447.92,440.789,371.382,469.01z"/>
	<path fill-rule="evenodd" clip-rule="evenodd" fill="#FFFFFF" d="M376.193,302.326c0-25.039-0.924-46.377,0.698-67.519
		c0.369-4.817,9.482-12.751,14.667-12.83c58.575-0.92,117.164-0.432,175.75-0.722c11.729-0.057,16.744,5.159,16.75,16.299
		c0.016,20.125,0.006,40.248,0.006,64.87c-19.049-9.028-37.018-14.874-51.941-25.142c-35.697-24.574-69.373-23.704-104.817,0.362
		C413.007,287.357,395.934,292.981,376.193,302.326z"/>
	<path fill-rule="evenodd" clip-rule="evenodd" fill="#FFFFFF" d="M420.317,208.8c3.742-24.249,23.89-9.232,35.622-18.016
		c1.709-10.946,3.773-24.169,5.96-38.185c11.991,0,23.456,0,36.083,0c2.102,13.433,4.174,26.66,6.035,38.548
		c11.084,8.68,31.393-7.043,35.664,17.653C500.107,208.8,461.618,208.8,420.317,208.8z"/>
	<path fill-rule="evenodd" clip-rule="evenodd" fill="#FFFFFF" d="M411.529,107.438c0.773-21.435,15.664-35.573,27.561-29.156
		c14.764,7.961,28.497,20.447,38.067,34.185c3.966,5.695,21.085,16.592,5.976,26.416c-4.79,3.118-16.696-5.067-25.477-7.639
		c-8.43-2.467-17.909-2.788-25.323-6.92C423.404,119.341,416.166,111.333,411.529,107.438z"/>
</g>
<g display="none">
	<path display="inline" fill-rule="evenodd" clip-rule="evenodd" fill="#FFFFFF" d="M398.045,330.66
		c-28.119,0-56.253-0.539-84.351,0.256c-12.089,0.344-15.124-4.123-15.014-15.453c0.473-49.203,0.118-98.417,0.252-147.624
		c0.05-18.152,5.25-23.105,23.614-23.128c50.616-0.055,101.23-0.049,151.846,0c18.976,0.019,23.638,4.467,23.666,22.792
		c0.077,49.678-0.285,99.362,0.265,149.034c0.127,11.29-3.468,14.604-14.518,14.348C455.233,330.222,426.635,330.66,398.045,330.66z
		"/>
	<path display="inline" fill-rule="evenodd" clip-rule="evenodd" fill="#FFFFFF" d="M655.814,345.286
		c7.591,4.139,19.417-2.603,19.576,12.025c0.177,16.032-0.533,17.664-16.755,17.745c-3.747,0.019-7.535-0.353-11.237,0.065
		c-13.895,1.575-23.368-0.597-29.642-16.537c-6.367-16.17-22.613-23.027-40.541-22.258c-17.963,0.769-30.794,9.936-39.069,25.607
		c-1.942,3.688-3.029,7.824-5.009,13.084c-27.606,0-55.586,0.124-83.558-0.225c-2.452-0.029-5.79-2.674-7.114-5.009
		c-3.828-6.76-6.839-13.984-10.778-22.306c27.032,0,53.831,0,82.647,0c0-6.357,0-11.316,0-16.276
		c0-44.965,0.351-89.932-0.21-134.891c-0.173-13.659,5.121-18.474,18.303-17.808c14.017,0.709,28.099,0.417,42.144,0.096
		c17.374-0.402,30.881,6.539,40.679,20.634c10.953,15.756,22.52,31.192,32.027,47.794c4.864,8.5,7.677,19.146,8.167,28.986
		C656.602,299.258,655.814,322.601,655.814,345.286z M579.514,257.465c10.293,0,20.59,0.057,30.881-0.017
		c8.984-0.065,11.046-4.129,6.017-11.426c-7.43-10.777-14.804-21.624-22.904-31.888c-2.204-2.793-6.865-4.861-10.523-5.072
		c-11.191-0.652-22.488-0.778-33.647,0.093c-3.387,0.264-8.748,3.961-9.342,6.874c-7.129,35.03-1.896,41.443,32.502,41.443
		C574.835,257.472,577.175,257.472,579.514,257.465z"/>
	<path display="inline" fill-rule="evenodd" clip-rule="evenodd" fill="#FFFFFF" d="M613.625,380.956
		c0.154,19.499-14.999,34.496-34.727,34.371c-19.008-0.122-33.915-14.833-34.109-33.668c-0.195-19.389,15.123-34.521,34.805-34.37
		C598.585,347.433,613.476,362.164,613.625,380.956z M578.825,398.37c10.48-1.015,17.228-6.313,17.364-16.802
		c0.14-10.418-6.129-16.783-16.637-16.959c-10.495-0.174-16.782,5.726-17.02,16.404C562.297,391.817,568.834,396.936,578.825,398.37
		z"/>
	<path display="inline" fill-rule="evenodd" clip-rule="evenodd" fill="#FFFFFF" d="M398.295,415.318
		c-18.718-0.012-34.344-14.977-34.788-33.318c-0.455-18.722,15.614-34.76,34.803-34.733c19.373,0.028,35.146,15.811,34.722,34.749
		C432.618,400.47,417.117,415.331,398.295,415.318z M397.766,398.376c10.53-0.578,16.579-6.268,17.79-16.281
		c1.132-9.352-7.68-18.048-17.436-17.664c-10.536,0.414-16.633,6.622-16.739,16.754
		C381.273,391.398,387.602,397.184,397.766,398.376z"/>
	<path display="inline" fill-rule="evenodd" clip-rule="evenodd" fill="#FFFFFF" d="M366.277,347.189
		c-2.026,3.48-3.034,4.563-3.318,5.806c-5.52,24.326-23.922,23.512-42.778,22.19c-6.04-0.425-12.133-0.047-18.204-0.072
		c-16.038-0.061-19.326-3.312-16.451-18.844c0.642-3.475,5.894-8.574,9.162-8.684C317.915,346.837,341.179,347.189,366.277,347.189z
		"/>
</g>
</svg>
